SplineFontDB: 3.2
FontName: Eliasovich
FullName: Eliasovich
FamilyName: Eliasovich
Weight: Regular
Copyright: Shankar Sivarajan\nBased on Waltograph.\n
Version: 
ItalicAngle: 0
UnderlinePosition: -40
UnderlineWidth: 35
Ascent: 800
Descent: 200
InvalidEm: 0
LayerCount: 2
Layer: 0 1 "Back" 1
Layer: 1 1 "Fore" 0
XUID: [1021 146 -1796264217 22363]
StyleMap: 0x0040
FSType: 0
OS2Version: 2
OS2_WeightWidthSlopeOnly: 0
OS2_UseTypoMetrics: 0
CreationTime: 18000
ModificationTime: 1679433968
PfmFamily: 65
TTFWeight: 500
TTFWidth: 5
LineGap: 0
VLineGap: 0
Panose: 3 8 6 2 0 0 0 0 0 0
OS2TypoAscent: 578
OS2TypoAOffset: 0
OS2TypoDescent: -191
OS2TypoDOffset: 0
OS2TypoLinegap: 0
OS2WinAscent: 974
OS2WinAOffset: 0
OS2WinDescent: 292
OS2WinDOffset: 0
HheadAscent: 1070
HheadAOffset: 0
HheadDescent: 291
HheadDOffset: 0
OS2SubXSize: 0
OS2SubYSize: 0
OS2SubXOff: 0
OS2SubYOff: 0
OS2SupXSize: 0
OS2SupYSize: 0
OS2SupXOff: 0
OS2SupYOff: 0
OS2StrikeYSize: 1
OS2StrikeYPos: 0
OS2CapHeight: 761
OS2XHeight: 326
OS2Vendor: 'MGBF'
OS2CodePages: 00000001.00000000
OS2UnicodeRanges: 00000001.00000000.00000000.00000000
Lookup: 1 0 0 "'salt' Stylistic Alternatives in Latin lookup 0" { "'salt' Stylistic Alternatives in Latin lookup 0 subtable"  } ['salt' ('latn' <'dflt' > ) ]
Lookup: 6 0 0 "'calt' Contextual Alternates in Latin lookup 1" { "'calt' Contextual Alternates in Latin lookup 1 subtable"  } ['calt' ('latn' <'dflt' > ) ]
Lookup: 4 0 1 "'liga' Standard Ligatures in Latin lookup 2" { "'liga' Standard Ligatures in Latin lookup 2 subtable"  } ['liga' ('latn' <'dflt' > ) ]
Lookup: 1 0 0 "Single Substitution lookup 3" { "Single Substitution lookup 3 subtable"  } []
Lookup: 258 0 0 "'kern' Horizontal Kerning in Latin lookup 0" { "'kern' Horizontal Kerning in Latin lookup 0 subtable" [150,15,0] "'kern' Horizontal Kerning in Latin lookup 0-1" [150,15,2] } ['kern' ('latn' <'dflt' > ) ]
MarkAttachClasses: 1
DEI: 91125
ChainSub2: coverage "'calt' Contextual Alternates in Latin lookup 1 subtable" 0 0 0 1

StartChar: .notdef
Encoding: 256 -1 0
Width: 863
GlyphClass: 1
Flags: W
LayerCount: 2
Fore
SplineSet
559 507 m 1,0,1
 545 540 545 540 545 571 c 0,2,3
 545 627 545 627 583 667 c 0,4,5
 603 686 603 686 627.5 695 c 128,-1,6
 652 704 652 704 678 704 c 0,7,8
 710 704 710 704 741 691 c 128,-1,9
 772 678 772 678 798 652 c 256,10,11
 824 626 824 626 837 595.5 c 128,-1,12
 850 565 850 565 850 533 c 0,13,14
 850 507 850 507 841 482.5 c 128,-1,15
 832 458 832 458 813 438 c 0,16,17
 793 418 793 418 768 409 c 128,-1,18
 743 400 743 400 717 400 c 0,19,20
 687 400 687 400 657 412 c 1,21,22
 674 383 674 383 683 350 c 128,-1,23
 692 317 692 317 692 281 c 0,24,25
 692 228 692 228 671.5 180.5 c 128,-1,26
 651 133 651 133 615.5 98 c 128,-1,27
 580 63 580 63 533 42.5 c 128,-1,28
 486 22 486 22 433 22 c 0,29,30
 379 22 379 22 331.5 42.5 c 128,-1,31
 284 63 284 63 248.5 98 c 128,-1,32
 213 133 213 133 192.5 180.5 c 128,-1,33
 172 228 172 228 172 281 c 0,34,35
 172 317 172 317 181.5 350 c 128,-1,36
 191 383 191 383 208 412 c 1,37,38
 178 400 178 400 148 400 c 0,39,40
 122 400 122 400 97.5 409 c 128,-1,41
 73 418 73 418 53 438 c 0,42,43
 15 478 15 478 15 533 c 0,44,45
 15 565 15 565 28 595.5 c 128,-1,46
 41 626 41 626 67 652 c 256,47,48
 93 678 93 678 124.5 691 c 128,-1,49
 156 704 156 704 188 704 c 0,50,51
 214 704 214 704 238.5 695 c 128,-1,52
 263 686 263 686 283 667 c 0,53,54
 302 647 302 647 311 622.5 c 128,-1,55
 320 598 320 598 320 572 c 0,56,57
 320 538 320 538 307 508 c 1,58,59
 363 540 363 540 433 540 c 256,60,61
 503 540 503 540 559 507 c 1,0,1
EndSplineSet
Validated: 1
EndChar

StartChar: numbersign
Encoding: 35 35 4
Width: 573
GlyphClass: 1
Flags: W
LayerCount: 2
Fore
SplineSet
35 275 m 1,0,1
 24 285 24 285 22 297.5 c 128,-1,2
 20 310 20 310 24 322 c 0,3,4
 31 345 31 345 50 355 c 0,5,6
 55 357 55 357 62 358 c 128,-1,7
 69 359 69 359 77 359 c 2,8,-1
 104 358 l 2,9,10
 118 357 118 357 130.5 356.5 c 128,-1,11
 143 356 143 356 156 355 c 1,12,-1
 189 457 l 1,13,14
 166 459 166 459 144.5 463 c 128,-1,15
 123 467 123 467 101 474 c 0,16,17
 80 480 80 480 74 492.5 c 128,-1,18
 68 505 68 505 72 518 c 0,19,20
 77 532 77 532 89 543 c 128,-1,21
 101 554 101 554 116 557 c 1,22,-1
 115 554 l 2,23,24
 114 550 114 550 118.5 549 c 128,-1,25
 123 548 123 548 134 545 c 0,26,27
 154 539 154 539 173.5 535 c 128,-1,28
 193 531 193 531 213 529 c 1,29,-1
 219 547 l 2,30,31
 226 567 226 567 232.5 588.5 c 128,-1,32
 239 610 239 610 244 632 c 0,33,34
 247 638 247 638 262.5 641.5 c 128,-1,35
 278 645 278 645 288 645 c 2,36,-1
 306 646 l 2,37,38
 321 646 321 646 319 636 c 2,39,-1
 319 635 l 1,40,41
 314 620 314 620 310.5 605 c 128,-1,42
 307 590 307 590 302 575 c 0,43,44
 298 562 298 562 294.5 550 c 128,-1,45
 291 538 291 538 286 527 c 1,46,47
 309 527 309 527 333 528.5 c 128,-1,48
 357 530 357 530 380 532 c 1,49,-1
 389 560 l 2,50,51
 394 577 394 577 400 595 c 128,-1,52
 406 613 406 613 411 632 c 0,53,54
 416 638 416 638 431 642 c 128,-1,55
 446 646 446 646 461 646 c 0,56,57
 473 646 473 646 481.5 643 c 128,-1,58
 490 640 490 640 489 634 c 2,59,-1
 469 566 l 1,60,-1
 460 538 l 1,61,62
 481 540 481 540 503 541 c 128,-1,63
 525 542 525 542 548 543 c 0,64,65
 553 544 553 544 563 544 c 0,66,67
 577 544 577 544 581 540 c 0,68,69
 584 532 584 532 578 514 c 0,70,71
 573 498 573 498 564.5 482.5 c 128,-1,72
 556 467 556 467 545 463 c 1,73,74
 527 466 527 466 508 467 c 128,-1,75
 489 468 489 468 469 468 c 2,76,-1
 437 466 l 1,77,-1
 409 377 l 1,78,-1
 401 352 l 1,79,80
 438 354 438 354 478 358 c 0,81,82
 483 359 483 359 488 359 c 2,83,-1
 499 359 l 2,84,85
 511 359 511 359 518.5 356 c 128,-1,86
 526 353 526 353 524 345 c 0,87,88
 518 335 518 335 512 323 c 128,-1,89
 506 311 506 311 500.5 301 c 128,-1,90
 495 291 495 291 489 284 c 128,-1,91
 483 277 483 277 476 277 c 0,92,93
 450 276 450 276 426 275.5 c 128,-1,94
 402 275 402 275 379 275 c 1,95,96
 372 250 372 250 366.5 224.5 c 128,-1,97
 361 199 361 199 356 173 c 0,98,99
 354 163 354 163 354.5 159 c 128,-1,100
 355 155 355 155 366 155 c 1,101,102
 355 141 355 141 347 134 c 128,-1,103
 339 127 339 127 322 127 c 0,104,105
 301 127 301 127 287 139 c 128,-1,106
 273 151 273 151 276 168 c 0,107,108
 281 195 281 195 287 221 c 128,-1,109
 293 247 293 247 301 273 c 1,110,111
 275 272 275 272 250 272 c 2,112,-1
 201 272 l 1,113,114
 195 248 195 248 191 223 c 128,-1,115
 187 198 187 198 184 172 c 0,116,117
 183 167 183 167 183 163.5 c 128,-1,118
 183 160 183 160 181 156 c 0,119,120
 177 142 177 142 169 136.5 c 128,-1,121
 161 131 161 131 151 131 c 256,122,123
 141 131 141 131 131 135 c 128,-1,124
 121 139 121 139 115 143 c 0,125,126
 106 147 106 147 108 165 c 0,127,128
 113 193 113 193 118 219.5 c 128,-1,129
 123 246 123 246 131 272 c 1,130,131
 84 272 84 272 35 275 c 1,0,1
261 457 m 1,132,133
 252 431 252 431 242 404.5 c 128,-1,134
 232 378 232 378 224 351 c 1,135,136
 245 350 245 350 266 350 c 2,137,-1
 322 350 l 1,138,-1
 330 374 l 1,139,-1
 358 462 l 1,140,-1
 261 457 l 1,132,133
EndSplineSet
Validated: 1
EndChar

StartChar: dollar
Encoding: 36 36 5
Width: 573
GlyphClass: 1
Flags: W
LayerCount: 2
Fore
SplineSet
279 384 m 1,0,1
 292 382 292 382 304.5 381 c 128,-1,2
 317 380 317 380 331 378 c 1,3,-1
 335 571 l 1,4,-1
 332 571 l 2,5,6
 309 571 309 571 282 568 c 1,7,8
 281 524 281 524 280.5 478 c 128,-1,9
 280 432 280 432 279 384 c 1,0,1
133 464 m 0,10,11
 133 430 133 430 158 415 c 128,-1,12
 183 400 183 400 222 392 c 1,13,-1
 224 557 l 1,14,15
 187 546 187 546 160 524 c 128,-1,16
 133 502 133 502 133 464 c 0,10,11
470 202 m 0,17,18
 470 249 470 249 447 274 c 128,-1,19
 424 299 424 299 388 312 c 1,20,21
 387 256 387 256 387 201.5 c 128,-1,22
 387 147 387 147 386 96 c 1,23,24
 409 109 409 109 425 125.5 c 128,-1,25
 441 142 441 142 451 157 c 128,-1,26
 461 172 461 172 465.5 184 c 128,-1,27
 470 196 470 196 470 202 c 0,17,18
330 327 m 1,28,29
 317 329 317 329 304.5 331 c 128,-1,30
 292 333 292 333 279 335 c 1,31,32
 278 264 278 264 278 195.5 c 128,-1,33
 278 127 278 127 277 64 c 1,34,35
 304 66 304 66 324 71 c 1,36,-1
 324 83 l 2,37,38
 324 126 324 126 325.5 169.5 c 128,-1,39
 327 213 327 213 328 242 c 2,40,-1
 330 327 l 1,28,29
206 211 m 1,41,42
 206 200 206 200 199 192 c 128,-1,43
 192 184 192 184 184 184 c 0,44,45
 174 184 174 184 168 196 c 0,46,47
 161 211 161 211 154 220.5 c 128,-1,48
 147 230 147 230 127 230 c 2,49,-1
 118 230 l 2,50,51
 111 230 111 230 101.5 228 c 128,-1,52
 92 226 92 226 84 219.5 c 128,-1,53
 76 213 76 213 70 199.5 c 128,-1,54
 64 186 64 186 64 163 c 0,55,56
 64 142 64 142 80 126.5 c 128,-1,57
 96 111 96 111 119 99 c 128,-1,58
 142 87 142 87 169 79.5 c 128,-1,59
 196 72 196 72 218 68 c 1,60,-1
 222 342 l 1,61,62
 190 346 190 346 162 353.5 c 128,-1,63
 134 361 134 361 112.5 374 c 128,-1,64
 91 387 91 387 78.5 407.5 c 128,-1,65
 66 428 66 428 66 460 c 256,66,67
 66 492 66 492 78 518 c 128,-1,68
 90 544 90 544 111.5 564.5 c 128,-1,69
 133 585 133 585 162 599.5 c 128,-1,70
 191 614 191 614 225 623 c 1,71,-1
 226 672 l 1,72,73
 233 686 233 686 250 686 c 2,74,-1
 253 686 l 2,75,76
 265 686 265 686 273.5 680 c 128,-1,77
 282 674 282 674 284 665 c 0,78,79
 284 657 284 657 283.5 650 c 128,-1,80
 283 643 283 643 283 635 c 1,81,82
 297 637 297 637 309.5 638 c 128,-1,83
 322 639 322 639 336 640 c 1,84,-1
 337 656 l 2,85,86
 341 664 341 664 343 672 c 128,-1,87
 345 680 345 680 353 680 c 0,88,89
 365 679 365 679 378 676.5 c 128,-1,90
 391 674 391 674 393 665 c 0,91,92
 393 658 393 658 392.5 652 c 128,-1,93
 392 646 392 646 392 639 c 1,94,95
 432 634 432 634 462 615.5 c 128,-1,96
 492 597 492 597 508 565 c 0,97,98
 512 557 512 557 512 549 c 0,99,100
 512 529 512 529 496 515 c 128,-1,101
 480 501 480 501 466 501 c 0,102,103
 462 501 462 501 460 502 c 1,104,105
 474 512 474 512 474 528 c 0,106,107
 474 540 474 540 462 547 c 0,108,109
 456 550 456 550 438 556 c 128,-1,110
 420 562 420 562 391 567 c 1,111,112
 390 520 390 520 389.5 470 c 128,-1,113
 389 420 389 420 388 369 c 1,114,115
 419 362 419 362 446.5 351 c 128,-1,116
 474 340 474 340 495 321 c 128,-1,117
 516 302 516 302 528.5 273.5 c 128,-1,118
 541 245 541 245 541 205 c 0,119,120
 541 176 541 176 527.5 148.5 c 128,-1,121
 514 121 514 121 492 97.5 c 128,-1,122
 470 74 470 74 442 55 c 128,-1,123
 414 36 414 36 385 23 c 1,124,-1
 385 -13 l 1,125,126
 377 -24 377 -24 373 -28 c 128,-1,127
 369 -32 369 -32 360 -32 c 2,128,-1
 356 -32 l 2,129,130
 336 -31 336 -31 332 -21.5 c 128,-1,131
 328 -12 328 -12 326 4 c 1,132,133
 310 0 310 0 291 0 c 2,134,-1
 276 0 l 1,135,-1
 276 -13 l 1,136,137
 268 -24 268 -24 264 -28 c 128,-1,138
 260 -32 260 -32 251 -32 c 2,139,-1
 247 -32 l 2,140,141
 239 -32 239 -32 234.5 -30.5 c 128,-1,142
 230 -29 230 -29 224 -24 c 0,143,144
 220 -19 220 -19 219 -11.5 c 128,-1,145
 218 -4 218 -4 218 4 c 2,146,-1
 218 9 l 1,147,148
 186 16 186 16 153.5 29.5 c 128,-1,149
 121 43 121 43 94.5 62 c 128,-1,150
 68 81 68 81 51 105 c 128,-1,151
 34 129 34 129 34 159 c 0,152,153
 34 192 34 192 44 212.5 c 128,-1,154
 54 233 54 233 69 244.5 c 128,-1,155
 84 256 84 256 102 259.5 c 128,-1,156
 120 263 120 263 136 263 c 0,157,158
 177 263 177 263 206 211 c 1,41,42
EndSplineSet
Validated: 1
EndChar

StartChar: percent
Encoding: 37 37 6
Width: 728
GlyphClass: 1
Flags: W
LayerCount: 2
Fore
SplineSet
100 596 m 1,0,1
 111 608 111 608 125.5 612.5 c 128,-1,2
 140 617 140 617 157 618 c 1,3,4
 157 614 157 614 162 612 c 1,5,6
 182 629 182 629 217 629 c 0,7,8
 240 629 240 629 269.5 606.5 c 128,-1,9
 299 584 299 584 318 547 c 1,10,11
 378 552 378 552 441 578.5 c 128,-1,12
 504 605 504 605 550 644 c 0,13,14
 557 649 557 649 565 649 c 0,15,16
 572 649 572 649 581.5 644 c 128,-1,17
 591 639 591 639 599.5 631.5 c 128,-1,18
 608 624 608 624 613.5 615 c 128,-1,19
 619 606 619 606 619 599 c 256,20,21
 619 592 619 592 616 589 c 0,22,23
 555 514 555 514 494 433.5 c 128,-1,24
 433 353 433 353 375 276 c 0,25,26
 325 209 325 209 273 140 c 128,-1,27
 221 71 221 71 168 5 c 0,28,29
 160 -5 160 -5 148 -5 c 0,30,31
 140 -5 140 -5 130.5 -0.5 c 128,-1,32
 121 4 121 4 113.5 10.5 c 128,-1,33
 106 17 106 17 101 25 c 128,-1,34
 96 33 96 33 96 41 c 0,35,36
 96 50 96 50 103 57 c 0,37,38
 148 100 148 100 191 150.5 c 128,-1,39
 234 201 234 201 274.5 254.5 c 128,-1,40
 315 308 315 308 353 362.5 c 128,-1,41
 391 417 391 417 426 468 c 0,42,43
 433 478 433 478 437.5 485 c 128,-1,44
 442 492 442 492 446.5 498 c 128,-1,45
 451 504 451 504 456 511 c 128,-1,46
 461 518 461 518 469 529 c 1,47,48
 436 515 436 515 403 508 c 128,-1,49
 370 501 370 501 334 499 c 1,50,51
 336 492 336 492 336 485 c 2,52,-1
 336 471 l 2,53,54
 336 440 336 440 324 414.5 c 128,-1,55
 312 389 312 389 292.5 370.5 c 128,-1,56
 273 352 273 352 248.5 342 c 128,-1,57
 224 332 224 332 198 332 c 0,58,59
 125 332 125 332 84.5 371 c 128,-1,60
 44 410 44 410 44 471 c 0,61,62
 44 489 44 489 46 504 c 128,-1,63
 48 519 48 519 54 533 c 128,-1,64
 60 547 60 547 71.5 562.5 c 128,-1,65
 83 578 83 578 101 596 c 1,66,-1
 100 596 l 1,0,1
392 146 m 0,67,68
 392 164 392 164 397 187 c 128,-1,69
 402 210 402 210 416 231.5 c 128,-1,70
 430 253 430 253 455 270.5 c 128,-1,71
 480 288 480 288 520 294 c 0,72,73
 531 299 531 299 543 300.5 c 128,-1,74
 555 302 555 302 564 302 c 0,75,76
 591 302 591 302 613 287.5 c 128,-1,77
 635 273 635 273 650.5 250.5 c 128,-1,78
 666 228 666 228 675 200.5 c 128,-1,79
 684 173 684 173 684 146 c 0,80,81
 684 115 684 115 671 89.5 c 128,-1,82
 658 64 658 64 637.5 45.5 c 128,-1,83
 617 27 617 27 591 17 c 128,-1,84
 565 7 565 7 539 7 c 0,85,86
 464 7 464 7 428 46 c 128,-1,87
 392 85 392 85 392 146 c 0,67,68
487 190 m 1,88,89
 489 205 489 205 489.5 214 c 128,-1,90
 490 223 490 223 491 228 c 1,91,92
 474 220 474 220 462.5 204 c 128,-1,93
 451 188 451 188 451 155 c 0,94,95
 451 117 451 117 473.5 92.5 c 128,-1,96
 496 68 496 68 535 68 c 0,97,98
 550 68 550 68 566.5 75 c 128,-1,99
 583 82 583 82 596.5 94 c 128,-1,100
 610 106 610 106 618.5 122.5 c 128,-1,101
 627 139 627 139 627 157 c 256,102,103
 627 175 627 175 621.5 191 c 128,-1,104
 616 207 616 207 607 219 c 128,-1,105
 598 231 598 231 587 238 c 128,-1,106
 576 245 576 245 564 245 c 0,107,108
 559 245 559 245 554 243.5 c 128,-1,109
 549 242 549 242 547 241 c 2,110,-1
 487 190 l 1,88,89
209 518 m 0,111,112
 193 522 193 522 178.5 535.5 c 128,-1,113
 164 549 164 549 157 565 c 1,114,-1
 154 562 l 2,115,116
 136 547 136 547 120.5 527 c 128,-1,117
 105 507 105 507 105 469 c 256,118,119
 105 431 105 431 132 410.5 c 128,-1,120
 159 390 159 390 197 390 c 0,121,122
 212 390 212 390 226 396 c 128,-1,123
 240 402 240 402 251 413 c 128,-1,124
 262 424 262 424 268.5 439 c 128,-1,125
 275 454 275 454 275 472 c 0,126,127
 275 479 275 479 274 487 c 128,-1,128
 273 495 273 495 271 503 c 1,129,130
 255 505 255 505 239 508 c 0,131,132
 225 512 225 512 209 518 c 0,111,112
204 572 m 256,133,134
 204 570 204 570 208 565.5 c 128,-1,135
 212 561 212 561 218 559 c 0,136,137
 224 556 224 556 231.5 554.5 c 128,-1,138
 239 553 239 553 247 551 c 1,139,140
 229 574 229 574 212 574 c 0,141,142
 204 574 204 574 204 572 c 256,133,134
EndSplineSet
Validated: 1
EndChar

StartChar: quotesingle
Encoding: 39 39 7
Width: 123
GlyphClass: 1
Flags: W
LayerCount: 2
Fore
SplineSet
45 492 m 0,0,1
 63 492 63 492 76 484.5 c 128,-1,2
 89 477 89 477 97 466.5 c 128,-1,3
 105 456 105 456 109 444.5 c 128,-1,4
 113 433 113 433 113 424 c 0,5,6
 113 404 113 404 101 389.5 c 128,-1,7
 89 375 89 375 74 365 c 128,-1,8
 59 355 59 355 45.5 350.5 c 128,-1,9
 32 346 32 346 29 346 c 0,10,11
 19 346 19 346 19 357 c 0,12,13
 19 365 19 365 23 370.5 c 128,-1,14
 27 376 27 376 31.5 380.5 c 128,-1,15
 36 385 36 385 40 388.5 c 128,-1,16
 44 392 44 392 44 397 c 0,17,18
 44 406 44 406 40 410 c 128,-1,19
 36 414 36 414 30.5 419 c 128,-1,20
 25 424 25 424 21 432.5 c 128,-1,21
 17 441 17 441 17 460 c 0,22,23
 17 463 17 463 18 468.5 c 128,-1,24
 19 474 19 474 22 479 c 128,-1,25
 25 484 25 484 30.5 488 c 128,-1,26
 36 492 36 492 45 492 c 0,0,1
EndSplineSet
Validated: 1
EndChar

StartChar: parenleft
Encoding: 40 40 8
Width: 199
GlyphClass: 1
Flags: W
LayerCount: 2
Fore
SplineSet
186 -96 m 1,0,-1
 152 -128 l 1,1,-1
 131 -116 l 1,2,3
 95 -69 95 -69 71 0.5 c 128,-1,4
 47 70 47 70 32.5 142.5 c 128,-1,5
 18 215 18 215 12 280.5 c 128,-1,6
 6 346 6 346 6 387 c 0,7,8
 6 453 6 453 12.5 508.5 c 128,-1,9
 19 564 19 564 34 620.5 c 128,-1,10
 49 677 49 677 73.5 739.5 c 128,-1,11
 98 802 98 802 135 880 c 1,12,-1
 147 882 l 1,13,14
 162 873 162 873 165 853 c 1,15,16
 120 760 120 760 97.5 645 c 128,-1,17
 75 530 75 530 75 413 c 0,18,19
 75 367 75 367 81.5 303.5 c 128,-1,20
 88 240 88 240 101.5 175.5 c 128,-1,21
 115 111 115 111 136 54 c 128,-1,22
 157 -3 157 -3 186 -34 c 1,23,-1
 189 -38 l 1,24,-1
 191 -42 l 1,25,-1
 186 -96 l 1,0,-1
EndSplineSet
Validated: 1
EndChar

StartChar: parenright
Encoding: 41 41 9
Width: 203
GlyphClass: 1
Flags: W
LayerCount: 2
Fore
SplineSet
42 -127 m 1,0,-1
 17 -84 l 1,1,-1
 22 -50 l 1,2,3
 45 -28 45 -28 63 9 c 128,-1,4
 81 46 81 46 94 92 c 128,-1,5
 107 138 107 138 116 189 c 128,-1,6
 125 240 125 240 130 289 c 128,-1,7
 135 338 135 338 137.5 382.5 c 128,-1,8
 140 427 140 427 140 460 c 0,9,10
 140 508 140 508 136 558.5 c 128,-1,11
 132 609 132 609 120.5 655.5 c 128,-1,12
 109 702 109 702 89 741 c 128,-1,13
 69 780 69 780 36 805 c 2,14,-1
 6 828 l 1,15,-1
 17 856 l 1,16,17
 56 848 56 848 84.5 823 c 128,-1,18
 113 798 113 798 133 763 c 128,-1,19
 153 728 153 728 165.5 686.5 c 128,-1,20
 178 645 178 645 185 603.5 c 128,-1,21
 192 562 192 562 194.5 525 c 128,-1,22
 197 488 197 488 197 462 c 0,23,24
 197 394 197 394 194.5 313.5 c 128,-1,25
 192 233 192 233 181.5 152.5 c 128,-1,26
 171 72 171 72 148 -1 c 128,-1,27
 125 -74 125 -74 85 -128 c 1,28,-1
 75 -129 l 1,29,-1
 42 -127 l 1,0,-1
EndSplineSet
Validated: 1
EndChar

StartChar: asterisk
Encoding: 42 42 10
Width: 321
GlyphClass: 1
Flags: W
LayerCount: 2
Fore
SplineSet
183 490 m 1,0,-1
 292 398 l 1,1,-1
 293 387 l 1,2,-1
 281 369 l 2,3,4
 279 368 279 368 275 368 c 0,5,6
 270 368 270 368 268 369 c 0,7,8
 262 375 262 375 256 381 c 128,-1,9
 250 387 250 387 240 396 c 128,-1,10
 230 405 230 405 213.5 418.5 c 128,-1,11
 197 432 197 432 170 453 c 1,12,-1
 164 338 l 2,13,14
 162 330 162 330 157 330 c 0,15,16
 143 330 143 330 138.5 332 c 128,-1,17
 134 334 134 334 133 339 c 2,18,-1
 128 449 l 1,19,-1
 116 438 l 2,20,21
 106 429 106 429 99 422.5 c 128,-1,22
 92 416 92 416 86 409.5 c 128,-1,23
 80 403 80 403 73 396 c 128,-1,24
 66 389 66 389 57 378 c 0,25,26
 50 368 50 368 39 368 c 1,27,28
 21 379 21 379 16 387 c 128,-1,29
 11 395 11 395 11 404 c 0,30,31
 11 416 11 416 15 423 c 0,32,33
 26 434 26 434 47 451 c 128,-1,34
 68 468 68 468 106 494 c 1,35,-1
 91 505 l 2,36,37
 88 506 88 506 70.5 516 c 128,-1,38
 53 526 53 526 10 553 c 0,39,40
 9 554 9 554 9 556 c 0,41,42
 9 560 9 560 15 568.5 c 128,-1,43
 21 577 21 577 40 597 c 0,44,45
 45 601 45 601 49 601 c 0,46,47
 51 601 51 601 55 599 c 128,-1,48
 59 597 59 597 67.5 590.5 c 128,-1,49
 76 584 76 584 90.5 572 c 128,-1,50
 105 560 105 560 128 540 c 1,51,-1
 127 581 l 2,52,53
 127 588 127 588 128.5 596.5 c 128,-1,54
 130 605 130 605 136 628 c 1,55,-1
 186 646 l 1,56,-1
 189 645 l 1,57,-1
 192 643 l 2,58,59
 196 641 196 641 198.5 638 c 128,-1,60
 201 635 201 635 201 627 c 0,61,62
 201 620 201 620 200 616 c 2,63,-1
 198 608 l 2,64,65
 193 594 193 594 188.5 573.5 c 128,-1,66
 184 553 184 553 182 539 c 1,67,-1
 203 550 l 2,68,69
 217 558 217 558 234.5 565 c 128,-1,70
 252 572 252 572 288 587 c 1,71,-1
 303 577 l 1,72,-1
 305 563 l 1,73,-1
 183 490 l 1,0,-1
EndSplineSet
Validated: 1
EndChar

StartChar: plus
Encoding: 43 43 11
Width: 422
GlyphClass: 1
Flags: W
LayerCount: 2
Fore
SplineSet
351 416 m 2,0,1
 354 417 354 417 361 417 c 0,2,3
 371 417 371 417 375 413 c 0,4,5
 378 405 378 405 378 387 c 0,6,7
 378 371 378 371 375 355.5 c 128,-1,8
 372 340 372 340 366 336 c 1,9,10
 352 339 352 339 339.5 340 c 128,-1,11
 327 341 327 341 313 341 c 0,12,13
 293 341 293 341 274 339 c 128,-1,14
 255 337 255 337 235 335 c 1,15,-1
 235 322 l 2,16,17
 235 296 235 296 238.5 270 c 128,-1,18
 242 244 242 244 251 215 c 0,19,20
 253 207 253 207 253 205 c 0,21,22
 253 196 253 196 246.5 192.5 c 128,-1,23
 240 189 240 189 230 189 c 0,24,25
 219 189 219 189 208.5 191.5 c 128,-1,26
 198 194 198 194 191 197 c 0,27,28
 180 200 180 200 177 211 c 0,29,30
 170 243 170 243 168 271.5 c 128,-1,31
 166 300 166 300 166 329 c 1,32,-1
 154 329 l 2,33,34
 130 329 130 329 105.5 332.5 c 128,-1,35
 81 336 81 336 55 347 c 0,36,37
 39 353 39 353 32.5 365.5 c 128,-1,38
 26 378 26 378 26 391 c 0,39,40
 26 405 26 405 32 416 c 128,-1,41
 38 427 38 427 48 430 c 1,42,-1
 48 428 l 2,43,44
 48 424 48 424 51 422.5 c 128,-1,45
 54 421 54 421 63 418 c 0,46,47
 90 407 90 407 116 403 c 128,-1,48
 142 399 142 399 168 399 c 1,49,50
 169 415 169 415 169.5 431.5 c 128,-1,51
 170 448 170 448 170 465 c 0,52,53
 170 479 170 479 169.5 493 c 128,-1,54
 169 507 169 507 168 522 c 0,55,56
 170 527 170 527 184 529 c 128,-1,57
 198 531 198 531 208 531 c 2,58,-1
 222 531 l 2,59,60
 230 531 230 531 236.5 530 c 128,-1,61
 243 529 243 529 243 524 c 2,62,-1
 243 523 l 2,63,64
 244 514 244 514 244 505 c 128,-1,65
 244 496 244 496 244 487 c 0,66,67
 244 465 244 465 243 445 c 128,-1,68
 242 425 242 425 240 405 c 1,69,70
 267 409 267 409 294 412 c 128,-1,71
 321 415 321 415 350 416 c 2,72,-1
 351 416 l 2,0,1
EndSplineSet
Validated: 1
EndChar

StartChar: comma
Encoding: 44 44 12
Width: 144
GlyphClass: 1
Flags: W
LayerCount: 2
Fore
SplineSet
20 -88 m 2,0,1
 43 -88 43 -88 62 -73.5 c 128,-1,2
 81 -59 81 -59 81 -36 c 0,3,4
 81 -23 81 -23 70 -19 c 0,5,6
 65 -19 65 -19 62 -23 c 0,7,8
 54 -31 54 -31 43 -31 c 256,9,10
 32 -31 32 -31 21.5 -22.5 c 128,-1,11
 11 -14 11 -14 11 -3 c 0,12,13
 11 7 11 7 12.5 18 c 128,-1,14
 14 29 14 29 20 38 c 128,-1,15
 26 47 26 47 37.5 52.5 c 128,-1,16
 49 58 49 58 68 58 c 256,17,18
 87 58 87 58 100 47 c 128,-1,19
 113 36 113 36 120 22 c 128,-1,20
 127 8 127 8 130 -6.5 c 128,-1,21
 133 -21 133 -21 133 -28 c 0,22,23
 133 -62 133 -62 112 -88 c 128,-1,24
 91 -114 91 -114 56 -114 c 0,25,26
 42 -114 42 -114 31 -108 c 128,-1,27
 20 -102 20 -102 15 -88 c 1,28,-1
 20 -88 l 2,0,1
EndSplineSet
Validated: 1
EndChar

StartChar: hyphen
Encoding: 45 45 13
AltUni2: 0000ad.ffffffff.0 0000ad.ffffffff.0
Width: 336
GlyphClass: 1
Flags: W
LayerCount: 2
Fore
SplineSet
275 276 m 0,0,1
 277 277 277 277 282 277 c 0,2,3
 289 277 289 277 292 273 c 0,4,5
 295 265 295 265 295 247 c 0,6,7
 295 231 295 231 293 215.5 c 128,-1,8
 291 200 291 200 286 196 c 1,9,10
 276 199 276 199 266 200 c 128,-1,11
 256 201 256 201 246 201 c 2,12,-1
 129 189 l 2,13,14
 111 189 111 189 93 192.5 c 128,-1,15
 75 196 75 196 56 207 c 0,16,17
 45 213 45 213 40 225.5 c 128,-1,18
 35 238 35 238 35 251 c 0,19,20
 35 265 35 265 39 276 c 128,-1,21
 43 287 43 287 51 290 c 1,22,-1
 51 287 l 2,23,24
 51 283 51 283 53.5 282 c 128,-1,25
 56 281 56 281 62 278 c 0,26,27
 82 267 82 267 100.5 263.5 c 128,-1,28
 119 260 119 260 138 260 c 0,29,30
 172 260 172 260 205.5 267.5 c 128,-1,31
 239 275 239 275 275 276 c 0,0,1
EndSplineSet
Validated: 1
EndChar

StartChar: period
Encoding: 46 46 14
Width: 110
GlyphClass: 1
Flags: W
LayerCount: 2
Fore
SplineSet
56 65 m 0,0,1
 73 65 73 65 86 52 c 128,-1,2
 99 39 99 39 99 21 c 0,3,4
 99 4 99 4 86.5 -9 c 128,-1,5
 74 -22 74 -22 57 -22 c 0,6,7
 39 -22 39 -22 25 -10.5 c 128,-1,8
 11 1 11 1 11 18 c 0,9,10
 11 38 11 38 23.5 51.5 c 128,-1,11
 36 65 36 65 56 65 c 0,0,1
EndSplineSet
Validated: 1
EndChar

StartChar: slash
Encoding: 47 47 15
Width: 549
GlyphClass: 1
Flags: W
LayerCount: 2
Fore
SplineSet
463 640 m 2,0,1
 467 643 467 643 473 643 c 0,2,3
 480 643 480 643 491.5 636.5 c 128,-1,4
 503 630 503 630 514 621 c 128,-1,5
 525 612 525 612 532.5 601.5 c 128,-1,6
 540 591 540 591 540 584 c 0,7,8
 540 580 540 580 538 579 c 0,9,10
 483 513 483 513 436 451 c 128,-1,11
 389 389 389 389 338.5 318 c 128,-1,12
 288 247 288 247 229 162.5 c 128,-1,13
 170 78 170 78 92 -33 c 0,14,15
 86 -40 86 -40 77 -40 c 0,16,17
 69 -40 69 -40 57.5 -36 c 128,-1,18
 46 -32 46 -32 35.5 -25.5 c 128,-1,19
 25 -19 25 -19 18 -11.5 c 128,-1,20
 11 -4 11 -4 11 3 c 0,21,22
 11 11 11 11 16 15 c 0,23,24
 64 72 64 72 118.5 144 c 128,-1,25
 173 216 173 216 225.5 287.5 c 128,-1,26
 278 359 278 359 323 423.5 c 128,-1,27
 368 488 368 488 397 532 c 2,28,-1
 463 640 l 2,0,1
EndSplineSet
Validated: 1
EndChar

StartChar: zero
Encoding: 48 48 16
Width: 672
GlyphClass: 1
Flags: W
LayerCount: 2
Fore
SplineSet
84 335 m 0,0,1
 84 284 84 284 104.5 238.5 c 128,-1,2
 125 193 125 193 159.5 158.5 c 128,-1,3
 194 124 194 124 239.5 104 c 128,-1,4
 285 84 285 84 336 84 c 0,5,6
 388 84 388 84 432.5 105 c 128,-1,7
 477 126 477 126 509 161.5 c 128,-1,8
 541 197 541 197 559.5 243 c 128,-1,9
 578 289 578 289 578 340 c 0,10,11
 578 396 578 396 557 436.5 c 128,-1,12
 536 477 536 477 494 512 c 0,13,14
 487 517 487 517 475 525 c 128,-1,15
 463 533 463 533 451 540.5 c 128,-1,16
 439 548 439 548 430 553.5 c 128,-1,17
 421 559 421 559 419 559 c 2,18,-1
 410 559 l 1,19,-1
 410 550 l 1,20,21
 419 541 419 541 428.5 530.5 c 128,-1,22
 438 520 438 520 446.5 507 c 128,-1,23
 455 494 455 494 460.5 479.5 c 128,-1,24
 466 465 466 465 466 447 c 1,25,26
 450 465 450 465 430.5 481.5 c 128,-1,27
 411 498 411 498 388.5 511 c 128,-1,28
 366 524 366 524 342 532 c 128,-1,29
 318 540 318 540 294 540 c 0,30,31
 273 540 273 540 258 533 c 128,-1,32
 243 526 243 526 224 521 c 0,33,34
 221 521 221 521 221 523 c 256,35,36
 221 525 221 525 223.5 529 c 128,-1,37
 226 533 226 533 227 538 c 1,38,-1
 220 538 l 2,39,40
 189 538 189 538 164 515.5 c 128,-1,41
 139 493 139 493 121 461 c 128,-1,42
 103 429 103 429 93.5 394 c 128,-1,43
 84 359 84 359 84 335 c 0,0,1
19 307 m 0,44,45
 19 375 19 375 46.5 434.5 c 128,-1,46
 74 494 74 494 120.5 538 c 128,-1,47
 167 582 167 582 229 607.5 c 128,-1,48
 291 633 291 633 359 633 c 0,49,50
 420 633 420 633 473.5 607 c 128,-1,51
 527 581 527 581 566.5 538.5 c 128,-1,52
 606 496 606 496 629 440.5 c 128,-1,53
 652 385 652 385 652 326 c 0,54,55
 652 261 652 261 627.5 202 c 128,-1,56
 603 143 603 143 560.5 98 c 128,-1,57
 518 53 518 53 460 26.5 c 128,-1,58
 402 0 402 0 336 0 c 0,59,60
 275 0 275 0 218 24.5 c 128,-1,61
 161 49 161 49 116.5 91 c 128,-1,62
 72 133 72 133 45.5 188.5 c 128,-1,63
 19 244 19 244 19 307 c 0,44,45
EndSplineSet
Validated: 1
EndChar

StartChar: one
Encoding: 49 49 17
Width: 195
GlyphClass: 1
Flags: W
LayerCount: 2
Fore
SplineSet
58 456 m 0,0,1
 37 456 37 456 25 463 c 128,-1,2
 13 470 13 470 4 481 c 0,3,4
 3 482 3 482 3 485 c 256,5,6
 3 488 3 488 4 489 c 0,7,8
 36 504 36 504 61 539 c 128,-1,9
 86 574 86 574 90 621 c 1,10,11
 97 636 97 636 116 636 c 0,12,13
 128 636 128 636 145 630.5 c 128,-1,14
 162 625 162 625 165 616 c 0,15,16
 167 470 167 470 173 320 c 128,-1,17
 179 170 179 170 182 24 c 1,18,19
 174 12 174 12 169.5 8 c 128,-1,20
 165 4 165 4 154 4 c 0,21,22
 146 4 146 4 132 5.5 c 128,-1,23
 118 7 118 7 112 11 c 0,24,25
 107 18 107 18 106 27.5 c 128,-1,26
 105 37 105 37 105 47 c 0,27,28
 103 155 103 155 98.5 261 c 128,-1,29
 94 367 94 367 91 475 c 1,30,31
 86 467 86 467 78 461.5 c 128,-1,32
 70 456 70 456 58 456 c 0,0,1
EndSplineSet
Validated: 1
EndChar

StartChar: two
Encoding: 50 50 18
Width: 600
GlyphClass: 1
Flags: W
LayerCount: 2
Fore
SplineSet
18 39 m 0,0,1
 19 53 19 53 28 65 c 128,-1,2
 37 77 37 77 49.5 86 c 128,-1,3
 62 95 62 95 76 101.5 c 128,-1,4
 90 108 90 108 101 112 c 1,5,-1
 316 317 l 2,6,7
 328 328 328 328 346.5 348 c 128,-1,8
 365 368 365 368 382.5 391.5 c 128,-1,9
 400 415 400 415 412.5 440 c 128,-1,10
 425 465 425 465 425 487 c 0,11,12
 425 500 425 500 418 511 c 128,-1,13
 411 522 411 522 400.5 530 c 128,-1,14
 390 538 390 538 377 543 c 128,-1,15
 364 548 364 548 352 549 c 0,16,17
 347 550 347 550 343 550 c 2,18,-1
 334 550 l 2,19,20
 290 550 290 550 247.5 533.5 c 128,-1,21
 205 517 205 517 173 491 c 0,22,23
 167 485 167 485 164 474 c 2,24,-1
 159 453 l 2,25,26
 157 443 157 443 151.5 435.5 c 128,-1,27
 146 428 146 428 133 428 c 0,28,29
 116 430 116 430 110.5 445 c 128,-1,30
 105 460 105 460 105 477 c 0,31,32
 105 485 105 485 105.5 491 c 128,-1,33
 106 497 106 497 107 502 c 0,34,35
 111 538 111 538 130 562 c 128,-1,36
 149 586 149 586 176.5 601 c 128,-1,37
 204 616 204 616 237.5 622.5 c 128,-1,38
 271 629 271 629 304 629 c 0,39,40
 313 629 313 629 321.5 628.5 c 128,-1,41
 330 628 330 628 338 627 c 0,42,43
 366 624 366 624 391 613 c 128,-1,44
 416 602 416 602 434.5 582.5 c 128,-1,45
 453 563 453 563 463.5 536 c 128,-1,46
 474 509 474 509 474 474 c 0,47,48
 474 445 474 445 460 414 c 128,-1,49
 446 383 446 383 423.5 352 c 128,-1,50
 401 321 401 321 373 290.5 c 128,-1,51
 345 260 345 260 316 232 c 128,-1,52
 287 204 287 204 260 179 c 128,-1,53
 233 154 233 154 213 134 c 1,54,55
 218 133 218 133 228.5 132 c 128,-1,56
 239 131 239 131 251 129.5 c 128,-1,57
 263 128 263 128 273.5 127 c 128,-1,58
 284 126 284 126 288 126 c 0,59,60
 310 124 310 124 325.5 119.5 c 128,-1,61
 341 115 341 115 356.5 110 c 128,-1,62
 372 105 372 105 390 101.5 c 128,-1,63
 408 98 408 98 435 98 c 2,64,-1
 456 99 l 2,65,66
 477 100 477 100 491 104 c 128,-1,67
 505 108 505 108 517.5 114.5 c 128,-1,68
 530 121 530 121 543 129 c 128,-1,69
 556 137 556 137 574 147 c 1,70,71
 582 145 582 145 583.5 138.5 c 128,-1,72
 585 132 585 132 585 121 c 1,73,74
 570 103 570 103 550 86.5 c 128,-1,75
 530 70 530 70 507.5 57 c 128,-1,76
 485 44 485 44 461.5 36.5 c 128,-1,77
 438 29 438 29 416 28 c 2,78,-1
 145 40 l 2,79,80
 133 40 133 40 120 35 c 128,-1,81
 107 30 107 30 94.5 24 c 128,-1,82
 82 18 82 18 69 13 c 128,-1,83
 56 8 56 8 44 8 c 0,84,85
 33 9 33 9 25.5 18 c 128,-1,86
 18 27 18 27 18 39 c 0,0,1
EndSplineSet
Validated: 1
EndChar

StartChar: three
Encoding: 51 51 19
Width: 480
GlyphClass: 1
Flags: W
LayerCount: 2
Fore
SplineSet
83 535 m 0,0,1
 83 520 83 520 93 509 c 128,-1,2
 103 498 103 498 110 493 c 1,3,4
 104 492 104 492 99 490.5 c 128,-1,5
 94 489 94 489 87 489 c 0,6,7
 64 489 64 489 54 503.5 c 128,-1,8
 44 518 44 518 44 539 c 0,9,10
 44 565 44 565 55.5 589.5 c 128,-1,11
 67 614 67 614 89 621 c 0,12,13
 116 630 116 630 140 635 c 128,-1,14
 164 640 164 640 194 640 c 0,15,16
 241 640 241 640 285 632 c 128,-1,17
 329 624 329 624 364 604.5 c 128,-1,18
 399 585 399 585 421 552 c 128,-1,19
 443 519 443 519 445 468 c 0,20,21
 444 452 444 452 438.5 431 c 128,-1,22
 433 410 433 410 423 389.5 c 128,-1,23
 413 369 413 369 398.5 353 c 128,-1,24
 384 337 384 337 366 331 c 1,25,26
 391 317 391 317 409 305 c 128,-1,27
 427 293 427 293 438 276.5 c 128,-1,28
 449 260 449 260 454 236.5 c 128,-1,29
 459 213 459 213 459 177 c 0,30,31
 459 122 459 122 437 87.5 c 128,-1,32
 415 53 415 53 381 33.5 c 128,-1,33
 347 14 347 14 305.5 7 c 128,-1,34
 264 0 264 0 224 0 c 0,35,36
 173 0 173 0 135 15 c 128,-1,37
 97 30 97 30 71.5 51.5 c 128,-1,38
 46 73 46 73 33 97 c 128,-1,39
 20 121 20 121 20 140 c 0,40,41
 20 162 20 162 21.5 172 c 128,-1,42
 23 182 23 182 29 182 c 0,43,44
 34 182 34 182 42.5 178 c 128,-1,45
 51 174 51 174 59 160 c 0,46,47
 87 117 87 117 129.5 92.5 c 128,-1,48
 172 68 172 68 230 68 c 0,49,50
 249 68 249 68 274.5 74 c 128,-1,51
 300 80 300 80 323 93.5 c 128,-1,52
 346 107 346 107 361.5 128.5 c 128,-1,53
 377 150 377 150 377 182 c 0,54,55
 377 201 377 201 374.5 214.5 c 128,-1,56
 372 228 372 228 364 238.5 c 128,-1,57
 356 249 356 249 341.5 258.5 c 128,-1,58
 327 268 327 268 302 279 c 1,59,60
 274 268 274 268 245 264.5 c 128,-1,61
 216 261 216 261 186 261 c 0,62,63
 162 261 162 261 141.5 265 c 128,-1,64
 121 269 121 269 106 276.5 c 128,-1,65
 91 284 91 284 82 293 c 128,-1,66
 73 302 73 302 73 313 c 0,67,68
 73 333 73 333 91 345 c 128,-1,69
 109 357 109 357 131.5 363 c 128,-1,70
 154 369 154 369 174 370.5 c 128,-1,71
 194 372 194 372 199 372 c 0,72,73
 223 372 223 372 247.5 369 c 128,-1,74
 272 366 272 366 296 359 c 1,75,76
 313 362 313 362 326 374.5 c 128,-1,77
 339 387 339 387 347.5 404 c 128,-1,78
 356 421 356 421 360.5 438.5 c 128,-1,79
 365 456 365 456 365 469 c 0,80,81
 365 500 365 500 349 520 c 128,-1,82
 333 540 333 540 308.5 551 c 128,-1,83
 284 562 284 562 253 566.5 c 128,-1,84
 222 571 222 571 192 571 c 0,85,86
 173 571 173 571 151.5 567.5 c 128,-1,87
 130 564 130 564 113 558 c 0,88,89
 91 548 91 548 87 543.5 c 128,-1,90
 83 539 83 539 83 535 c 0,0,1
238 316 m 1,91,92
 225 318 225 318 208 322 c 128,-1,93
 191 326 191 326 171 326 c 0,94,95
 148 326 148 326 135 319 c 1,96,97
 164 311 164 311 185 311 c 2,98,-1
 238 316 l 1,91,92
EndSplineSet
Validated: 1
EndChar

StartChar: four
Encoding: 52 52 20
Width: 407
GlyphClass: 1
Flags: W
LayerCount: 2
Fore
SplineSet
299 273 m 1,0,1
 308 283 308 283 313 300.5 c 128,-1,2
 318 318 318 318 320.5 337.5 c 128,-1,3
 323 357 323 357 324 377.5 c 128,-1,4
 325 398 325 398 325 414 c 0,5,6
 325 435 325 435 324 458 c 128,-1,7
 323 481 323 481 320 502.5 c 128,-1,8
 317 524 317 524 312 541 c 128,-1,9
 307 558 307 558 299 566 c 1,10,11
 296 554 296 554 295 526 c 128,-1,12
 294 498 294 498 294 463 c 0,13,14
 294 436 294 436 294.5 407.5 c 128,-1,15
 295 379 295 379 295.5 353 c 128,-1,16
 296 327 296 327 297 306 c 128,-1,17
 298 285 298 285 299 273 c 1,0,1
303 -37 m 2,18,19
 283 -37 283 -37 260.5 -30 c 128,-1,20
 238 -23 238 -23 233 -10 c 0,21,22
 231 -3 231 -3 229 13.5 c 128,-1,23
 227 30 227 30 225.5 51.5 c 128,-1,24
 224 73 224 73 223 98 c 128,-1,25
 222 123 222 123 222 149 c 0,26,27
 222 162 222 162 222 175 c 128,-1,28
 222 188 222 188 223 200 c 1,29,-1
 210 200 l 2,30,31
 151 200 151 200 107 216 c 128,-1,32
 63 232 63 232 23 278 c 1,33,34
 14 309 14 309 14 345 c 0,35,36
 14 378 14 378 21 413.5 c 128,-1,37
 28 449 28 449 40.5 484.5 c 128,-1,38
 53 520 53 520 69.5 553 c 128,-1,39
 86 586 86 586 105 615 c 0,40,41
 110 623 110 623 112.5 626 c 128,-1,42
 115 629 115 629 123 629 c 0,43,44
 138 629 138 629 138 610 c 0,45,46
 138 596 138 596 131.5 578 c 128,-1,47
 125 560 125 560 120 549 c 0,48,49
 105 509 105 509 94.5 463 c 128,-1,50
 84 417 84 417 84 372 c 0,51,52
 84 352 84 352 86.5 334 c 128,-1,53
 89 316 89 316 94 299 c 1,54,55
 123 277 123 277 148.5 266 c 128,-1,56
 174 255 174 255 200 255 c 0,57,58
 205 255 205 255 210 255.5 c 128,-1,59
 215 256 215 256 220 257 c 1,60,-1
 221 294 l 2,61,62
 221 310 221 310 221 342 c 128,-1,63
 221 374 221 374 222 413 c 128,-1,64
 223 452 223 452 226.5 492.5 c 128,-1,65
 230 533 230 533 237.5 566 c 128,-1,66
 245 599 245 599 258 620.5 c 128,-1,67
 271 642 271 642 291 642 c 0,68,69
 320 642 320 642 338.5 621 c 128,-1,70
 357 600 357 600 367.5 566.5 c 128,-1,71
 378 533 378 533 382 491 c 128,-1,72
 386 449 386 449 386 408 c 256,73,74
 386 367 386 367 383.5 335.5 c 128,-1,75
 381 304 381 304 372.5 280.5 c 128,-1,76
 364 257 364 257 347.5 240.5 c 128,-1,77
 331 224 331 224 302 212 c 1,78,79
 304 157 304 157 308.5 106.5 c 128,-1,80
 313 56 313 56 329 3 c 0,81,82
 330 1 330 1 330 -4 c 0,83,84
 330 -12 330 -12 325 -22 c 128,-1,85
 320 -32 320 -32 309 -37 c 1,86,-1
 303 -37 l 2,18,19
EndSplineSet
Validated: 1
EndChar

StartChar: five
Encoding: 53 53 21
Width: 530
GlyphClass: 1
Flags: W
LayerCount: 2
Fore
SplineSet
454 638 m 2,0,1
 464 638 464 638 468 635 c 0,2,3
 481 626 481 626 488 608.5 c 128,-1,4
 495 591 495 591 497 574 c 1,5,6
 491 568 491 568 482 567 c 0,7,8
 468 565 468 565 435 564 c 128,-1,9
 402 563 402 563 366.5 562 c 128,-1,10
 331 561 331 561 301 560.5 c 128,-1,11
 271 560 271 560 262 559 c 2,12,-1
 148 558 l 1,13,14
 136 544 136 544 131.5 510.5 c 128,-1,15
 127 477 127 477 127 445 c 0,16,17
 127 431 127 431 127.5 419.5 c 128,-1,18
 128 408 128 408 129 400 c 1,19,20
 139 407 139 407 172.5 410.5 c 128,-1,21
 206 414 206 414 255 414 c 0,22,23
 299 414 299 414 344.5 406 c 128,-1,24
 390 398 390 398 427 375.5 c 128,-1,25
 464 353 464 353 487.5 312.5 c 128,-1,26
 511 272 511 272 511 207 c 0,27,28
 511 150 511 150 485 111 c 128,-1,29
 459 72 459 72 422.5 48 c 128,-1,30
 386 24 386 24 346 13 c 128,-1,31
 306 2 306 2 278 2 c 0,32,33
 247 2 247 2 202.5 12 c 128,-1,34
 158 22 158 22 117.5 42 c 128,-1,35
 77 62 77 62 48.5 92 c 128,-1,36
 20 122 20 122 20 163 c 0,37,38
 20 203 20 203 43 223.5 c 128,-1,39
 66 244 66 244 100 244 c 256,40,41
 134 244 134 244 172 223.5 c 128,-1,42
 210 203 210 203 241 160 c 1,43,44
 241 147 241 147 226 139 c 128,-1,45
 211 131 211 131 197 131 c 0,46,47
 184 131 184 131 179 136 c 0,48,49
 167 149 167 149 153.5 161.5 c 128,-1,50
 140 174 140 174 126.5 184 c 128,-1,51
 113 194 113 194 99.5 200 c 128,-1,52
 86 206 86 206 76 206 c 0,53,54
 64 206 64 206 56.5 197 c 128,-1,55
 49 188 49 188 49 165 c 0,56,57
 49 138 49 138 74.5 119.5 c 128,-1,58
 100 101 100 101 134 89 c 128,-1,59
 168 77 168 77 200 71.5 c 128,-1,60
 232 66 232 66 246 66 c 0,61,62
 307 66 307 66 344.5 84 c 128,-1,63
 382 102 382 102 402.5 127.5 c 128,-1,64
 423 153 423 153 429.5 180.5 c 128,-1,65
 436 208 436 208 436 228 c 0,66,67
 436 267 436 267 417.5 290.5 c 128,-1,68
 399 314 399 314 368.5 327 c 128,-1,69
 338 340 338 340 299 344.5 c 128,-1,70
 260 349 260 349 218 349 c 0,71,72
 199 349 199 349 180.5 348.5 c 128,-1,73
 162 348 162 348 144 347 c 0,74,75
 132 346 132 346 119 337 c 128,-1,76
 106 328 106 328 95 327 c 2,77,-1
 81 326 l 2,78,79
 76 326 76 326 71 327 c 128,-1,80
 66 328 66 328 60 333 c 1,81,82
 57 361 57 361 54.5 386 c 128,-1,83
 52 411 52 411 52 435 c 0,84,85
 52 464 52 464 57 495 c 128,-1,86
 62 526 62 526 73 562 c 1,87,88
 53 567 53 567 40.5 582 c 128,-1,89
 28 597 28 597 23 614 c 1,90,-1
 30 620 l 1,91,-1
 62 626 l 2,92,93
 64 626 64 626 86.5 626.5 c 128,-1,94
 109 627 109 627 144 627.5 c 128,-1,95
 179 628 179 628 222 629 c 128,-1,96
 265 630 265 630 307 631.5 c 128,-1,97
 349 633 349 633 386 634.5 c 128,-1,98
 423 636 423 636 447 638 c 2,99,-1
 454 638 l 2,0,1
EndSplineSet
Validated: 1
EndChar

StartChar: six
Encoding: 54 54 22
Width: 493
GlyphClass: 1
Flags: W
LayerCount: 2
Fore
SplineSet
317 122 m 1,0,1
 356 172 356 172 381 219 c 128,-1,2
 406 266 406 266 406 318 c 0,3,4
 406 323 406 323 405 337 c 128,-1,5
 404 351 404 351 401 366 c 128,-1,6
 398 381 398 381 392.5 392.5 c 128,-1,7
 387 404 387 404 378 404 c 0,8,9
 360 404 360 404 352 389 c 128,-1,10
 344 374 344 374 339 360 c 0,11,12
 330 334 330 334 324 313.5 c 128,-1,13
 318 293 318 293 314.5 272.5 c 128,-1,14
 311 252 311 252 309.5 229.5 c 128,-1,15
 308 207 308 207 308 177 c 0,16,17
 308 173 308 173 308.5 165 c 128,-1,18
 309 157 309 157 310 148 c 128,-1,19
 311 139 311 139 313 131.5 c 128,-1,20
 315 124 315 124 317 122 c 1,0,1
338 18 m 1,21,-1
 339 11 l 2,22,23
 339 -10 339 -10 324 -28 c 128,-1,24
 309 -46 309 -46 292 -46 c 0,25,26
 283 -46 283 -46 274.5 -39.5 c 128,-1,27
 266 -33 266 -33 260 -17 c 2,28,-1
 254 3 l 1,29,30
 216 -12 216 -12 178 -12 c 0,31,32
 134 -12 134 -12 103.5 4 c 128,-1,33
 73 20 73 20 54 47 c 128,-1,34
 35 74 35 74 26 109.5 c 128,-1,35
 17 145 17 145 17 184 c 0,36,37
 17 248 17 248 32.5 311.5 c 128,-1,38
 48 375 48 375 77 433 c 128,-1,39
 106 491 106 491 148.5 541.5 c 128,-1,40
 191 592 191 592 245 629 c 0,41,42
 256 637 256 637 268.5 641.5 c 128,-1,43
 281 646 281 646 291 646 c 0,44,45
 305 646 305 646 305 635 c 0,46,47
 305 627 305 627 301 620 c 128,-1,48
 297 613 297 613 294 610 c 0,49,50
 268 585 268 585 246 559.5 c 128,-1,51
 224 534 224 534 205 506 c 0,52,53
 156 435 156 435 126.5 347.5 c 128,-1,54
 97 260 97 260 97 169 c 0,55,56
 97 149 97 149 102 125.5 c 128,-1,57
 107 102 107 102 117.5 81.5 c 128,-1,58
 128 61 128 61 144 47 c 128,-1,59
 160 33 160 33 183 33 c 0,60,61
 209 33 209 33 235 53 c 1,62,63
 233 61 233 61 229.5 80 c 128,-1,64
 226 99 226 99 223 131 c 0,65,66
 221 150 221 150 220.5 159 c 128,-1,67
 220 168 220 168 219.5 174 c 128,-1,68
 219 180 219 180 219 185 c 128,-1,69
 219 190 219 190 218 202 c 0,70,71
 220 239 220 239 231 282 c 128,-1,72
 242 325 242 325 263 362 c 128,-1,73
 284 399 284 399 316 423.5 c 128,-1,74
 348 448 348 448 393 448 c 0,75,76
 419 448 419 448 435.5 436.5 c 128,-1,77
 452 425 452 425 462 407 c 128,-1,78
 472 389 472 389 475.5 366.5 c 128,-1,79
 479 344 479 344 479 322 c 0,80,81
 479 253 479 253 441.5 182.5 c 128,-1,82
 404 112 404 112 329 48 c 1,83,-1
 338 18 l 1,21,-1
EndSplineSet
Validated: 1
EndChar

StartChar: seven
Encoding: 55 55 23
Width: 504
GlyphClass: 1
Flags: W
LayerCount: 2
Fore
SplineSet
64 556 m 0,0,1
 61 556 61 556 57 551 c 128,-1,2
 53 546 53 546 49 540 c 128,-1,3
 45 534 45 534 41 528.5 c 128,-1,4
 37 523 37 523 35 523 c 0,5,6
 31 523 31 523 27.5 534 c 128,-1,7
 24 545 24 545 21.5 559 c 128,-1,8
 19 573 19 573 17.5 585.5 c 128,-1,9
 16 598 16 598 16 600 c 0,10,11
 16 606 16 606 20.5 613 c 128,-1,12
 25 620 25 620 32.5 625 c 128,-1,13
 40 630 40 630 49 633.5 c 128,-1,14
 58 637 58 637 67 637 c 2,15,-1
 74 637 l 2,16,17
 108 634 108 634 141.5 626.5 c 128,-1,18
 175 619 175 619 208 611 c 128,-1,19
 241 603 241 603 274.5 596 c 128,-1,20
 308 589 308 589 342 587 c 0,21,22
 359 586 359 586 368 585.5 c 128,-1,23
 377 585 377 585 382 585 c 0,24,25
 385 585 385 585 386 585.5 c 128,-1,26
 387 586 387 586 389 586 c 0,27,28
 395 595 395 595 399.5 603 c 128,-1,29
 404 611 404 611 411 617 c 128,-1,30
 418 623 418 623 428.5 627 c 128,-1,31
 439 631 439 631 456 631 c 0,32,33
 470 631 470 631 480 620.5 c 128,-1,34
 490 610 490 610 490 596 c 0,35,36
 490 583 490 583 488 571 c 128,-1,37
 486 559 486 559 476 551 c 0,38,39
 465 543 465 543 453.5 539 c 128,-1,40
 442 535 442 535 434 533 c 1,41,42
 363 430 363 430 323.5 310.5 c 128,-1,43
 284 191 284 191 273 69 c 0,44,45
 272 59 272 59 267.5 47.5 c 128,-1,46
 263 36 263 36 256 26 c 128,-1,47
 249 16 249 16 240.5 9.5 c 128,-1,48
 232 3 232 3 223 3 c 0,49,50
 206 3 206 3 193.5 11.5 c 128,-1,51
 181 20 181 20 181 40 c 0,52,53
 181 98 181 98 196 160.5 c 128,-1,54
 211 223 211 223 235.5 285.5 c 128,-1,55
 260 348 260 348 291.5 408.5 c 128,-1,56
 323 469 323 469 356 524 c 1,57,58
 315 524 315 524 266 527.5 c 128,-1,59
 217 531 217 531 176 539 c 0,60,61
 147 544 147 544 119 548.5 c 128,-1,62
 91 553 91 553 64 556 c 0,0,1
EndSplineSet
Validated: 1
EndChar

StartChar: eight
Encoding: 56 56 24
Width: 499
GlyphClass: 1
Flags: W
LayerCount: 2
Fore
SplineSet
179 582 m 1,0,1
 157 576 157 576 144 562 c 128,-1,2
 131 548 131 548 124.5 532 c 128,-1,3
 118 516 118 516 116 500.5 c 128,-1,4
 114 485 114 485 114 477 c 0,5,6
 114 464 114 464 125.5 449.5 c 128,-1,7
 137 435 137 435 156 420 c 128,-1,8
 175 405 175 405 199.5 390 c 128,-1,9
 224 375 224 375 251 362 c 1,10,11
 282 377 282 377 310 392 c 128,-1,12
 338 407 338 407 359 422.5 c 128,-1,13
 380 438 380 438 392.5 454.5 c 128,-1,14
 405 471 405 471 405 489 c 0,15,16
 405 505 405 505 395.5 523 c 128,-1,17
 386 541 386 541 369.5 556 c 128,-1,18
 353 571 353 571 330.5 581 c 128,-1,19
 308 591 308 591 282 591 c 2,20,-1
 275 591 l 1,21,22
 293 571 293 571 306 557 c 128,-1,23
 319 543 319 543 319 529 c 2,24,-1
 319 526 l 1,25,26
 309 534 309 534 297 543.5 c 128,-1,27
 285 553 285 553 271.5 561 c 128,-1,28
 258 569 258 569 243 574 c 128,-1,29
 228 579 228 579 213 579 c 0,30,31
 207 579 207 579 202.5 576.5 c 128,-1,32
 198 574 198 574 194 570.5 c 128,-1,33
 190 567 190 567 186 564.5 c 128,-1,34
 182 562 182 562 177 562 c 0,35,36
 175 562 175 562 175 565 c 0,37,38
 175 569 175 569 176.5 574.5 c 128,-1,39
 178 580 178 580 179 582 c 1,0,1
245 318 m 1,40,41
 215 304 215 304 187.5 289.5 c 128,-1,42
 160 275 160 275 139 258.5 c 128,-1,43
 118 242 118 242 106 222 c 128,-1,44
 94 202 94 202 94 178 c 0,45,46
 94 161 94 161 104.5 143 c 128,-1,47
 115 125 115 125 136 111 c 128,-1,48
 157 97 157 97 189.5 88 c 128,-1,49
 222 79 222 79 267 79 c 0,50,51
 283 79 283 79 305.5 84 c 128,-1,52
 328 89 328 89 349 100 c 128,-1,53
 370 111 370 111 384.5 127.5 c 128,-1,54
 399 144 399 144 399 168 c 0,55,56
 399 198 399 198 383 221.5 c 128,-1,57
 367 245 367 245 344 263 c 128,-1,58
 321 281 321 281 294 294 c 128,-1,59
 267 307 267 307 245 318 c 1,40,41
22 179 m 0,60,61
 22 206 22 206 36.5 228 c 128,-1,62
 51 250 51 250 76 269.5 c 128,-1,63
 101 289 101 289 133 306 c 128,-1,64
 165 323 165 323 200 338 c 1,65,66
 132 364 132 364 89 399.5 c 128,-1,67
 46 435 46 435 46 480 c 0,68,69
 46 516 46 516 62.5 546 c 128,-1,70
 79 576 79 576 107.5 597.5 c 128,-1,71
 136 619 136 619 173 630.5 c 128,-1,72
 210 642 210 642 251 642 c 0,73,74
 296 642 296 642 336.5 630.5 c 128,-1,75
 377 619 377 619 408 598 c 128,-1,76
 439 577 439 577 457.5 549 c 128,-1,77
 476 521 476 521 476 488 c 0,78,79
 476 461 476 461 461.5 439 c 128,-1,80
 447 417 447 417 423 399.5 c 128,-1,81
 399 382 399 382 366.5 367.5 c 128,-1,82
 334 353 334 353 298 341 c 1,83,84
 330 331 330 331 362.5 318.5 c 128,-1,85
 395 306 395 306 420.5 287.5 c 128,-1,86
 446 269 446 269 462 241.5 c 128,-1,87
 478 214 478 214 478 173 c 0,88,89
 478 135 478 135 462 104.5 c 128,-1,90
 446 74 446 74 417 52.5 c 128,-1,91
 388 31 388 31 347.5 19.5 c 128,-1,92
 307 8 307 8 259 8 c 0,93,94
 206 8 206 8 162 20.5 c 128,-1,95
 118 33 118 33 87 55.5 c 128,-1,96
 56 78 56 78 39 109.5 c 128,-1,97
 22 141 22 141 22 179 c 0,60,61
EndSplineSet
Validated: 1
EndChar

StartChar: nine
Encoding: 57 57 25
Width: 434
GlyphClass: 1
Flags: W
LayerCount: 2
Fore
SplineSet
142 -6 m 0,0,1
 140 -5 140 -5 140 0 c 256,2,3
 140 5 140 5 142.5 13 c 128,-1,4
 145 21 145 21 149 30 c 128,-1,5
 153 39 153 39 158 47 c 128,-1,6
 163 55 163 55 168 61 c 0,7,8
 206 101 206 101 237 149 c 128,-1,9
 268 197 268 197 290 249.5 c 128,-1,10
 312 302 312 302 324 358 c 128,-1,11
 336 414 336 414 336 471 c 0,12,13
 336 501 336 501 326.5 524.5 c 128,-1,14
 317 548 317 548 302 564 c 128,-1,15
 287 580 287 580 267.5 588.5 c 128,-1,16
 248 597 248 597 228 597 c 0,17,18
 150 597 150 597 115 554 c 128,-1,19
 80 511 80 511 80 422 c 0,20,21
 80 403 80 403 87 382.5 c 128,-1,22
 94 362 94 362 105 345.5 c 128,-1,23
 116 329 116 329 130 318.5 c 128,-1,24
 144 308 144 308 158 308 c 0,25,26
 195 308 195 308 216.5 313.5 c 128,-1,27
 238 319 238 319 251.5 330 c 128,-1,28
 265 341 265 341 272.5 358.5 c 128,-1,29
 280 376 280 376 288 400 c 2,30,-1
 290 407 l 2,31,32
 291 410 291 410 296.5 418 c 128,-1,33
 302 426 302 426 325 431 c 1,34,35
 322 394 322 394 311 362 c 128,-1,36
 300 330 300 330 279 306 c 128,-1,37
 258 282 258 282 226.5 268 c 128,-1,38
 195 254 195 254 152 254 c 0,39,40
 123 254 123 254 98.5 269.5 c 128,-1,41
 74 285 74 285 55.5 309.5 c 128,-1,42
 37 334 37 334 26.5 365 c 128,-1,43
 16 396 16 396 16 426 c 0,44,45
 16 478 16 478 36 519.5 c 128,-1,46
 56 561 56 561 87.5 590.5 c 128,-1,47
 119 620 119 620 158 636 c 128,-1,48
 197 652 197 652 235 652 c 0,49,50
 278 652 278 652 312 636 c 128,-1,51
 346 620 346 620 369 593 c 128,-1,52
 392 566 392 566 404 530.5 c 128,-1,53
 416 495 416 495 416 456 c 0,54,55
 416 393 416 393 400.5 329.5 c 128,-1,56
 385 266 385 266 355.5 208 c 128,-1,57
 326 150 326 150 284 99.5 c 128,-1,58
 242 49 242 49 188 11 c 0,59,60
 177 3 177 3 164.5 -1.5 c 128,-1,61
 152 -6 152 -6 142 -6 c 0,0,1
EndSplineSet
Validated: 1
EndChar

StartChar: colon
Encoding: 58 58 26
Width: 135
GlyphClass: 1
Flags: W
LayerCount: 2
Fore
SplineSet
108 208 m 0,0,1
 94 191 94 191 69 191 c 0,2,3
 46 191 46 191 28.5 205 c 128,-1,4
 11 219 11 219 11 242 c 0,5,6
 11 267 11 267 27 284 c 128,-1,7
 43 301 43 301 68 301 c 0,8,9
 91 301 91 301 107 285.5 c 128,-1,10
 123 270 123 270 123 245 c 0,11,12
 123 223 123 223 108 208 c 0,0,1
108 41 m 0,13,14
 92 22 92 22 69 22 c 256,15,16
 46 22 46 22 28.5 36.5 c 128,-1,17
 11 51 11 51 11 74 c 0,18,19
 11 99 11 99 27 116 c 128,-1,20
 43 133 43 133 68 133 c 0,21,22
 90 133 90 133 106 117 c 0,23,24
 123 100 123 100 123 78 c 256,25,26
 123 56 123 56 108 41 c 0,13,14
EndSplineSet
Validated: 1
EndChar

StartChar: semicolon
Encoding: 59 59 27
Width: 155
GlyphClass: 1
Flags: W
LayerCount: 2
Fore
SplineSet
82 319 m 0,0,1
 104 319 104 319 120 303 c 128,-1,2
 136 287 136 287 136 264 c 0,3,4
 136 243 136 243 120 226 c 128,-1,5
 104 209 104 209 83 209 c 0,6,7
 60 209 60 209 42.5 223.5 c 128,-1,8
 25 238 25 238 25 260 c 0,9,10
 25 286 25 286 40.5 302.5 c 128,-1,11
 56 319 56 319 82 319 c 0,0,1
31 -88 m 2,12,13
 54 -88 54 -88 73 -73.5 c 128,-1,14
 92 -59 92 -59 92 -36 c 0,15,16
 92 -23 92 -23 81 -19 c 0,17,18
 76 -19 76 -19 73 -23 c 0,19,20
 65 -31 65 -31 54 -31 c 256,21,22
 43 -31 43 -31 32.5 -22.5 c 128,-1,23
 22 -14 22 -14 22 -3 c 0,24,25
 22 7 22 7 23.5 18 c 128,-1,26
 25 29 25 29 31 38 c 128,-1,27
 37 47 37 47 48.5 52.5 c 128,-1,28
 60 58 60 58 79 58 c 256,29,30
 98 58 98 58 111 47 c 128,-1,31
 124 36 124 36 131 22 c 128,-1,32
 138 8 138 8 141 -6.5 c 128,-1,33
 144 -21 144 -21 144 -28 c 0,34,35
 144 -62 144 -62 123 -88 c 128,-1,36
 102 -114 102 -114 67 -114 c 0,37,38
 53 -114 53 -114 42 -108 c 128,-1,39
 31 -102 31 -102 26 -88 c 1,40,-1
 31 -88 l 2,12,13
EndSplineSet
Validated: 1
EndChar

StartChar: question
Encoding: 63 63 28
Width: 355
GlyphClass: 1
Flags: W
LayerCount: 2
Fore
SplineSet
190 67 m 0,0,1
 207 67 207 67 220 54 c 128,-1,2
 233 41 233 41 233 23 c 0,3,4
 233 6 233 6 220.5 -7 c 128,-1,5
 208 -20 208 -20 191 -20 c 0,6,7
 173 -20 173 -20 159 -8.5 c 128,-1,8
 145 3 145 3 145 20 c 0,9,10
 145 40 145 40 157.5 53.5 c 128,-1,11
 170 67 170 67 190 67 c 0,0,1
118 489 m 1,12,13
 98 479 98 479 80 479 c 0,14,15
 65 479 65 479 54 485.5 c 128,-1,16
 43 492 43 492 35.5 501.5 c 128,-1,17
 28 511 28 511 24.5 522 c 128,-1,18
 21 533 21 533 21 543 c 0,19,20
 21 567 21 567 31.5 589.5 c 128,-1,21
 42 612 42 612 62 629.5 c 128,-1,22
 82 647 82 647 110.5 657.5 c 128,-1,23
 139 668 139 668 174 668 c 0,24,25
 203 668 203 668 233 662.5 c 128,-1,26
 263 657 263 657 288 639.5 c 128,-1,27
 313 622 313 622 328.5 589.5 c 128,-1,28
 344 557 344 557 344 503 c 0,29,30
 344 468 344 468 318 435 c 128,-1,31
 292 402 292 402 260.5 369 c 128,-1,32
 229 336 229 336 203 301.5 c 128,-1,33
 177 267 177 267 177 230 c 0,34,35
 177 219 177 219 181.5 206.5 c 128,-1,36
 186 194 186 194 194 183.5 c 128,-1,37
 202 173 202 173 214 165.5 c 128,-1,38
 226 158 226 158 240 158 c 2,39,-1
 247 158 l 1,40,-1
 250 138 l 1,41,-1
 241 126 l 1,42,-1
 235 124 l 2,43,44
 220 120 220 120 212 120 c 0,45,46
 189 120 189 120 169 130 c 128,-1,47
 149 140 149 140 135 156 c 128,-1,48
 121 172 121 172 113 191.5 c 128,-1,49
 105 211 105 211 105 230 c 0,50,51
 105 267 105 267 117 296.5 c 128,-1,52
 129 326 129 326 147.5 350 c 128,-1,53
 166 374 166 374 187.5 394 c 128,-1,54
 209 414 209 414 227.5 433 c 128,-1,55
 246 452 246 452 258 470.5 c 128,-1,56
 270 489 270 489 270 510 c 0,57,58
 270 597 270 597 171 597 c 0,59,60
 140 597 140 597 121 590.5 c 128,-1,61
 102 584 102 584 91.5 574.5 c 128,-1,62
 81 565 81 565 77.5 553 c 128,-1,63
 74 541 74 541 74 529 c 0,64,65
 74 521 74 521 84 511 c 128,-1,66
 94 501 94 501 118 489 c 1,12,13
EndSplineSet
Validated: 1
EndChar

StartChar: at
Encoding: 64 64 29
Width: 661
GlyphClass: 1
Flags: W
LayerCount: 2
Fore
SplineSet
385 454 m 1,0,1
 392 458 392 458 399 458 c 0,2,3
 420 458 420 458 434.5 446.5 c 128,-1,4
 449 435 449 435 459 414.5 c 128,-1,5
 469 394 469 394 473.5 367 c 128,-1,6
 478 340 478 340 478 309 c 0,7,8
 478 286 478 286 474 263.5 c 128,-1,9
 470 241 470 241 461 221 c 1,10,11
 472 211 472 211 488 211 c 0,12,13
 523 211 523 211 534 236.5 c 128,-1,14
 545 262 545 262 545 307 c 0,15,16
 545 373 545 373 529.5 421 c 128,-1,17
 514 469 514 469 487.5 500 c 128,-1,18
 461 531 461 531 425.5 546 c 128,-1,19
 390 561 390 561 350 561 c 0,20,21
 301 561 301 561 261.5 538 c 128,-1,22
 222 515 222 515 194 475.5 c 128,-1,23
 166 436 166 436 151 382.5 c 128,-1,24
 136 329 136 329 136 268 c 0,25,26
 136 161 136 161 187 100 c 128,-1,27
 238 39 238 39 344 39 c 0,28,29
 362 39 362 39 387.5 42.5 c 128,-1,30
 413 46 413 46 439.5 54 c 128,-1,31
 466 62 466 62 489.5 75 c 128,-1,32
 513 88 513 88 528 107 c 1,33,34
 541 115 541 115 550 117.5 c 128,-1,35
 559 120 559 120 567 120 c 0,36,37
 581 120 581 120 588.5 113.5 c 128,-1,38
 596 107 596 107 596 98 c 0,39,40
 596 97 596 97 595 93.5 c 128,-1,41
 594 90 594 90 593 88 c 0,42,43
 573 47 573 47 540.5 22.5 c 128,-1,44
 508 -2 508 -2 472 -15.5 c 128,-1,45
 436 -29 436 -29 400 -33.5 c 128,-1,46
 364 -38 364 -38 338 -38 c 0,47,48
 273 -38 273 -38 221 -16.5 c 128,-1,49
 169 5 169 5 132 45.5 c 128,-1,50
 95 86 95 86 75.5 144.5 c 128,-1,51
 56 203 56 203 56 276 c 0,52,53
 56 338 56 338 80 402 c 128,-1,54
 104 466 104 466 144.5 517.5 c 128,-1,55
 185 569 185 569 238 602 c 128,-1,56
 291 635 291 635 349 635 c 0,57,58
 420 635 420 635 470 608 c 128,-1,59
 520 581 520 581 552 535 c 128,-1,60
 584 489 584 489 599 428 c 128,-1,61
 614 367 614 367 614 299 c 0,62,63
 614 283 614 283 609.5 260 c 128,-1,64
 605 237 605 237 592 215.5 c 128,-1,65
 579 194 579 194 557 178.5 c 128,-1,66
 535 163 535 163 500 163 c 0,67,68
 464 163 464 163 437 181 c 1,69,70
 421 165 421 165 397.5 154 c 128,-1,71
 374 143 374 143 348 143 c 0,72,73
 277 143 277 143 241 187 c 128,-1,74
 205 231 205 231 205 306 c 0,75,76
 205 325 205 325 213.5 351 c 128,-1,77
 222 377 222 377 243 400 c 128,-1,78
 264 423 264 423 299 439 c 128,-1,79
 334 455 334 455 386 455 c 1,80,-1
 385 454 l 1,0,1
348 388 m 0,81,82
 348 396 348 396 348 401 c 0,83,84
 349 406 349 406 349 411 c 1,85,86
 347 408 347 408 345 407 c 256,87,88
 343 406 343 406 341 404 c 0,89,90
 332 399 332 399 319 391 c 128,-1,91
 306 383 306 383 294.5 371 c 128,-1,92
 283 359 283 359 275 343 c 128,-1,93
 267 327 267 327 267 306 c 0,94,95
 267 204 267 204 347 204 c 0,96,97
 372 204 372 204 392 225 c 1,98,99
 370 260 370 260 359 304 c 128,-1,100
 348 348 348 348 348 388 c 0,81,82
404 418 m 0,101,102
 399 418 399 418 398 410.5 c 128,-1,103
 397 403 397 403 397 399 c 0,104,105
 399 370 399 370 405.5 341.5 c 128,-1,106
 412 313 412 313 423 283 c 1,107,108
 426 298 426 298 426 310 c 0,109,110
 426 320 426 320 425 338.5 c 128,-1,111
 424 357 424 357 421 374.5 c 128,-1,112
 418 392 418 392 414 405 c 128,-1,113
 410 418 410 418 404 418 c 0,101,102
EndSplineSet
Validated: 1
EndChar

StartChar: A
Encoding: 65 65 30
Width: 543
GlyphClass: 1
Flags: W
LayerCount: 2
Fore
SplineSet
506 -5 m 2,0,1
 506 -11 506 -11 503.5 -21.5 c 128,-1,2
 501 -32 501 -32 498 -33 c 0,3,4
 486 -35 486 -35 476 -36 c 128,-1,5
 466 -37 466 -37 457 -37 c 0,6,7
 436 -37 436 -37 420 -31 c 1,8,9
 414 -9 414 -9 403 18 c 128,-1,10
 392 45 392 45 377.5 73 c 128,-1,11
 363 101 363 101 345.5 128.5 c 128,-1,12
 328 156 328 156 310 180 c 1,13,14
 296 178 296 178 282.5 176 c 128,-1,15
 269 174 269 174 255 172 c 0,16,17
 223 174 223 174 189.5 181 c 128,-1,18
 156 188 156 188 125 205 c 1,19,-1
 125 195 l 1,20,-1
 123 -14 l 2,21,22
 119 -28 119 -28 107 -31 c 128,-1,23
 95 -34 95 -34 81 -34 c 2,24,-1
 44 -34 l 2,25,26
 36 -34 36 -34 32 -27.5 c 128,-1,27
 28 -21 28 -21 28 -13 c 0,28,29
 28 -9 28 -9 29 -6 c 0,30,31
 30 44 30 44 31 92.5 c 128,-1,32
 32 141 32 141 32 191 c 0,33,34
 32 216 32 216 33 240.5 c 128,-1,35
 34 265 34 265 36 288 c 1,36,37
 13 321 13 321 13 346 c 0,38,39
 13 378 13 378 50 389 c 1,40,41
 65 465 65 465 91 527 c 128,-1,42
 117 589 117 589 151.5 633 c 128,-1,43
 186 677 186 677 229 701 c 128,-1,44
 272 725 272 725 321 725 c 0,45,46
 361 725 361 725 390.5 706.5 c 128,-1,47
 420 688 420 688 440.5 656.5 c 128,-1,48
 461 625 461 625 474 583 c 128,-1,49
 487 541 487 541 494.5 493.5 c 128,-1,50
 502 446 502 446 504.5 396 c 128,-1,51
 507 346 507 346 508 299 c 1,52,53
 531 314 531 314 541 323 c 128,-1,54
 551 332 551 332 551 343 c 0,55,56
 551 348 551 348 550 351 c 1,57,58
 567 351 567 351 574.5 343.5 c 128,-1,59
 582 336 582 336 582 325 c 256,60,61
 582 314 582 314 575 301.5 c 128,-1,62
 568 289 568 289 556 280 c 256,63,64
 544 271 544 271 532 262.5 c 128,-1,65
 520 254 520 254 508 247 c 1,66,67
 507 220 507 220 506.5 196 c 128,-1,68
 506 172 506 172 506 152 c 2,69,-1
 506 -5 l 2,0,1
314 653 m 0,70,71
 287 653 287 653 262 633 c 128,-1,72
 237 613 237 613 215 577.5 c 128,-1,73
 193 542 193 542 175 493 c 128,-1,74
 157 444 157 444 145 387 c 1,75,76
 150 386 150 386 155.5 385.5 c 128,-1,77
 161 385 161 385 166 383 c 0,78,79
 208 365 208 365 255 326 c 128,-1,80
 302 287 302 287 347 233 c 1,81,82
 367 238 367 238 386 243 c 128,-1,83
 405 248 405 248 424 256 c 1,84,85
 425 278 425 278 426 303 c 128,-1,86
 427 328 427 328 427 354 c 0,87,88
 427 406 427 406 422.5 459.5 c 128,-1,89
 418 513 418 513 405.5 556 c 128,-1,90
 393 599 393 599 371 626 c 128,-1,91
 349 653 349 653 314 653 c 0,70,71
135 330 m 1,92,93
 133 314 133 314 131 298.5 c 128,-1,94
 129 283 129 283 128 266 c 1,95,96
 160 243 160 243 197 233.5 c 128,-1,97
 234 224 234 224 274 224 c 1,98,99
 239 263 239 263 203 291.5 c 128,-1,100
 167 320 167 320 135 330 c 1,92,93
418 161 m 2,101,102
 418 174 418 174 421 207 c 1,103,104
 410 203 410 203 399.5 200 c 128,-1,105
 389 197 389 197 378 194 c 1,106,107
 389 180 389 180 398.5 166 c 128,-1,108
 408 152 408 152 418 137 c 1,109,-1
 418 161 l 2,101,102
EndSplineSet
Validated: 1
EndChar

StartChar: B
Encoding: 66 66 31
Width: 725
GlyphClass: 1
Flags: W
LayerCount: 2
Fore
SplineSet
144 220 m 1,0,1
 137 227 137 227 128.5 237 c 128,-1,2
 120 247 120 247 112 256 c 128,-1,3
 104 265 104 265 98.5 273 c 128,-1,4
 93 281 93 281 93 286 c 0,5,6
 95 308 95 308 108.5 325 c 128,-1,7
 122 342 122 342 135 359 c 1,8,9
 135 369 135 369 135.5 385 c 128,-1,10
 136 401 136 401 136 419 c 0,11,12
 136 438 136 438 134.5 457.5 c 128,-1,13
 133 477 133 477 129 494 c 128,-1,14
 125 511 125 511 117.5 523.5 c 128,-1,15
 110 536 110 536 98 542 c 1,16,-1
 63 517 l 2,17,18
 48 507 48 507 36 496 c 128,-1,19
 24 485 24 485 13.5 473 c 128,-1,20
 3 461 3 461 -8 444 c 0,21,22
 -11 439 -11 439 -15 431.5 c 128,-1,23
 -19 424 -19 424 -28 424 c 0,24,25
 -38 424 -38 424 -43.5 431 c 128,-1,26
 -49 438 -49 438 -49 447 c 0,27,28
 -49 455 -49 455 -48 459 c 128,-1,29
 -47 463 -47 463 -45 470 c 0,30,31
 -7 518 -7 518 43.5 557 c 128,-1,32
 94 596 94 596 145 627 c 0,33,34
 214 669 214 669 288 697 c 128,-1,35
 362 725 362 725 441 725 c 0,36,37
 473 725 473 725 510.5 717.5 c 128,-1,38
 548 710 548 710 580.5 694 c 128,-1,39
 613 678 613 678 634.5 654 c 128,-1,40
 656 630 656 630 656 597 c 0,41,42
 656 534 656 534 637 491 c 128,-1,43
 618 448 618 448 587 410 c 1,44,45
 609 397 609 397 631.5 377.5 c 128,-1,46
 654 358 654 358 672 334 c 128,-1,47
 690 310 690 310 701.5 283 c 128,-1,48
 713 256 713 256 713 229 c 0,49,50
 713 152 713 152 675 102 c 128,-1,51
 637 52 637 52 578.5 23 c 128,-1,52
 520 -6 520 -6 450 -18 c 128,-1,53
 380 -30 380 -30 316 -30 c 0,54,55
 293 -30 293 -30 262 -27.5 c 128,-1,56
 231 -25 231 -25 202.5 -15.5 c 128,-1,57
 174 -6 174 -6 154 12 c 128,-1,58
 134 30 134 30 134 61 c 2,59,-1
 144 220 l 1,0,1
230 80 m 0,60,61
 230 69 230 69 244.5 63 c 128,-1,62
 259 57 259 57 277 54 c 128,-1,63
 295 51 295 51 312.5 50.5 c 128,-1,64
 330 50 330 50 336 50 c 0,65,66
 375 50 375 50 426.5 61 c 128,-1,67
 478 72 478 72 524.5 94.5 c 128,-1,68
 571 117 571 117 603.5 152.5 c 128,-1,69
 636 188 636 188 636 238 c 0,70,71
 636 252 636 252 634.5 267 c 128,-1,72
 633 282 633 282 624 296.5 c 128,-1,73
 615 311 615 311 596.5 326 c 128,-1,74
 578 341 578 341 545 355 c 1,75,76
 531 341 531 341 515 326.5 c 128,-1,77
 499 312 499 312 482 302 c 0,78,79
 474 297 474 297 459 289 c 2,80,-1
 428 274 l 2,81,82
 412 266 412 266 398.5 259.5 c 128,-1,83
 385 253 385 253 382 252 c 0,84,85
 375 249 375 249 354.5 244.5 c 128,-1,86
 334 240 334 240 310.5 235 c 128,-1,87
 287 230 287 230 266.5 226 c 128,-1,88
 246 222 246 222 238 220 c 0,89,90
 229 215 229 215 227 207.5 c 128,-1,91
 225 200 225 200 225 190 c 2,92,-1
 226 149 l 1,93,94
 239 157 239 157 258.5 162.5 c 128,-1,95
 278 168 278 168 299 172 c 128,-1,96
 320 176 320 176 339.5 177.5 c 128,-1,97
 359 179 359 179 373 179 c 0,98,99
 385 179 385 179 399.5 176.5 c 128,-1,100
 414 174 414 174 414 161 c 0,101,102
 414 155 414 155 400.5 151.5 c 128,-1,103
 387 148 387 148 367 145 c 128,-1,104
 347 142 347 142 323.5 138 c 128,-1,105
 300 134 300 134 279.5 126.5 c 128,-1,106
 259 119 259 119 245 108 c 128,-1,107
 231 97 231 97 230 80 c 0,60,61
184 572 m 0,108,109
 199 554 199 554 207 535 c 128,-1,110
 215 516 215 516 219 496 c 128,-1,111
 223 476 223 476 225 455 c 128,-1,112
 227 434 227 434 231 413 c 1,113,114
 269 426 269 426 321 435 c 128,-1,115
 373 444 373 444 420 444 c 0,116,117
 456 444 456 444 485 438.5 c 128,-1,118
 514 433 514 433 528 428 c 1,119,120
 554 453 554 453 571 489 c 128,-1,121
 588 525 588 525 588 560 c 0,122,123
 588 588 588 588 574 606 c 128,-1,124
 560 624 560 624 538.5 634.5 c 128,-1,125
 517 645 517 645 492 649 c 128,-1,126
 467 653 467 653 445 653 c 0,127,128
 361 653 361 653 267 618 c 0,129,130
 262 616 262 616 248.5 611 c 128,-1,131
 235 606 235 606 221 599 c 128,-1,132
 207 592 207 592 195.5 585 c 128,-1,133
 184 578 184 578 184 572 c 0,108,109
235 303 m 1,134,135
 241 301 241 301 249 300.5 c 128,-1,136
 257 300 257 300 262 300 c 0,137,138
 275 300 275 300 307 308.5 c 128,-1,139
 339 317 339 317 373.5 329 c 128,-1,140
 408 341 408 341 437.5 353.5 c 128,-1,141
 467 366 467 366 475 373 c 1,142,143
 452 381 452 381 424.5 383 c 128,-1,144
 397 385 397 385 387 385 c 0,145,146
 359 385 359 385 325 377 c 128,-1,147
 291 369 291 369 272 363 c 0,148,149
 265 361 265 361 253.5 355 c 128,-1,150
 242 349 242 349 234 340 c 1,151,-1
 235 303 l 1,134,135
EndSplineSet
Validated: 1
EndChar

StartChar: C
Encoding: 67 67 32
Width: 612
GlyphClass: 1
Flags: W
LayerCount: 2
Fore
SplineSet
572 97 m 1,0,1
 584 87 584 87 588.5 78 c 128,-1,2
 593 69 593 69 593 61 c 0,3,4
 593 56 593 56 592 50 c 128,-1,5
 591 44 591 44 589 38 c 1,6,7
 541 9 541 9 473.5 -13 c 128,-1,8
 406 -35 406 -35 323 -35 c 0,9,10
 268 -35 268 -35 213 -11 c 128,-1,11
 158 13 158 13 114 58 c 128,-1,12
 70 103 70 103 42.5 166.5 c 128,-1,13
 15 230 15 230 15 310 c 0,14,15
 15 349 15 349 25.5 395 c 128,-1,16
 36 441 36 441 57 486 c 128,-1,17
 78 531 78 531 110 573 c 128,-1,18
 142 615 142 615 184.5 647.5 c 128,-1,19
 227 680 227 680 280.5 699 c 128,-1,20
 334 718 334 718 399 718 c 0,21,22
 451 718 451 718 491 704 c 128,-1,23
 531 690 531 690 558.5 665 c 128,-1,24
 586 640 586 640 600 604.5 c 128,-1,25
 614 569 614 569 614 526 c 0,26,27
 614 490 614 490 601 464 c 128,-1,28
 588 438 588 438 567 421.5 c 128,-1,29
 546 405 546 405 518.5 397 c 128,-1,30
 491 389 491 389 461 389 c 0,31,32
 438 389 438 389 418 397 c 128,-1,33
 398 405 398 405 383.5 418 c 128,-1,34
 369 431 369 431 361 448.5 c 128,-1,35
 353 466 353 466 353 486 c 0,36,37
 353 504 353 504 362 520.5 c 128,-1,38
 371 537 371 537 385 549 c 128,-1,39
 399 561 399 561 416.5 568.5 c 128,-1,40
 434 576 434 576 452 576 c 2,41,-1
 456 576 l 1,42,43
 431 553 431 553 418.5 535 c 128,-1,44
 406 517 406 517 406 491 c 0,45,46
 406 484 406 484 408.5 475.5 c 128,-1,47
 411 467 411 467 417 459.5 c 128,-1,48
 423 452 423 452 433 447 c 128,-1,49
 443 442 443 442 457 442 c 0,50,51
 472 442 472 442 489.5 446 c 128,-1,52
 507 450 507 450 522 459.5 c 128,-1,53
 537 469 537 469 547 486 c 128,-1,54
 557 503 557 503 557 530 c 0,55,56
 557 566 557 566 544.5 590 c 128,-1,57
 532 614 532 614 511 627.5 c 128,-1,58
 490 641 490 641 461.5 646.5 c 128,-1,59
 433 652 433 652 401 652 c 0,60,61
 340 652 340 652 285 621.5 c 128,-1,62
 230 591 230 591 189 543 c 128,-1,63
 148 495 148 495 123.5 436 c 128,-1,64
 99 377 99 377 99 320 c 0,65,66
 99 257 99 257 121.5 207 c 128,-1,67
 144 157 144 157 179.5 122 c 128,-1,68
 215 87 215 87 259.5 68.5 c 128,-1,69
 304 50 304 50 348 50 c 0,70,71
 420 50 420 50 472.5 63 c 128,-1,72
 525 76 525 76 572 97 c 1,0,1
EndSplineSet
Validated: 1
EndChar

StartChar: D
Encoding: 68 68 33
Width: 878
GlyphClass: 1
Flags: W
LayerCount: 2
Fore
SplineSet
258 261 m 1,0,1
 221 258 221 258 183.5 254.5 c 128,-1,2
 146 251 146 251 116 245 c 128,-1,3
 86 239 86 239 67.5 230 c 128,-1,4
 49 221 49 221 49 208 c 0,5,6
 49 198 49 198 56.5 187 c 128,-1,7
 64 176 64 176 75.5 165.5 c 128,-1,8
 87 155 87 155 99.5 145 c 128,-1,9
 112 135 112 135 123 127 c 0,10,11
 147 107 147 107 180.5 91 c 128,-1,12
 214 75 214 75 249 67 c 1,13,-1
 258 261 l 1,0,1
-43 613 m 0,14,15
 -46 613 -46 613 -52.5 612.5 c 128,-1,16
 -59 612 -59 612 -67 612 c 0,17,18
 -84 612 -84 612 -99.5 615 c 128,-1,19
 -115 618 -115 618 -115 628 c 0,20,21
 -115 651 -115 651 -102.5 667 c 128,-1,22
 -90 683 -90 683 -70.5 693.5 c 128,-1,23
 -51 704 -51 704 -25.5 710.5 c 128,-1,24
 0 717 0 717 25.5 720 c 128,-1,25
 51 723 51 723 75 723.5 c 128,-1,26
 99 724 99 724 116 724 c 0,27,28
 184 724 184 724 264.5 705.5 c 128,-1,29
 345 687 345 687 419 661 c 0,30,31
 456 647 456 647 504 623.5 c 128,-1,32
 552 600 552 600 602 568.5 c 128,-1,33
 652 537 652 537 700 498 c 128,-1,34
 748 459 748 459 786 414.5 c 128,-1,35
 824 370 824 370 847 321 c 128,-1,36
 870 272 870 272 870 221 c 0,37,38
 870 153 870 153 836.5 102.5 c 128,-1,39
 803 52 803 52 749 18.5 c 128,-1,40
 695 -15 695 -15 627.5 -31.5 c 128,-1,41
 560 -48 560 -48 492 -48 c 0,42,43
 457 -48 457 -48 418.5 -43 c 128,-1,44
 380 -38 380 -38 346 -33 c 1,45,46
 344 -41 344 -41 341.5 -49.5 c 128,-1,47
 339 -58 339 -58 334 -75 c 1,48,49
 325 -77 325 -77 317 -78 c 128,-1,50
 309 -79 309 -79 299 -79 c 2,51,-1
 276 -77 l 1,52,53
 265 -63 265 -63 260 -42.5 c 128,-1,54
 255 -22 255 -22 250 1 c 1,55,56
 181 41 181 41 137 74 c 128,-1,57
 93 107 93 107 73 130 c 0,58,59
 56 148 56 148 40 171 c 128,-1,60
 24 194 24 194 24 217 c 256,61,62
 24 240 24 240 57 263 c 0,63,64
 92 289 92 289 140 305 c 128,-1,65
 188 321 188 321 262 334 c 1,66,-1
 264 375 l 2,67,68
 264 379 264 379 266.5 398 c 128,-1,69
 269 417 269 417 273 440 c 128,-1,70
 277 463 277 463 283 483.5 c 128,-1,71
 289 504 289 504 298 512 c 1,72,73
 312 501 312 501 320 489 c 128,-1,74
 328 477 328 477 332.5 464.5 c 128,-1,75
 337 452 337 452 339 437 c 128,-1,76
 341 422 341 422 342 405 c 0,77,78
 343 390 343 390 344 374.5 c 128,-1,79
 345 359 345 359 347 342 c 1,80,-1
 361 342 l 2,81,82
 378 342 378 342 406 340 c 128,-1,83
 434 338 434 338 465.5 333.5 c 128,-1,84
 497 329 497 329 529 320.5 c 128,-1,85
 561 312 561 312 587 299 c 128,-1,86
 613 286 613 286 629 267 c 128,-1,87
 645 248 645 248 645 223 c 0,88,89
 645 214 645 214 639 202 c 128,-1,90
 633 190 633 190 623 179.5 c 128,-1,91
 613 169 613 169 601 161.5 c 128,-1,92
 589 154 589 154 576 154 c 0,93,94
 567 154 567 154 553.5 157.5 c 128,-1,95
 540 161 540 161 532 167 c 1,96,97
 543 180 543 180 556.5 191 c 128,-1,98
 570 202 570 202 575 212 c 1,99,100
 567 221 567 221 545 230 c 128,-1,101
 523 239 523 239 493.5 246.5 c 128,-1,102
 464 254 464 254 431 259 c 128,-1,103
 398 264 398 264 368 264 c 0,104,105
 358 264 358 264 353 264 c 128,-1,106
 348 264 348 264 342 263 c 1,107,-1
 343 44 l 1,108,109
 367 29 367 29 393.5 25.5 c 128,-1,110
 420 22 420 22 439 22 c 0,111,112
 466 22 466 22 502 24 c 128,-1,113
 538 26 538 26 575.5 33.5 c 128,-1,114
 613 41 613 41 649 54 c 128,-1,115
 685 67 685 67 713.5 89 c 128,-1,116
 742 111 742 111 759.5 142.5 c 128,-1,117
 777 174 777 174 777 219 c 0,118,119
 777 263 777 263 759.5 303.5 c 128,-1,120
 742 344 742 344 712.5 380.5 c 128,-1,121
 683 417 683 417 643.5 449 c 128,-1,122
 604 481 604 481 560.5 508 c 128,-1,123
 517 535 517 535 471.5 557 c 128,-1,124
 426 579 426 579 384 595 c 0,125,126
 295 629 295 629 208.5 646 c 128,-1,127
 122 663 122 663 23 663 c 0,128,129
 3 663 3 663 -18 661 c 128,-1,130
 -39 659 -39 659 -59 654 c 0,131,132
 -82 649 -82 649 -82 642 c 0,133,134
 -82 639 -82 639 -76.5 637 c 128,-1,135
 -71 635 -71 635 -64.5 633.5 c 128,-1,136
 -58 632 -58 632 -52 631 c 128,-1,137
 -46 630 -46 630 -44 629 c 0,138,139
 -39 626 -39 626 -39 621 c 0,140,141
 -39 617 -39 617 -43 613 c 0,14,15
EndSplineSet
Validated: 1
EndChar

StartChar: E
Encoding: 69 69 34
Width: 521
GlyphClass: 1
Flags: W
LayerCount: 2
Fore
SplineSet
315 397 m 2,0,1
 336 397 336 397 365 405 c 1,2,3
 352 412 352 412 329 412 c 0,4,5
 309 412 309 412 292 408 c 128,-1,6
 275 404 275 404 262 402 c 1,7,-1
 315 397 l 2,0,1
468 622 m 0,8,9
 468 626 468 626 464 630.5 c 128,-1,10
 460 635 460 635 438 645 c 0,11,12
 421 651 421 651 395.5 654.5 c 128,-1,13
 370 658 370 658 351 658 c 0,14,15
 321 658 321 658 289 650 c 128,-1,16
 257 642 257 642 231 626 c 128,-1,17
 205 610 205 610 188 586 c 128,-1,18
 171 562 171 562 171 531 c 0,19,20
 171 505 171 505 179 480.5 c 128,-1,21
 187 456 187 456 204 445 c 1,22,23
 228 452 228 452 252.5 455 c 128,-1,24
 277 458 277 458 301 458 c 0,25,26
 322 458 322 458 342.5 455.5 c 128,-1,27
 363 453 363 453 383 447 c 0,28,29
 411 439 411 439 419 430 c 128,-1,30
 427 421 427 421 427 399 c 0,31,32
 427 385 427 385 422.5 375.5 c 128,-1,33
 418 366 418 366 405.5 359.5 c 128,-1,34
 393 353 393 353 371 350 c 128,-1,35
 349 347 349 347 314 347 c 0,36,37
 284 347 284 347 255 350.5 c 128,-1,38
 226 354 226 354 198 365 c 0,39,40
 193 363 193 363 187 359 c 0,41,42
 160 350 160 350 142.5 334 c 128,-1,43
 125 318 125 318 115 297.5 c 128,-1,44
 105 277 105 277 101 252.5 c 128,-1,45
 97 228 97 228 97 203 c 0,46,47
 97 162 97 162 115 130 c 128,-1,48
 133 98 133 98 161.5 76 c 128,-1,49
 190 54 190 54 226.5 43 c 128,-1,50
 263 32 263 32 301 32 c 0,51,52
 346 32 346 32 389.5 52 c 128,-1,53
 433 72 433 72 463 103 c 0,54,55
 485 125 485 125 493 125 c 0,56,57
 499 125 499 125 500.5 115 c 128,-1,58
 502 105 502 105 502 83 c 0,59,60
 502 66 502 66 495 53 c 128,-1,61
 488 40 488 40 478 30 c 0,62,63
 440 -8 440 -8 401.5 -24 c 128,-1,64
 363 -40 363 -40 308 -40 c 0,65,66
 250 -40 250 -40 196 -25.5 c 128,-1,67
 142 -11 142 -11 100.5 18.5 c 128,-1,68
 59 48 59 48 34 91.5 c 128,-1,69
 9 135 9 135 9 193 c 0,70,71
 9 229 9 229 16.5 263.5 c 128,-1,72
 24 298 24 298 39.5 327.5 c 128,-1,73
 55 357 55 357 78.5 380 c 128,-1,74
 102 403 102 403 134 417 c 1,75,76
 114 440 114 440 98 471 c 128,-1,77
 82 502 82 502 80 534 c 0,78,79
 82 585 82 585 107 621.5 c 128,-1,80
 132 658 132 658 170 681.5 c 128,-1,81
 208 705 208 705 255 716 c 128,-1,82
 302 727 302 727 349 727 c 0,83,84
 379 727 379 727 407 722 c 128,-1,85
 435 717 435 717 462 708 c 0,86,87
 484 701 484 701 495.5 676.5 c 128,-1,88
 507 652 507 652 507 626 c 0,89,90
 507 615 507 615 504.5 603.5 c 128,-1,91
 502 592 502 592 497 582.5 c 128,-1,92
 492 573 492 573 484 566.5 c 128,-1,93
 476 560 476 560 464 560 c 0,94,95
 457 560 457 560 452 561.5 c 128,-1,96
 447 563 447 563 441 564 c 1,97,98
 444 567 444 567 449 573.5 c 128,-1,99
 454 580 454 580 458 588 c 128,-1,100
 462 596 462 596 465 605 c 128,-1,101
 468 614 468 614 468 622 c 0,8,9
EndSplineSet
Validated: 1
EndChar

StartChar: F
Encoding: 70 70 35
Width: 495
GlyphClass: 1
Flags: W
LayerCount: 2
Fore
SplineSet
125 641 m 1,0,1
 122 648 122 648 116.5 656.5 c 128,-1,2
 111 665 111 665 104.5 672 c 128,-1,3
 98 679 98 679 90 684 c 128,-1,4
 82 689 82 689 74 689 c 0,5,6
 71 689 71 689 63.5 685.5 c 128,-1,7
 56 682 56 682 56 669 c 0,8,9
 56 662 56 662 63 656.5 c 128,-1,10
 70 651 70 651 79.5 647.5 c 128,-1,11
 89 644 89 644 99.5 642.5 c 128,-1,12
 110 641 110 641 117 641 c 2,13,-1
 125 641 l 1,0,1
162 585 m 1,14,15
 98 591 98 591 58.5 610 c 128,-1,16
 19 629 19 629 19 669 c 0,17,18
 19 683 19 683 24.5 693 c 128,-1,19
 30 703 30 703 38 709 c 128,-1,20
 46 715 46 715 55.5 717.5 c 128,-1,21
 65 720 65 720 73 720 c 0,22,23
 95 720 95 720 113.5 713.5 c 128,-1,24
 132 707 132 707 148.5 696.5 c 128,-1,25
 165 686 165 686 179.5 673 c 128,-1,26
 194 660 194 660 207 647 c 1,27,28
 226 648 226 648 237.5 648.5 c 128,-1,29
 249 649 249 649 263 650 c 0,30,31
 294 652 294 652 342.5 654 c 128,-1,32
 391 656 391 656 457 656 c 0,33,34
 475 656 475 656 493 654 c 128,-1,35
 511 652 511 652 526 645.5 c 128,-1,36
 541 639 541 639 550.5 627 c 128,-1,37
 560 615 560 615 560 595 c 0,38,39
 560 583 560 583 554 574 c 128,-1,40
 548 565 548 565 539 559 c 128,-1,41
 530 553 530 553 519 550 c 128,-1,42
 508 547 508 547 498 547 c 0,43,44
 486 547 486 547 479 551 c 1,45,46
 490 561 490 561 504.5 567 c 128,-1,47
 519 573 519 573 519 581 c 0,48,49
 519 592 519 592 504.5 593.5 c 128,-1,50
 490 595 490 595 476 595 c 0,51,52
 454 595 454 595 424.5 593 c 128,-1,53
 395 591 395 591 363.5 588.5 c 128,-1,54
 332 586 332 586 302.5 584 c 128,-1,55
 273 582 273 582 251 582 c 2,56,-1
 250 582 l 1,57,58
 274 532 274 532 284.5 472 c 128,-1,59
 295 412 295 412 297 348 c 1,60,-1
 348 347 l 2,61,62
 355 347 355 347 370 346.5 c 128,-1,63
 385 346 385 346 401 346 c 128,-1,64
 417 346 417 346 430.5 345.5 c 128,-1,65
 444 345 444 345 448 345 c 0,66,67
 456 345 456 345 462.5 339 c 128,-1,68
 469 333 469 333 473.5 324.5 c 128,-1,69
 478 316 478 316 480.5 307 c 128,-1,70
 483 298 483 298 483 293 c 0,71,72
 483 279 483 279 478.5 275.5 c 128,-1,73
 474 272 474 272 465 269 c 1,74,75
 460 277 460 277 453 277 c 2,76,-1
 441 277 l 2,77,78
 396 277 396 277 361 278 c 128,-1,79
 326 279 326 279 298 281 c 1,80,81
 298 251 298 251 297 224 c 128,-1,82
 296 197 296 197 293 167 c 128,-1,83
 290 137 290 137 283.5 101.5 c 128,-1,84
 277 66 277 66 267 19 c 0,85,86
 264 5 264 5 254 -16.5 c 128,-1,87
 244 -38 244 -38 226 -45 c 0,88,89
 215 -50 215 -50 201.5 -53.5 c 128,-1,90
 188 -57 188 -57 176 -58 c 0,91,92
 165 -58 165 -58 161 -45.5 c 128,-1,93
 157 -33 157 -33 161 -25 c 0,94,95
 177 9 177 9 187.5 57.5 c 128,-1,96
 198 106 198 106 204 153.5 c 128,-1,97
 210 201 210 201 213 239.5 c 128,-1,98
 216 278 216 278 216 292 c 1,99,100
 186 298 186 298 173.5 304.5 c 128,-1,101
 161 311 161 311 154 316 c 0,102,103
 148 320 148 320 141.5 326.5 c 128,-1,104
 135 333 135 333 128.5 341.5 c 128,-1,105
 122 350 122 350 117.5 359 c 128,-1,106
 113 368 113 368 112 377 c 1,107,108
 135 372 135 372 157 363 c 128,-1,109
 179 354 179 354 214 350 c 1,110,111
 211 410 211 410 199.5 472 c 128,-1,112
 188 534 188 534 162 585 c 1,14,15
EndSplineSet
Validated: 1
EndChar

StartChar: G
Encoding: 71 71 36
Width: 586
GlyphClass: 1
Flags: W
LayerCount: 2
Fore
SplineSet
194 292 m 1,0,1
 206 290 206 290 224.5 289 c 128,-1,2
 243 288 243 288 260 288 c 0,3,4
 269 288 269 288 276.5 288 c 128,-1,5
 284 288 284 288 290 289 c 0,6,7
 315 291 315 291 335 292.5 c 128,-1,8
 355 294 355 294 371.5 295.5 c 128,-1,9
 388 297 388 297 403 300 c 128,-1,10
 418 303 418 303 435 308 c 1,11,12
 423 315 423 315 409.5 320 c 128,-1,13
 396 325 396 325 383.5 328 c 128,-1,14
 371 331 371 331 361 332.5 c 128,-1,15
 351 334 351 334 346 334 c 0,16,17
 327 334 327 334 303.5 332.5 c 128,-1,18
 280 331 280 331 258 326.5 c 128,-1,19
 236 322 236 322 218.5 314 c 128,-1,20
 201 306 201 306 194 292 c 1,0,1
632 564 m 1,21,22
 641 562 641 562 648.5 560 c 128,-1,23
 656 558 656 558 662 558 c 0,24,25
 682 558 682 558 682 584 c 0,26,27
 682 597 682 597 673 609 c 128,-1,28
 664 621 664 621 648.5 630.5 c 128,-1,29
 633 640 633 640 612.5 645.5 c 128,-1,30
 592 651 592 651 570 651 c 0,31,32
 509 651 509 651 451 634 c 128,-1,33
 393 617 393 617 342 588 c 128,-1,34
 291 559 291 559 250 521.5 c 128,-1,35
 209 484 209 484 181 443 c 0,36,37
 146 391 146 391 124.5 324.5 c 128,-1,38
 103 258 103 258 103 184 c 0,39,40
 103 150 103 150 117 125 c 128,-1,41
 131 100 131 100 154 83.5 c 128,-1,42
 177 67 177 67 207 59 c 128,-1,43
 237 51 237 51 269 51 c 0,44,45
 306 51 306 51 343 65 c 128,-1,46
 380 79 380 79 408.5 103.5 c 128,-1,47
 437 128 437 128 455 162.5 c 128,-1,48
 473 197 473 197 473 239 c 0,49,50
 473 244 473 244 473 248 c 128,-1,51
 473 252 473 252 472 257 c 1,52,53
 418 233 418 233 360 223 c 128,-1,54
 302 213 302 213 242 213 c 0,55,56
 231 213 231 213 214 217 c 128,-1,57
 197 221 197 221 181.5 229.5 c 128,-1,58
 166 238 166 238 155 251 c 128,-1,59
 144 264 144 264 144 282 c 0,60,61
 144 309 144 309 163 327.5 c 128,-1,62
 182 346 182 346 211 357.5 c 128,-1,63
 240 369 240 369 275.5 374.5 c 128,-1,64
 311 380 311 380 344 380 c 0,65,66
 380 380 380 380 413.5 371.5 c 128,-1,67
 447 363 447 363 485 340 c 1,68,69
 494 343 494 343 504 349.5 c 128,-1,70
 514 356 514 356 523 362 c 0,71,72
 523 365 523 365 517.5 371 c 128,-1,73
 512 377 512 377 512 381 c 0,74,75
 515 388 515 388 521 388 c 0,76,77
 524 388 524 388 525 387 c 0,78,79
 547 376 547 376 552 364 c 128,-1,80
 557 352 557 352 557 340 c 0,81,82
 557 320 557 320 545 303 c 128,-1,83
 533 286 533 286 513 272 c 1,84,85
 523 235 523 235 523 197 c 0,86,87
 523 146 523 146 502.5 104.5 c 128,-1,88
 482 63 482 63 447.5 33.5 c 128,-1,89
 413 4 413 4 367 -11.5 c 128,-1,90
 321 -27 321 -27 270 -27 c 0,91,92
 216 -27 216 -27 170.5 -14 c 128,-1,93
 125 -1 125 -1 92 27 c 128,-1,94
 59 55 59 55 40 97.5 c 128,-1,95
 21 140 21 140 21 199 c 0,96,97
 21 269 21 269 41 335 c 128,-1,98
 61 401 61 401 97 459.5 c 128,-1,99
 133 518 133 518 182.5 567 c 128,-1,100
 232 616 232 616 291 651 c 128,-1,101
 350 686 350 686 416 705.5 c 128,-1,102
 482 725 482 725 551 725 c 0,103,104
 586 725 586 725 618.5 715.5 c 128,-1,105
 651 706 651 706 676.5 688 c 128,-1,106
 702 670 702 670 717 644.5 c 128,-1,107
 732 619 732 619 732 586 c 0,108,109
 732 562 732 562 716.5 544 c 128,-1,110
 701 526 701 526 678 526 c 0,111,112
 662 526 662 526 649 537.5 c 128,-1,113
 636 549 636 549 632 564 c 1,21,22
EndSplineSet
Validated: 1
EndChar

StartChar: H
Encoding: 72 72 37
Width: 606
GlyphClass: 1
Flags: W
LayerCount: 2
Fore
SplineSet
467 705 m 1,0,1
 476 713 476 713 492.5 718.5 c 128,-1,2
 509 724 509 724 524 724 c 0,3,4
 533 724 533 724 540.5 721.5 c 128,-1,5
 548 719 548 719 551 714 c 2,6,-1
 551 362 l 2,7,8
 551 338 551 338 550 311 c 1,9,10
 588 324 588 324 615.5 339 c 128,-1,11
 643 354 643 354 646 376 c 1,12,13
 660 370 660 370 666.5 365.5 c 128,-1,14
 673 361 673 361 673 346 c 0,15,16
 673 335 673 335 670 324.5 c 128,-1,17
 667 314 667 314 653 304 c 0,18,19
 633 292 633 292 607 278 c 128,-1,20
 581 264 581 264 552 253 c 1,21,-1
 550 250 l 1,22,23
 548 190 548 190 546.5 132 c 128,-1,24
 545 74 545 74 542 11 c 2,25,-1
 542 -24 l 2,26,27
 542 -28 542 -28 527.5 -29 c 128,-1,28
 513 -30 513 -30 501 -30 c 0,29,30
 491 -30 491 -30 478.5 -29.5 c 128,-1,31
 466 -29 466 -29 464 -26 c 0,32,33
 462 -24 462 -24 462 -20.5 c 128,-1,34
 462 -17 462 -17 461 -6 c 0,35,36
 461 45 461 45 429 95.5 c 128,-1,37
 397 146 397 146 347 193 c 1,38,-1
 344 194 l 1,39,40
 315 186 315 186 288.5 183 c 128,-1,41
 262 180 262 180 242 180 c 0,42,43
 216 180 216 180 192 180.5 c 128,-1,44
 168 181 168 181 144 184 c 1,45,-1
 142 -8 l 2,46,47
 142 -19 142 -19 133.5 -24.5 c 128,-1,48
 125 -30 125 -30 111 -30 c 0,49,50
 96 -30 96 -30 84 -29 c 128,-1,51
 72 -28 72 -28 71 -21 c 2,52,-1
 69 208 l 1,53,-1
 67 211 l 1,54,55
 49 221 49 221 38 235 c 0,56,57
 11 262 11 262 11 298 c 0,58,59
 11 326 11 326 26 352 c 128,-1,60
 41 378 41 378 66 391 c 1,61,-1
 68 394 l 1,62,-1
 68 648 l 1,63,-1
 66 682 l 1,64,65
 71 694 71 694 89.5 701.5 c 128,-1,66
 108 709 108 709 125 709 c 0,67,68
 134 709 134 709 141.5 706.5 c 128,-1,69
 149 704 149 704 151 698 c 2,70,-1
 147 389 l 1,71,72
 195 371 195 371 249.5 339.5 c 128,-1,73
 304 308 304 308 354 270 c 1,74,-1
 356 269 l 1,75,76
 386 273 386 273 410.5 277.5 c 128,-1,77
 435 282 435 282 449 286 c 1,78,-1
 450 286 l 2,79,80
 460 288 460 288 467 291 c 1,81,-1
 468 294 l 1,82,-1
 468 517 l 2,83,84
 468 550 468 550 467.5 587.5 c 128,-1,85
 467 625 467 625 467 670 c 2,86,-1
 467 705 l 1,0,1
183 254 m 2,87,88
 199 254 199 254 218 255 c 128,-1,89
 237 256 237 256 262 258 c 1,90,91
 231 278 231 278 203.5 292.5 c 128,-1,92
 176 307 176 307 146 321 c 1,93,-1
 144 255 l 1,94,95
 155 254 155 254 164 254 c 2,96,-1
 183 254 l 2,87,88
467 226 m 1,97,98
 456 221 456 221 446.5 218.5 c 128,-1,99
 437 216 437 216 425 213 c 1,100,-1
 466 168 l 1,101,-1
 467 226 l 1,97,98
EndSplineSet
Validated: 1
EndChar

StartChar: I.cant
Encoding: 259 63030 38
Width: 367
GlyphClass: 1
Flags: W
LayerCount: 2
Fore
SplineSet
82 43 m 1,0,1
 67 41 67 41 67 28 c 0,2,3
 67 14 67 14 89 -3 c 128,-1,4
 111 -20 111 -20 149 -21 c 0,5,6
 185 -21 185 -21 206 5 c 128,-1,7
 227 31 227 31 238.5 71.5 c 128,-1,8
 250 112 250 112 253.5 162 c 128,-1,9
 257 212 257 212 257 260 c 0,10,11
 257 292 257 292 256 320 c 128,-1,12
 255 348 255 348 255 371 c 0,13,14
 255 421 255 421 254 469 c 128,-1,15
 253 517 253 517 251 554.5 c 128,-1,16
 249 592 249 592 246 615.5 c 128,-1,17
 243 639 243 639 239 642 c 1,18,19
 225 637 225 637 220.5 603.5 c 128,-1,20
 216 570 216 570 214.5 517 c 128,-1,21
 213 464 213 464 212 396 c 128,-1,22
 211 328 211 328 206 255 c 2,23,-1
 205 241 l 2,24,25
 205 209 205 209 217 133 c 1,26,27
 183 181 183 181 173 257 c 128,-1,28
 163 333 163 333 163 441 c 2,29,-1
 163 480 l 2,30,31
 163 509 163 509 164.5 549 c 128,-1,32
 166 589 166 589 172 625 c 128,-1,33
 178 661 178 661 189.5 686.5 c 128,-1,34
 201 712 201 712 221 712 c 0,35,36
 240 712 240 712 254 707.5 c 128,-1,37
 268 703 268 703 278 694.5 c 128,-1,38
 288 686 288 686 295 673 c 128,-1,39
 302 660 302 660 309 642 c 0,40,41
 310 640 310 640 314.5 617 c 128,-1,42
 319 594 319 594 324 549.5 c 128,-1,43
 329 505 329 505 333.5 441 c 128,-1,44
 338 377 338 377 338 293 c 0,45,46
 338 261 338 261 335.5 222.5 c 128,-1,47
 333 184 333 184 326 145.5 c 128,-1,48
 319 107 319 107 306 71.5 c 128,-1,49
 293 36 293 36 271.5 8.5 c 128,-1,50
 250 -19 250 -19 220 -35.5 c 128,-1,51
 190 -52 190 -52 148 -52 c 0,52,53
 124 -52 124 -52 101.5 -45.5 c 128,-1,54
 79 -39 79 -39 62 -27.5 c 128,-1,55
 45 -16 45 -16 34.5 -1.5 c 128,-1,56
 24 13 24 13 24 28 c 0,57,58
 24 41 24 41 34.5 48 c 128,-1,59
 45 55 45 55 59 55 c 0,60,61
 67 55 67 55 73 52.5 c 128,-1,62
 79 50 79 50 82 43 c 1,0,1
EndSplineSet
Validated: 1
EndChar

StartChar: K
Encoding: 75 75 39
Width: 546
GlyphClass: 1
Flags: W
LayerCount: 2
Fore
SplineSet
430 664 m 2,0,1
 430 667 430 667 432.5 674.5 c 128,-1,2
 435 682 435 682 440.5 690 c 128,-1,3
 446 698 446 698 455 704 c 128,-1,4
 464 710 464 710 476 710 c 0,5,6
 485 710 485 710 495 705.5 c 128,-1,7
 505 701 505 701 513.5 694 c 128,-1,8
 522 687 522 687 528 677 c 128,-1,9
 534 667 534 667 534 657 c 0,10,11
 534 609 534 609 521 563 c 128,-1,12
 508 517 508 517 484.5 474.5 c 128,-1,13
 461 432 461 432 428.5 395.5 c 128,-1,14
 396 359 396 359 356 331 c 1,15,16
 399 295 399 295 435.5 244.5 c 128,-1,17
 472 194 472 194 495 127 c 0,18,19
 499 116 499 116 502.5 100 c 128,-1,20
 506 84 506 84 508.5 66 c 128,-1,21
 511 48 511 48 512.5 30.5 c 128,-1,22
 514 13 514 13 514 -2 c 256,23,24
 514 -17 514 -17 512.5 -27 c 128,-1,25
 511 -37 511 -37 506 -37 c 0,26,27
 491 -37 491 -37 483.5 -28 c 128,-1,28
 476 -19 476 -19 474 -11 c 0,29,30
 464 35 464 35 444.5 78 c 128,-1,31
 425 121 425 121 399.5 159 c 128,-1,32
 374 197 374 197 344 230 c 128,-1,33
 314 263 314 263 284 290 c 1,34,35
 249 274 249 274 212 265.5 c 128,-1,36
 175 257 175 257 136 257 c 1,37,-1
 140 86 l 1,38,-1
 143 4 l 1,39,40
 138 -19 138 -19 123.5 -26 c 128,-1,41
 109 -33 109 -33 93 -33 c 0,42,43
 85 -33 85 -33 69.5 -29.5 c 128,-1,44
 54 -26 54 -26 50 -8 c 2,45,-1
 45 60 l 1,46,-1
 44 284 l 1,47,48
 30 291 30 291 20 298 c 128,-1,49
 10 305 10 305 10 320 c 0,50,51
 10 376 10 376 44 405 c 1,52,-1
 44 574 l 1,53,-1
 43 592 l 1,54,-1
 43 681 l 2,55,56
 44 694 44 694 55.5 697.5 c 128,-1,57
 67 701 67 701 81 701 c 0,58,59
 92 701 92 701 104.5 693.5 c 128,-1,60
 117 686 117 686 118 666 c 2,61,-1
 127 429 l 1,62,63
 162 427 162 427 206 413.5 c 128,-1,64
 250 400 250 400 295 373 c 1,65,66
 327 398 327 398 355.5 429 c 128,-1,67
 384 460 384 460 412 494 c 0,68,69
 420 503 420 503 432 522 c 128,-1,70
 444 541 444 541 455.5 563.5 c 128,-1,71
 467 586 467 586 475.5 608.5 c 128,-1,72
 484 631 484 631 484 646 c 0,73,74
 484 666 484 666 467 666 c 0,75,76
 459 666 459 666 451.5 662.5 c 128,-1,77
 444 659 444 659 442 642 c 1,78,-1
 430 664 l 2,0,1
133 307 m 1,79,80
 185 310 185 310 231 333 c 1,81,82
 210 348 210 348 192 360 c 0,83,84
 177 369 177 369 162.5 373 c 128,-1,85
 148 377 148 377 135 377 c 2,86,-1
 130 377 l 1,87,-1
 133 307 l 1,79,80
EndSplineSet
Validated: 1
EndChar

StartChar: L
Encoding: 76 76 40
Width: 480
GlyphClass: 1
Flags: W
LayerCount: 2
Fore
SplineSet
167 114 m 1,0,1
 150 125 150 125 137 127 c 128,-1,2
 124 129 124 129 115 129 c 0,3,4
 98 129 98 129 80 113.5 c 128,-1,5
 62 98 62 98 62 71 c 0,6,7
 62 57 62 57 68 46 c 128,-1,8
 74 35 74 35 87 35 c 0,9,10
 105 35 105 35 129.5 52.5 c 128,-1,11
 154 70 154 70 167 114 c 1,0,1
231 156 m 1,12,13
 261 141 261 141 295 122.5 c 128,-1,14
 329 104 329 104 363 81.5 c 128,-1,15
 397 59 397 59 427.5 32 c 128,-1,16
 458 5 458 5 481 -25 c 0,17,18
 487 -33 487 -33 487 -38 c 0,19,20
 487 -48 487 -48 472.5 -51.5 c 128,-1,21
 458 -55 458 -55 441 -55 c 0,22,23
 433 -55 433 -55 416.5 -50.5 c 128,-1,24
 400 -46 400 -46 386 -38 c 0,25,26
 364 -26 364 -26 340.5 -7.5 c 128,-1,27
 317 11 317 11 294 30 c 128,-1,28
 271 49 271 49 248.5 66.5 c 128,-1,29
 226 84 226 84 206 94 c 1,30,31
 186 45 186 45 157 18.5 c 128,-1,32
 128 -8 128 -8 83 -8 c 0,33,34
 55 -8 55 -8 35.5 11 c 128,-1,35
 16 30 16 30 16 65 c 0,36,37
 16 87 16 87 24 108 c 128,-1,38
 32 129 32 129 45 145.5 c 128,-1,39
 58 162 58 162 74 171.5 c 128,-1,40
 90 181 90 181 106 181 c 0,41,42
 135 181 135 181 152 177.5 c 128,-1,43
 169 174 169 174 184 170 c 1,44,45
 195 199 195 199 202.5 236.5 c 128,-1,46
 210 274 210 274 215 311.5 c 128,-1,47
 220 349 220 349 222 383 c 128,-1,48
 224 417 224 417 224 439 c 0,49,50
 224 479 224 479 218.5 516.5 c 128,-1,51
 213 554 213 554 205.5 587 c 128,-1,52
 198 620 198 620 190.5 647.5 c 128,-1,53
 183 675 183 675 178 697 c 1,54,55
 178 716 178 716 183 722 c 128,-1,56
 188 728 188 728 207 728 c 0,57,58
 241 728 241 728 260 709 c 128,-1,59
 279 690 279 690 288 661.5 c 128,-1,60
 297 633 297 633 299 600 c 128,-1,61
 301 567 301 567 301 540 c 0,62,63
 301 488 301 488 295.5 439.5 c 128,-1,64
 290 391 290 391 280.5 344 c 128,-1,65
 271 297 271 297 258.5 250.5 c 128,-1,66
 246 204 246 204 231 156 c 1,12,13
EndSplineSet
Validated: 1
EndChar

StartChar: N
Encoding: 78 78 41
Width: 564
GlyphClass: 1
Flags: W
LayerCount: 2
Fore
SplineSet
370 719 m 1,0,1
 464 629 464 629 508.5 521.5 c 128,-1,2
 553 414 553 414 553 284 c 0,3,4
 553 251 553 251 550.5 205.5 c 128,-1,5
 548 160 548 160 538 116 c 128,-1,6
 528 72 528 72 508 36 c 128,-1,7
 488 0 488 0 453 -13 c 1,8,9
 435 -12 435 -12 409 5.5 c 128,-1,10
 383 23 383 23 354.5 53.5 c 128,-1,11
 326 84 326 84 295.5 124 c 128,-1,12
 265 164 265 164 237 209.5 c 128,-1,13
 209 255 209 255 185.5 304 c 128,-1,14
 162 353 162 353 146 400 c 1,15,16
 142 344 142 344 137 298.5 c 128,-1,17
 132 253 132 253 124 210 c 128,-1,18
 116 167 116 167 104.5 122.5 c 128,-1,19
 93 78 93 78 78 25 c 0,20,21
 74 11 74 11 67.5 -1 c 128,-1,22
 61 -13 61 -13 40 -13 c 0,23,24
 32 -13 32 -13 26 -6.5 c 128,-1,25
 20 0 20 0 15 9.5 c 128,-1,26
 10 19 10 19 7.5 31 c 128,-1,27
 5 43 5 43 5 55 c 2,28,-1
 5 64 l 2,29,30
 5 69 5 69 7 74 c 0,31,32
 18 112 18 112 29 160 c 128,-1,33
 40 208 40 208 51 262.5 c 128,-1,34
 62 317 62 317 73.5 375.5 c 128,-1,35
 85 434 85 434 97 494 c 1,36,37
 84 532 84 532 79.5 565.5 c 128,-1,38
 75 599 75 599 75 624 c 0,39,40
 75 656 75 656 88.5 673.5 c 128,-1,41
 102 691 102 691 121 691 c 256,42,43
 140 691 140 691 147.5 669.5 c 128,-1,44
 155 648 155 648 157.5 620 c 128,-1,45
 160 592 160 592 159 564.5 c 128,-1,46
 158 537 158 537 161 525 c 1,47,-1
 162 524 l 1,48,49
 175 495 175 495 196 453 c 128,-1,50
 217 411 217 411 243 365 c 128,-1,51
 269 319 269 319 297 273.5 c 128,-1,52
 325 228 325 228 352 191.5 c 128,-1,53
 379 155 379 155 403 132.5 c 128,-1,54
 427 110 427 110 445 110 c 1,55,56
 457 150 457 150 462.5 190 c 128,-1,57
 468 230 468 230 468 270 c 0,58,59
 468 325 468 325 459 380 c 128,-1,60
 450 435 450 435 435 488.5 c 128,-1,61
 420 542 420 542 400.5 593 c 128,-1,62
 381 644 381 644 361 692 c 0,63,64
 361 699 361 699 363.5 705 c 128,-1,65
 366 711 366 711 370 719 c 1,0,1
112 629 m 256,66,67
 112 617 112 617 121 599 c 1,68,69
 126 622 126 622 126 638 c 0,70,71
 126 643 126 643 125 647 c 128,-1,72
 124 651 124 651 121 651 c 0,73,74
 114 651 114 651 113 646 c 128,-1,75
 112 641 112 641 112 629 c 256,66,67
EndSplineSet
Validated: 33
EndChar

StartChar: O
Encoding: 79 79 42
Width: 557
GlyphClass: 1
Flags: W
LayerCount: 2
Fore
SplineSet
469 483 m 0,0,1
 469 504 469 504 466.5 523 c 128,-1,2
 464 542 464 542 459 559 c 1,3,4
 435 539 435 539 413.5 515 c 128,-1,5
 392 491 392 491 376 464 c 128,-1,6
 360 437 360 437 351 409 c 128,-1,7
 342 381 342 381 342 354 c 0,8,9
 342 325 342 325 351.5 311 c 128,-1,10
 361 297 361 297 375 297 c 0,11,12
 390 297 390 297 407 312.5 c 128,-1,13
 424 328 424 328 437.5 354 c 128,-1,14
 451 380 451 380 460 413.5 c 128,-1,15
 469 447 469 447 469 483 c 0,0,1
265 368 m 0,16,17
 265 402 265 402 279 437 c 128,-1,18
 293 472 293 472 316.5 503.5 c 128,-1,19
 340 535 340 535 371.5 562.5 c 128,-1,20
 403 590 403 590 438 611 c 1,21,22
 421 641 421 641 398 657.5 c 128,-1,23
 375 674 375 674 351 674 c 0,24,25
 295 674 295 674 250.5 642.5 c 128,-1,26
 206 611 206 611 175 559.5 c 128,-1,27
 144 508 144 508 127.5 441.5 c 128,-1,28
 111 375 111 375 111 306 c 0,29,30
 111 256 111 256 121 212 c 128,-1,31
 131 168 131 168 152 134 c 128,-1,32
 173 100 173 100 207 80.5 c 128,-1,33
 241 61 241 61 289 61 c 0,34,35
 328 61 328 61 365 89.5 c 128,-1,36
 402 118 402 118 431.5 163 c 128,-1,37
 461 208 461 208 480.5 263 c 128,-1,38
 500 318 500 318 506 371 c 1,39,40
 495 348 495 348 481 328 c 128,-1,41
 467 308 467 308 449 292 c 128,-1,42
 431 276 431 276 408.5 267 c 128,-1,43
 386 258 386 258 359 258 c 0,44,45
 310 258 310 258 287.5 286 c 128,-1,46
 265 314 265 314 265 368 c 0,16,17
670 588 m 0,47,48
 670 575 670 575 665.5 566.5 c 128,-1,49
 661 558 661 558 653 558 c 256,50,51
 645 558 645 558 641.5 562.5 c 128,-1,52
 638 567 638 567 635 576 c 0,53,54
 629 596 629 596 613.5 603 c 128,-1,55
 598 610 598 610 579 610 c 0,56,57
 552 610 552 610 521 597 c 1,58,59
 539 552 539 552 539 503 c 0,60,61
 539 485 539 485 534 457 c 1,62,63
 538 454 538 454 541 445.5 c 128,-1,64
 544 437 544 437 546 426.5 c 128,-1,65
 548 416 548 416 549.5 405 c 128,-1,66
 551 394 551 394 551 387 c 0,67,68
 551 347 551 347 543.5 300.5 c 128,-1,69
 536 254 536 254 520.5 208 c 128,-1,70
 505 162 505 162 481.5 119.5 c 128,-1,71
 458 77 458 77 426 44 c 128,-1,72
 394 11 394 11 353 -8.5 c 128,-1,73
 312 -28 312 -28 262 -28 c 0,74,75
 199 -28 199 -28 152.5 4.5 c 128,-1,76
 106 37 106 37 76 87.5 c 128,-1,77
 46 138 46 138 31 198 c 128,-1,78
 16 258 16 258 16 314 c 0,79,80
 16 386 16 386 39.5 459.5 c 128,-1,81
 63 533 63 533 106 592.5 c 128,-1,82
 149 652 149 652 210.5 689.5 c 128,-1,83
 272 727 272 727 349 727 c 0,84,85
 400 727 400 727 437.5 702 c 128,-1,86
 475 677 475 677 499 639 c 1,87,88
 520 647 520 647 541 651 c 128,-1,89
 562 655 562 655 582 655 c 0,90,91
 595 655 595 655 610 651 c 128,-1,92
 625 647 625 647 638.5 638.5 c 128,-1,93
 652 630 652 630 661 617.5 c 128,-1,94
 670 605 670 605 670 588 c 0,47,48
EndSplineSet
Validated: 1
EndChar

StartChar: P
Encoding: 80 80 43
Width: 517
GlyphClass: 1
Flags: W
LayerCount: 2
Fore
SplineSet
13 658 m 1,0,1
 42 687 42 687 85 702.5 c 128,-1,2
 128 718 128 718 179 718 c 0,3,4
 221 718 221 718 269 708 c 128,-1,5
 317 698 317 698 364 679 c 128,-1,6
 411 660 411 660 454 633.5 c 128,-1,7
 497 607 497 607 530 573.5 c 128,-1,8
 563 540 563 540 582.5 500.5 c 128,-1,9
 602 461 602 461 602 417 c 0,10,11
 602 374 602 374 574.5 337 c 128,-1,12
 547 300 547 300 502 272.5 c 128,-1,13
 457 245 457 245 400 229.5 c 128,-1,14
 343 214 343 214 284 214 c 0,15,16
 276 214 276 214 266.5 214.5 c 128,-1,17
 257 215 257 215 235 218 c 1,18,19
 234 206 234 206 234 191 c 2,20,-1
 234 159 l 2,21,22
 234 131 234 131 235 96.5 c 128,-1,23
 236 62 236 62 238 18 c 0,24,25
 237 -1 237 -1 222.5 -17 c 128,-1,26
 208 -33 208 -33 190 -38 c 0,27,28
 181 -38 181 -38 178 -33.5 c 128,-1,29
 175 -29 175 -29 167 -18 c 1,30,31
 165 -7 165 -7 163 3 c 128,-1,32
 161 13 161 13 159 24 c 0,33,34
 158 33 158 33 157.5 46 c 128,-1,35
 157 59 157 59 157 76 c 2,36,-1
 159 212 l 1,37,-1
 159 234 l 1,38,39
 139 240 139 240 115 252 c 128,-1,40
 91 264 91 264 70.5 280.5 c 128,-1,41
 50 297 50 297 36 316.5 c 128,-1,42
 22 336 22 336 22 357 c 0,43,44
 22 390 22 390 46.5 417.5 c 128,-1,45
 71 445 71 445 122 459 c 0,46,47
 126 460 126 460 138.5 463.5 c 128,-1,48
 151 467 151 467 155 467 c 0,49,50
 156 487 156 487 156 505.5 c 128,-1,51
 156 524 156 524 158 539 c 0,52,53
 160 558 160 558 165 576 c 128,-1,54
 170 594 170 594 190 614 c 1,55,56
 196 610 196 610 201 601.5 c 128,-1,57
 206 593 206 593 210.5 583.5 c 128,-1,58
 215 574 215 574 218 564.5 c 128,-1,59
 221 555 221 555 221 549 c 2,60,-1
 228 466 l 1,61,62
 261 466 261 466 283 460.5 c 128,-1,63
 305 455 305 455 317.5 446 c 128,-1,64
 330 437 330 437 335 426 c 128,-1,65
 340 415 340 415 340 403 c 0,66,67
 340 371 340 371 310 368 c 1,68,69
 313 375 313 375 313 382 c 0,70,71
 313 398 313 398 295.5 404 c 128,-1,72
 278 410 278 410 230 410 c 1,73,-1
 232 287 l 1,74,75
 255 283 255 283 280 283 c 0,76,77
 306 283 306 283 346.5 290 c 128,-1,78
 387 297 387 297 425.5 312 c 128,-1,79
 464 327 464 327 491.5 351.5 c 128,-1,80
 519 376 519 376 519 412 c 0,81,82
 519 455 519 455 497.5 489.5 c 128,-1,83
 476 524 476 524 441.5 550.5 c 128,-1,84
 407 577 407 577 365 596.5 c 128,-1,85
 323 616 323 616 281 628 c 128,-1,86
 239 640 239 640 202 646 c 128,-1,87
 165 652 165 652 142 652 c 0,88,89
 113 652 113 652 79 650.5 c 128,-1,90
 45 649 45 649 15 647 c 1,91,-1
 13 658 l 1,0,1
156 410 m 1,92,93
 146 410 146 410 131.5 409.5 c 128,-1,94
 117 409 117 409 109 407 c 0,95,96
 90 403 90 403 75.5 394.5 c 128,-1,97
 61 386 61 386 61 370 c 0,98,99
 61 356 61 356 71 346 c 128,-1,100
 81 336 81 336 95.5 328.5 c 128,-1,101
 110 321 110 321 126.5 315.5 c 128,-1,102
 143 310 143 310 156 307 c 1,103,-1
 156 410 l 1,92,93
EndSplineSet
Validated: 1
EndChar

StartChar: Q
Encoding: 81 81 44
Width: 667
GlyphClass: 1
Flags: W
LayerCount: 2
Fore
SplineSet
259 690 m 1,0,1
 251 679 251 679 245.5 664.5 c 128,-1,2
 240 650 240 650 240 633 c 2,3,-1
 240 626 l 1,4,5
 216 605 216 605 191 579 c 128,-1,6
 166 553 166 553 145 517 c 128,-1,7
 124 481 124 481 111 433 c 128,-1,8
 98 385 98 385 98 320 c 0,9,10
 98 257 98 257 114 207.5 c 128,-1,11
 130 158 130 158 159 122 c 1,12,13
 172 145 172 145 194.5 162 c 128,-1,14
 217 179 217 179 243 184 c 0,15,16
 253 186 253 186 263 187 c 128,-1,17
 273 188 273 188 282 188 c 0,18,19
 311 188 311 188 336.5 180 c 128,-1,20
 362 172 362 172 385.5 159 c 128,-1,21
 409 146 409 146 430 129.5 c 128,-1,22
 451 113 451 113 471 96 c 1,23,24
 512 136 512 136 535 195.5 c 128,-1,25
 558 255 558 255 558 322 c 0,26,27
 558 378 558 378 541 438 c 128,-1,28
 524 498 524 498 497.5 547.5 c 128,-1,29
 471 597 471 597 439 628.5 c 128,-1,30
 407 660 407 660 376 660 c 2,31,-1
 374 660 l 2,32,33
 351 659 351 659 341.5 650.5 c 128,-1,34
 332 642 332 642 332 628 c 0,35,36
 332 615 332 615 340 600 c 128,-1,37
 348 585 348 585 360.5 572.5 c 128,-1,38
 373 560 373 560 389.5 551.5 c 128,-1,39
 406 543 406 543 423 543 c 1,40,-1
 406 511 l 2,41,42
 400 508 400 508 390 508 c 0,43,44
 379 508 379 508 366.5 510.5 c 128,-1,45
 354 513 354 513 346 514 c 0,46,47
 330 516 330 516 314.5 530 c 128,-1,48
 299 544 299 544 286.5 561 c 128,-1,49
 274 578 274 578 266.5 595.5 c 128,-1,50
 259 613 259 613 259 622 c 0,51,52
 259 651 259 651 269.5 671 c 128,-1,53
 280 691 280 691 297.5 703 c 128,-1,54
 315 715 315 715 338 720 c 128,-1,55
 361 725 361 725 386 725 c 0,56,57
 422 725 422 725 466.5 695.5 c 128,-1,58
 511 666 511 666 549.5 612.5 c 128,-1,59
 588 559 588 559 614 484.5 c 128,-1,60
 640 410 640 410 640 320 c 0,61,62
 640 232 640 232 609 163 c 128,-1,63
 578 94 578 94 528 47 c 1,64,65
 545 34 545 34 562 23.5 c 128,-1,66
 579 13 579 13 597 7 c 0,67,68
 610 2 610 2 627 2 c 0,69,70
 646 2 646 2 653 9 c 1,71,-1
 653 3 l 2,72,73
 653 -14 653 -14 642.5 -31.5 c 128,-1,74
 632 -49 632 -49 618 -50 c 0,75,76
 613 -51 613 -51 609 -51 c 2,77,-1
 600 -51 l 2,78,79
 562 -51 562 -51 530.5 -35 c 128,-1,80
 499 -19 499 -19 470 4 c 1,81,82
 410 -30 410 -30 344 -30 c 0,83,84
 266 -30 266 -30 204.5 -4.5 c 128,-1,85
 143 21 143 21 100.5 67.5 c 128,-1,86
 58 114 58 114 35.5 178.5 c 128,-1,87
 13 243 13 243 13 320 c 0,88,89
 13 366 13 366 17.5 404.5 c 128,-1,90
 22 443 22 443 35.5 480.5 c 128,-1,91
 49 518 49 518 73.5 557 c 128,-1,92
 98 596 98 596 137 643 c 0,93,94
 160 670 160 670 192.5 684.5 c 128,-1,95
 225 699 225 699 251 703 c 1,96,-1
 259 690 l 1,0,1
411 55 m 1,97,98
 394 69 394 69 377.5 82 c 128,-1,99
 361 95 361 95 342 103 c 0,100,101
 327 109 327 109 306.5 113.5 c 128,-1,102
 286 118 286 118 266 118 c 256,103,104
 246 118 246 118 230 109.5 c 128,-1,105
 214 101 214 101 207 78 c 1,106,107
 266 41 266 41 344 41 c 0,108,109
 378 41 378 41 411 55 c 1,97,98
EndSplineSet
Validated: 1
EndChar

StartChar: R
Encoding: 82 82 45
Width: 667
GlyphClass: 1
Flags: W
LayerCount: 2
Fore
SplineSet
137 542 m 2,0,1
 138 560 138 560 151.5 569 c 128,-1,2
 165 578 165 578 179 578 c 0,3,4
 191 578 191 578 200.5 571.5 c 128,-1,5
 210 565 210 565 210 550 c 0,6,7
 212 522 212 522 212.5 500.5 c 128,-1,8
 213 479 213 479 213 453 c 2,9,-1
 213 421 l 1,10,11
 267 420 267 420 321.5 401.5 c 128,-1,12
 376 383 376 383 422 353 c 1,13,14
 449 365 449 365 473 381.5 c 128,-1,15
 497 398 497 398 515 418 c 128,-1,16
 533 438 533 438 543 462 c 128,-1,17
 553 486 553 486 553 513 c 0,18,19
 553 553 553 553 527 577.5 c 128,-1,20
 501 602 501 602 466.5 615.5 c 128,-1,21
 432 629 432 629 398 633.5 c 128,-1,22
 364 638 364 638 348 638 c 0,23,24
 317 638 317 638 274.5 633 c 128,-1,25
 232 628 232 628 193 618.5 c 128,-1,26
 154 609 154 609 126 596 c 128,-1,27
 98 583 98 583 97 568 c 2,28,-1
 97 562 l 2,29,30
 97 551 97 551 102.5 545 c 128,-1,31
 108 539 108 539 119 530 c 1,32,33
 103 526 103 526 87 526 c 0,34,35
 59 526 59 526 46 540.5 c 128,-1,36
 33 555 33 555 33 574 c 0,37,38
 33 600 33 600 53 620.5 c 128,-1,39
 73 641 73 641 105 657 c 128,-1,40
 137 673 137 673 176 684 c 128,-1,41
 215 695 215 695 253 702 c 128,-1,42
 291 709 291 709 323.5 712.5 c 128,-1,43
 356 716 356 716 374 716 c 0,44,45
 417 716 417 716 464 704.5 c 128,-1,46
 511 693 511 693 550 668.5 c 128,-1,47
 589 644 589 644 614 606 c 128,-1,48
 639 568 639 568 639 516 c 0,49,50
 639 476 639 476 627 441 c 128,-1,51
 615 406 615 406 595.5 377 c 128,-1,52
 576 348 576 348 551 325 c 128,-1,53
 526 302 526 302 500 286 c 1,54,55
 518 262 518 262 534 240 c 128,-1,56
 550 218 550 218 567 188 c 128,-1,57
 584 158 584 158 603.5 114 c 128,-1,58
 623 70 623 70 647 3 c 0,59,60
 650 -5 650 -5 650 -11 c 0,61,62
 650 -21 650 -21 645.5 -27.5 c 128,-1,63
 641 -34 641 -34 633 -34 c 0,64,65
 619 -34 619 -34 607 -12 c 0,66,67
 580 36 580 36 556.5 73.5 c 128,-1,68
 533 111 533 111 509.5 141.5 c 128,-1,69
 486 172 486 172 460.5 198.5 c 128,-1,70
 435 225 435 225 404 252 c 1,71,72
 366 238 366 238 318.5 230 c 128,-1,73
 271 222 271 222 226 222 c 2,74,-1
 206 222 l 1,75,76
 205 198 205 198 205 181 c 2,77,-1
 205 139 l 2,78,79
 205 113 205 113 206 86 c 128,-1,80
 207 59 207 59 210 31 c 2,81,-1
 210 26 l 2,82,83
 210 5 210 5 198.5 -6.5 c 128,-1,84
 187 -18 187 -18 173 -18 c 256,85,86
 159 -18 159 -18 148.5 -8 c 128,-1,87
 138 2 138 2 136 23 c 0,88,89
 130 74 130 74 130 115 c 0,90,91
 130 144 130 144 131.5 172.5 c 128,-1,92
 133 201 133 201 135 234 c 1,93,94
 109 242 109 242 96.5 268.5 c 128,-1,95
 84 295 84 295 84 325 c 0,96,97
 84 341 84 341 87.5 356 c 128,-1,98
 91 371 91 371 98 383 c 128,-1,99
 105 395 105 395 115 403 c 128,-1,100
 125 411 125 411 138 412 c 1,101,-1
 138 495 l 2,102,103
 138 511 138 511 136 532 c 1,104,-1
 137 542 l 2,0,1
206 302 m 1,105,106
 212 301 212 301 220 300.5 c 128,-1,107
 228 300 228 300 238 300 c 0,108,109
 251 300 251 300 266 301 c 128,-1,110
 281 302 281 302 294.5 304 c 128,-1,111
 308 306 308 306 318 308.5 c 128,-1,112
 328 311 328 311 332 315 c 1,113,114
 326 322 326 322 315.5 326.5 c 128,-1,115
 305 331 305 331 292 334 c 128,-1,116
 279 337 279 337 265 338 c 128,-1,117
 251 339 251 339 238 339 c 0,118,119
 229 339 229 339 220.5 338.5 c 128,-1,120
 212 338 212 338 207 337 c 1,121,-1
 205 323 l 1,122,-1
 206 302 l 1,105,106
EndSplineSet
Validated: 1
EndChar

StartChar: S
Encoding: 83 83 46
Width: 646
GlyphClass: 1
Flags: W
LayerCount: 2
Fore
SplineSet
413 198 m 1,0,1
 413 183 413 183 396 173.5 c 128,-1,2
 379 164 379 164 362 164 c 0,3,4
 348 164 348 164 341 170 c 0,5,6
 309 198 309 198 271.5 219 c 128,-1,7
 234 240 234 240 176 240 c 0,8,9
 158 240 158 240 139.5 236.5 c 128,-1,10
 121 233 121 233 105 224 c 128,-1,11
 89 215 89 215 79 199.5 c 128,-1,12
 69 184 69 184 69 160 c 0,13,14
 69 139 69 139 83 122.5 c 128,-1,15
 97 106 97 106 119 93 c 128,-1,16
 141 80 141 80 168 70.5 c 128,-1,17
 195 61 195 61 220.5 55 c 128,-1,18
 246 49 246 49 267 46 c 128,-1,19
 288 43 288 43 299 43 c 0,20,21
 371 43 371 43 418.5 64 c 128,-1,22
 466 85 466 85 493.5 115 c 128,-1,23
 521 145 521 145 532 177.5 c 128,-1,24
 543 210 543 210 543 233 c 0,25,26
 543 275 543 275 522.5 299.5 c 128,-1,27
 502 324 502 324 468.5 337 c 128,-1,28
 435 350 435 350 392 355 c 128,-1,29
 349 360 349 360 304 363.5 c 128,-1,30
 259 367 259 367 216 372.5 c 128,-1,31
 173 378 173 378 139.5 392 c 128,-1,32
 106 406 106 406 85.5 432 c 128,-1,33
 65 458 65 458 65 503 c 0,34,35
 65 558 65 558 96 599.5 c 128,-1,36
 127 641 127 641 177.5 669 c 128,-1,37
 228 697 228 697 292 710.5 c 128,-1,38
 356 724 356 724 422 724 c 0,39,40
 481 724 481 724 526 701.5 c 128,-1,41
 571 679 571 679 593 634 c 0,42,43
 597 627 597 627 597 618 c 0,44,45
 597 605 597 605 589 593.5 c 128,-1,46
 581 582 581 582 569 573 c 128,-1,47
 557 564 557 564 544.5 559 c 128,-1,48
 532 554 532 554 523 554 c 2,49,-1
 517 555 l 2,50,51
 515 555 515 555 515 557 c 0,52,53
 515 558 515 558 516 559 c 0,54,55
 521 566 521 566 529 577 c 128,-1,56
 537 588 537 588 537 599 c 0,57,58
 537 603 537 603 536 605 c 0,59,60
 534 610 534 610 522 616.5 c 128,-1,61
 510 623 510 623 490.5 628.5 c 128,-1,62
 471 634 471 634 444 638 c 128,-1,63
 417 642 417 642 386 642 c 0,64,65
 354 642 354 642 314.5 635.5 c 128,-1,66
 275 629 275 629 240 613.5 c 128,-1,67
 205 598 205 598 181 572 c 128,-1,68
 157 546 157 546 157 507 c 0,69,70
 157 476 157 476 177.5 459.5 c 128,-1,71
 198 443 198 443 231 435.5 c 128,-1,72
 264 428 264 428 307 424.5 c 128,-1,73
 350 421 350 421 394 416.5 c 128,-1,74
 438 412 438 412 481 401.5 c 128,-1,75
 524 391 524 391 557 368.5 c 128,-1,76
 590 346 590 346 610.5 308 c 128,-1,77
 631 270 631 270 631 209 c 0,78,79
 631 142 631 142 597.5 96 c 128,-1,80
 564 50 564 50 517 21.5 c 128,-1,81
 470 -7 470 -7 420 -19.5 c 128,-1,82
 370 -32 370 -32 337 -32 c 0,83,84
 313 -32 313 -32 281 -26.5 c 128,-1,85
 249 -21 249 -21 215 -10.5 c 128,-1,86
 181 0 181 0 148.5 16 c 128,-1,87
 116 32 116 32 90.5 52.5 c 128,-1,88
 65 73 65 73 49.5 99 c 128,-1,89
 34 125 34 125 34 156 c 0,90,91
 34 192 34 192 50.5 217.5 c 128,-1,92
 67 243 67 243 92.5 259 c 128,-1,93
 118 275 118 275 148.5 282.5 c 128,-1,94
 179 290 179 290 208 290 c 256,95,96
 237 290 237 290 264 287 c 128,-1,97
 291 284 291 284 316.5 274 c 128,-1,98
 342 264 342 264 366 246 c 128,-1,99
 390 228 390 228 413 198 c 1,0,1
EndSplineSet
Validated: 1
EndChar

StartChar: T
Encoding: 84 84 47
Width: 503
GlyphClass: 1
Flags: W
LayerCount: 2
Fore
SplineSet
535 607 m 0,0,1
 501 599 501 599 466 583.5 c 128,-1,2
 431 568 431 568 402 546 c 1,3,4
 411 545 411 545 420.5 545 c 128,-1,5
 430 545 430 545 438 545 c 0,6,7
 488 545 488 545 532.5 560 c 128,-1,8
 577 575 577 575 603 617 c 1,9,10
 584 617 584 617 565 613 c 128,-1,11
 546 609 546 609 535 607 c 0,0,1
326 -102 m 0,12,13
 309 -100 309 -100 293.5 -91.5 c 128,-1,14
 278 -83 278 -83 267 -69 c 0,15,16
 244 -39 244 -39 225 -1.5 c 128,-1,17
 206 36 206 36 192.5 76.5 c 128,-1,18
 179 117 179 117 172 158 c 128,-1,19
 165 199 165 199 165 234 c 0,20,21
 165 309 165 309 189.5 374.5 c 128,-1,22
 214 440 214 440 256 503 c 1,23,24
 211 518 211 518 165.5 538.5 c 128,-1,25
 120 559 120 559 87 577 c 0,26,27
 75 584 75 584 62 593 c 128,-1,28
 49 602 49 602 38.5 613 c 128,-1,29
 28 624 28 624 21 636.5 c 128,-1,30
 14 649 14 649 14 664 c 0,31,32
 14 681 14 681 30.5 696 c 128,-1,33
 47 711 47 711 69 711 c 2,34,-1
 73 711 l 2,35,36
 78 711 78 711 78.5 708.5 c 128,-1,37
 79 706 79 706 79 704 c 0,38,39
 79 699 79 699 77 697 c 0,40,41
 55 674 55 674 55 661 c 0,42,43
 55 654 55 654 62.5 647 c 128,-1,44
 70 640 70 640 82 631 c 0,45,46
 96 620 96 620 120 609 c 128,-1,47
 144 598 144 598 173.5 589 c 128,-1,48
 203 580 203 580 235.5 572 c 128,-1,49
 268 564 268 564 298 559 c 1,50,51
 363 622 363 622 448.5 656 c 128,-1,52
 534 690 534 690 624 690 c 0,53,54
 633 690 633 690 644 689 c 128,-1,55
 655 688 655 688 664.5 685 c 128,-1,56
 674 682 674 682 680.5 675.5 c 128,-1,57
 687 669 687 669 687 657 c 0,58,59
 687 609 687 609 661.5 574.5 c 128,-1,60
 636 540 636 540 597.5 517.5 c 128,-1,61
 559 495 559 495 514.5 484.5 c 128,-1,62
 470 474 470 474 432 474 c 0,63,64
 386 474 386 474 340 483 c 1,65,66
 300 416 300 416 276 334.5 c 128,-1,67
 252 253 252 253 252 171 c 0,68,69
 252 105 252 105 269.5 48 c 128,-1,70
 287 -9 287 -9 322 -61 c 0,71,72
 330 -72 330 -72 334.5 -79 c 128,-1,73
 339 -86 339 -86 339 -92 c 0,74,75
 339 -102 339 -102 326 -102 c 0,12,13
EndSplineSet
Validated: 1
EndChar

StartChar: U
Encoding: 85 85 48
Width: 634
GlyphClass: 1
Flags: W
LayerCount: 2
Fore
SplineSet
477 407 m 0,0,1
 477 342 477 342 481.5 296.5 c 128,-1,2
 486 251 486 251 498 212 c 1,3,4
 514 252 514 252 523 300 c 128,-1,5
 532 348 532 348 532 405 c 0,6,7
 532 486 532 486 530.5 531.5 c 128,-1,8
 529 577 529 577 526.5 599 c 128,-1,9
 524 621 524 621 521 625.5 c 128,-1,10
 518 630 518 630 515 630 c 0,11,12
 509 630 509 630 504 614.5 c 128,-1,13
 499 599 499 599 494.5 575.5 c 128,-1,14
 490 552 490 552 487 524 c 128,-1,15
 484 496 484 496 481.5 471.5 c 128,-1,16
 479 447 479 447 478 429 c 128,-1,17
 477 411 477 411 477 407 c 0,0,1
115 697 m 1,18,19
 130 709 130 709 137 709 c 0,20,21
 145 709 145 709 145 696 c 0,22,23
 145 686 145 686 141 671 c 128,-1,24
 137 656 137 656 132 637 c 0,25,26
 116 582 116 582 107.5 524 c 128,-1,27
 99 466 99 466 99 404 c 0,28,29
 99 336 99 336 106 269 c 128,-1,30
 113 202 113 202 133.5 149 c 128,-1,31
 154 96 154 96 191.5 63 c 128,-1,32
 229 30 229 30 290 30 c 0,33,34
 328 30 328 30 370 53 c 128,-1,35
 412 76 412 76 448 124 c 1,36,37
 434 156 434 156 424.5 188.5 c 128,-1,38
 415 221 415 221 410 258 c 128,-1,39
 405 295 405 295 403 337.5 c 128,-1,40
 401 380 401 380 401 432 c 0,41,42
 401 447 401 447 403.5 473.5 c 128,-1,43
 406 500 406 500 411.5 530.5 c 128,-1,44
 417 561 417 561 425.5 592.5 c 128,-1,45
 434 624 434 624 445.5 649.5 c 128,-1,46
 457 675 457 675 471.5 691.5 c 128,-1,47
 486 708 486 708 505 708 c 0,48,49
 531 708 531 708 548.5 691.5 c 128,-1,50
 566 675 566 675 577.5 649 c 128,-1,51
 589 623 589 623 595.5 589 c 128,-1,52
 602 555 602 555 605 521 c 128,-1,53
 608 487 608 487 608.5 454.5 c 128,-1,54
 609 422 609 422 609 398 c 0,55,56
 609 329 609 329 590 256.5 c 128,-1,57
 571 184 571 184 535 121 c 1,58,59
 555 82 555 82 587 29 c 1,60,61
 603 16 603 16 603 -3 c 0,62,63
 603 -19 603 -19 592.5 -31.5 c 128,-1,64
 582 -44 582 -44 567 -44 c 0,65,66
 556 -44 556 -44 544 -35 c 1,67,68
 527 -11 527 -11 512.5 10.5 c 128,-1,69
 498 32 498 32 486 52 c 1,70,71
 447 7 447 7 396.5 -20.5 c 128,-1,72
 346 -48 346 -48 286 -48 c 0,73,74
 207 -48 207 -48 156 -15.5 c 128,-1,75
 105 17 105 17 75.5 73 c 128,-1,76
 46 129 46 129 34.5 203.5 c 128,-1,77
 23 278 23 278 23 362 c 0,78,79
 23 454 23 454 46.5 541 c 128,-1,80
 70 628 70 628 115 697 c 1,18,19
EndSplineSet
Validated: 1
EndChar

StartChar: V
Encoding: 86 86 49
Width: 516
GlyphClass: 1
Flags: W
LayerCount: 2
Fore
SplineSet
108 717 m 1,0,1
 108 672 108 672 101 633.5 c 128,-1,2
 94 595 94 595 94 561 c 0,3,4
 100 441 100 441 127.5 354.5 c 128,-1,5
 155 268 155 268 190 212.5 c 128,-1,6
 225 157 225 157 260.5 130.5 c 128,-1,7
 296 104 296 104 319 104 c 0,8,9
 330 104 330 104 343.5 123.5 c 128,-1,10
 357 143 357 143 371.5 175.5 c 128,-1,11
 386 208 386 208 400 249.5 c 128,-1,12
 414 291 414 291 426 334 c 128,-1,13
 438 377 438 377 447 418 c 128,-1,14
 456 459 456 459 461 492 c 0,15,16
 462 504 462 504 467.5 528 c 128,-1,17
 473 552 473 552 481.5 576 c 128,-1,18
 490 600 490 600 500 618.5 c 128,-1,19
 510 637 510 637 521 637 c 0,20,21
 541 637 541 637 546.5 629 c 128,-1,22
 552 621 552 621 552 600 c 0,23,24
 550 519 550 519 537 434 c 128,-1,25
 524 349 524 349 498.5 269 c 128,-1,26
 473 189 473 189 436.5 120 c 128,-1,27
 400 51 400 51 352 2 c 0,28,29
 345 0 345 0 337 0 c 2,30,-1
 302 0 l 2,31,32
 294 0 294 0 288 2 c 0,33,34
 277 8 277 8 252.5 23 c 128,-1,35
 228 38 228 38 198 64 c 128,-1,36
 168 90 168 90 136 129 c 128,-1,37
 104 168 104 168 77.5 223 c 128,-1,38
 51 278 51 278 34 350.5 c 128,-1,39
 17 423 17 423 17 516 c 0,40,41
 17 527 17 527 21 555.5 c 128,-1,42
 25 584 25 584 34.5 617 c 128,-1,43
 44 650 44 650 60 680.5 c 128,-1,44
 76 711 76 711 100 725 c 1,45,-1
 108 717 l 1,0,1
EndSplineSet
Validated: 1
EndChar

StartChar: W
Encoding: 87 87 50
Width: 716
GlyphClass: 1
Flags: W
LayerCount: 2
Fore
SplineSet
303 157 m 1,0,1
 349 212 349 212 367 265.5 c 128,-1,2
 385 319 385 319 385 379 c 0,3,4
 385 389 385 389 384.5 401 c 128,-1,5
 384 413 384 413 381.5 423.5 c 128,-1,6
 379 434 379 434 374.5 440.5 c 128,-1,7
 370 447 370 447 362 447 c 0,8,9
 350 447 350 447 340.5 432 c 128,-1,10
 331 417 331 417 324 393 c 128,-1,11
 317 369 317 369 312 340 c 128,-1,12
 307 311 307 311 304 283.5 c 128,-1,13
 301 256 301 256 299.5 233.5 c 128,-1,14
 298 211 298 211 298 200 c 256,15,16
 298 189 298 189 298.5 174.5 c 128,-1,17
 299 160 299 160 303 157 c 1,0,1
505 771 m 1,18,19
 517 771 517 771 532 765 c 128,-1,20
 547 759 547 759 558 750 c 0,21,22
 594 721 594 721 624.5 679 c 128,-1,23
 655 637 655 637 677 589 c 128,-1,24
 699 541 699 541 711 489.5 c 128,-1,25
 723 438 723 438 723 391 c 0,26,27
 723 315 723 315 706.5 252 c 128,-1,28
 690 189 690 189 663 139.5 c 128,-1,29
 636 90 636 90 601 53.5 c 128,-1,30
 566 17 566 17 528.5 -7 c 128,-1,31
 491 -31 491 -31 454 -43 c 128,-1,32
 417 -55 417 -55 386 -55 c 0,33,34
 353 -55 353 -55 327 -42 c 128,-1,35
 301 -29 301 -29 283 -12.5 c 128,-1,36
 265 4 265 4 255 20.5 c 128,-1,37
 245 37 245 37 244 43 c 1,38,39
 225 35 225 35 203 30 c 128,-1,40
 181 25 181 25 161 25 c 0,41,42
 119 25 119 25 90 42 c 128,-1,43
 61 59 61 59 43 86.5 c 128,-1,44
 25 114 25 114 16.5 148.5 c 128,-1,45
 8 183 8 183 8 219 c 0,46,47
 8 283 8 283 23.5 348.5 c 128,-1,48
 39 414 39 414 68 473 c 128,-1,49
 97 532 97 532 138.5 582.5 c 128,-1,50
 180 633 180 633 232 669 c 0,51,52
 243 677 243 677 256 684 c 128,-1,53
 269 691 269 691 279 691 c 0,54,55
 293 691 293 691 293 680 c 0,56,57
 293 672 293 672 287.5 666.5 c 128,-1,58
 282 661 282 661 279 658 c 0,59,60
 236 614 236 614 201 561 c 128,-1,61
 166 508 166 508 141 449.5 c 128,-1,62
 116 391 116 391 102 328.5 c 128,-1,63
 88 266 88 266 88 204 c 0,64,65
 88 181 88 181 91.5 157 c 128,-1,66
 95 133 95 133 104.5 113.5 c 128,-1,67
 114 94 114 94 130.5 81 c 128,-1,68
 147 68 147 68 172 68 c 0,69,70
 187 68 187 68 202 73 c 128,-1,71
 217 78 217 78 226 88 c 1,72,73
 220 117 220 117 216 145 c 128,-1,74
 212 173 212 173 210.5 195.5 c 128,-1,75
 209 218 209 218 208.5 233 c 128,-1,76
 208 248 208 248 208 253 c 0,77,78
 208 316 208 316 228.5 360.5 c 128,-1,79
 249 405 249 405 277.5 433 c 128,-1,80
 306 461 306 461 335.5 474 c 128,-1,81
 365 487 365 487 384 487 c 0,82,83
 407 487 407 487 422.5 473.5 c 128,-1,84
 438 460 438 460 448 440.5 c 128,-1,85
 458 421 458 421 462 398.5 c 128,-1,86
 466 376 466 376 466 357 c 0,87,88
 466 288 466 288 427 219 c 128,-1,89
 388 150 388 150 313 86 c 1,90,91
 332 29 332 29 402 29 c 0,92,93
 436 29 436 29 477 56.5 c 128,-1,94
 518 84 518 84 552.5 137.5 c 128,-1,95
 587 191 587 191 610.5 271 c 128,-1,96
 634 351 634 351 634 456 c 0,97,98
 634 498 634 498 625.5 541 c 128,-1,99
 617 584 617 584 600 624.5 c 128,-1,100
 583 665 583 665 558.5 701 c 128,-1,101
 534 737 534 737 503 764 c 1,102,-1
 505 771 l 1,18,19
EndSplineSet
Validated: 1
EndChar

StartChar: X
Encoding: 88 88 51
Width: 660
GlyphClass: 1
Flags: W
LayerCount: 2
Fore
SplineSet
560 659 m 2,0,1
 558 647 558 647 553.5 630.5 c 128,-1,2
 549 614 549 614 534 584 c 128,-1,3
 519 554 519 554 488 505.5 c 128,-1,4
 457 457 457 457 402 382 c 0,5,6
 395 372 395 372 388.5 363 c 128,-1,7
 382 354 382 354 376 344 c 1,8,9
 398 299 398 299 421 256.5 c 128,-1,10
 444 214 444 214 470 175.5 c 128,-1,11
 496 137 496 137 526.5 103 c 128,-1,12
 557 69 557 69 595 41 c 0,13,14
 595 39 595 39 606.5 30 c 128,-1,15
 618 21 618 21 633 11.5 c 128,-1,16
 648 2 648 2 662.5 -6 c 128,-1,17
 677 -14 677 -14 684 -14 c 1,18,19
 684 -19 684 -19 681.5 -21.5 c 128,-1,20
 679 -24 679 -24 677 -24 c 0,21,22
 673 -26 673 -26 669 -26 c 128,-1,23
 665 -26 665 -26 660 -26 c 0,24,25
 649 -26 649 -26 636 -23.5 c 128,-1,26
 623 -21 623 -21 610 -17.5 c 128,-1,27
 597 -14 597 -14 585.5 -10.5 c 128,-1,28
 574 -7 574 -7 567 -4 c 0,29,30
 525 12 525 12 490.5 39 c 128,-1,31
 456 66 456 66 426.5 101 c 128,-1,32
 397 136 397 136 371.5 177.5 c 128,-1,33
 346 219 346 219 323 263 c 1,34,35
 260 168 260 168 224.5 114 c 128,-1,36
 189 60 189 60 171.5 31.5 c 128,-1,37
 154 3 154 3 148.5 -7.5 c 128,-1,38
 143 -18 143 -18 140 -25 c 0,39,40
 139 -30 139 -30 133.5 -33 c 128,-1,41
 128 -36 128 -36 120 -36 c 0,42,43
 116 -36 116 -36 108 -34 c 2,44,-1
 87 -16 l 1,45,-1
 89 -3 l 1,46,-1
 92 6 l 2,47,48
 95 15 95 15 95.5 25.5 c 128,-1,49
 96 36 96 36 98 48 c 128,-1,50
 100 60 100 60 104.5 72.5 c 128,-1,51
 109 85 109 85 119 99 c 2,52,-1
 281 347 l 1,53,54
 262 386 262 386 244 425 c 128,-1,55
 226 464 226 464 206.5 499.5 c 128,-1,56
 187 535 187 535 166.5 566.5 c 128,-1,57
 146 598 146 598 123 624 c 0,58,59
 111 638 111 638 98 647 c 128,-1,60
 85 656 85 656 72 656 c 0,61,62
 55 656 55 656 50.5 643 c 128,-1,63
 46 630 46 630 41 605 c 1,64,65
 22 609 22 609 11 618 c 128,-1,66
 0 627 0 627 0 659 c 2,67,-1
 0 663 l 2,68,69
 0 676 0 676 9.5 687.5 c 128,-1,70
 19 699 19 699 33 706.5 c 128,-1,71
 47 714 47 714 65.5 718.5 c 128,-1,72
 84 723 84 723 102 723 c 0,73,74
 124 723 124 723 143 716.5 c 128,-1,75
 162 710 162 710 173 696 c 0,76,77
 226 630 226 630 264.5 563 c 128,-1,78
 303 496 303 496 335 430 c 1,79,-1
 388 511 l 2,80,81
 407 542 407 542 421 563.5 c 128,-1,82
 435 585 435 585 445 604 c 128,-1,83
 455 623 455 623 463.5 642.5 c 128,-1,84
 472 662 472 662 481 688 c 2,85,-1
 485 697 l 1,86,-1
 494 704 l 2,87,88
 502 709 502 709 510.5 711.5 c 128,-1,89
 519 714 519 714 525 716 c 1,90,-1
 560 677 l 1,91,-1
 560 659 l 2,0,1
EndSplineSet
Validated: 1
EndChar

StartChar: Y
Encoding: 89 89 52
Width: 361
GlyphClass: 1
Flags: W
LayerCount: 2
Fore
SplineSet
366 567 m 1,0,1
 342 545 342 545 321 500 c 128,-1,2
 300 455 300 455 284 405.5 c 128,-1,3
 268 356 268 356 257.5 312 c 128,-1,4
 247 268 247 268 244 247 c 1,5,6
 279 261 279 261 305 290 c 128,-1,7
 331 319 331 319 348 356.5 c 128,-1,8
 365 394 365 394 373 437 c 128,-1,9
 381 480 381 480 381 521 c 0,10,11
 381 535 381 535 378 549 c 128,-1,12
 375 563 375 563 372 571 c 1,13,-1
 366 567 l 1,0,1
182 723 m 0,14,15
 198 723 198 723 198 703 c 0,16,17
 198 695 198 695 194 683.5 c 128,-1,18
 190 672 190 672 184.5 660.5 c 128,-1,19
 179 649 179 649 173.5 638 c 128,-1,20
 168 627 168 627 165 620 c 0,21,22
 130 555 130 555 106.5 486.5 c 128,-1,23
 83 418 83 418 83 340 c 0,24,25
 83 329 83 329 85.5 315.5 c 128,-1,26
 88 302 88 302 96 289 c 128,-1,27
 104 276 104 276 119 266 c 128,-1,28
 134 256 134 256 160 254 c 1,29,-1
 171 300 l 2,30,31
 174 312 174 312 183 344 c 128,-1,32
 192 376 192 376 206.5 417.5 c 128,-1,33
 221 459 221 459 240.5 504 c 128,-1,34
 260 549 260 549 283 586.5 c 128,-1,35
 306 624 306 624 332 648 c 128,-1,36
 358 672 358 672 387 672 c 0,37,38
 409 672 409 672 421.5 654 c 128,-1,39
 434 636 434 636 440 610.5 c 128,-1,40
 446 585 446 585 447 557 c 128,-1,41
 448 529 448 529 448 508 c 0,42,43
 448 449 448 449 434 391.5 c 128,-1,44
 420 334 420 334 392 287.5 c 128,-1,45
 364 241 364 241 323.5 209 c 128,-1,46
 283 177 283 177 229 170 c 1,47,48
 212 98 212 98 200.5 27.5 c 128,-1,49
 189 -43 189 -43 189 -116 c 0,50,51
 189 -121 189 -121 187 -128 c 128,-1,52
 185 -135 185 -135 181 -142 c 128,-1,53
 177 -149 177 -149 171.5 -154 c 128,-1,54
 166 -159 166 -159 159 -160 c 0,55,56
 149 -157 149 -157 137.5 -150 c 128,-1,57
 126 -143 126 -143 116.5 -134 c 128,-1,58
 107 -125 107 -125 100.5 -115 c 128,-1,59
 94 -105 94 -105 94 -95 c 0,60,61
 94 -82 94 -82 98.5 -52.5 c 128,-1,62
 103 -23 103 -23 110 15 c 128,-1,63
 117 53 117 53 126 95.5 c 128,-1,64
 135 138 135 138 145 177 c 1,65,66
 102 189 102 189 73.5 207 c 128,-1,67
 45 225 45 225 28.5 246.5 c 128,-1,68
 12 268 12 268 5.5 292.5 c 128,-1,69
 -1 317 -1 317 -1 341 c 0,70,71
 -1 393 -1 393 12.5 444 c 128,-1,72
 26 495 26 495 49 542 c 128,-1,73
 72 589 72 589 102 632 c 128,-1,74
 132 675 132 675 166 712 c 0,75,76
 172 717 172 717 175 720 c 128,-1,77
 178 723 178 723 182 723 c 0,14,15
EndSplineSet
Validated: 1
EndChar

StartChar: Z
Encoding: 90 90 53
Width: 692
GlyphClass: 1
Flags: W
LayerCount: 2
Fore
SplineSet
591 654 m 2,0,1
 586 654 586 654 577.5 648.5 c 128,-1,2
 569 643 569 643 566 638 c 1,3,-1
 581 638 l 2,4,5
 592 638 592 638 603.5 640.5 c 128,-1,6
 615 643 615 643 615 646 c 256,7,8
 615 649 615 649 608 651.5 c 128,-1,9
 601 654 601 654 592 654 c 2,10,-1
 591 654 l 2,0,1
4 15 m 0,11,12
 6 29 6 29 15.5 40.5 c 128,-1,13
 25 52 25 52 38 61.5 c 128,-1,14
 51 71 51 71 65.5 77.5 c 128,-1,15
 80 84 80 84 92 89 c 1,16,17
 149 152 149 152 202 208.5 c 128,-1,18
 255 265 255 265 303 323.5 c 128,-1,19
 351 382 351 382 393 447 c 128,-1,20
 435 512 435 512 470 593 c 1,21,22
 421 601 421 601 380.5 611.5 c 128,-1,23
 340 622 340 622 304.5 631 c 128,-1,24
 269 640 269 640 235.5 646 c 128,-1,25
 202 652 202 652 168 652 c 0,26,27
 157 652 157 652 141.5 651.5 c 128,-1,28
 126 651 126 651 111.5 648 c 128,-1,29
 97 645 97 645 86.5 639.5 c 128,-1,30
 76 634 76 634 76 624 c 0,31,32
 76 615 76 615 88 603.5 c 128,-1,33
 100 592 100 592 111 584 c 1,34,35
 100 584 100 584 88.5 585.5 c 128,-1,36
 77 587 77 587 66.5 591.5 c 128,-1,37
 56 596 56 596 49.5 602.5 c 128,-1,38
 43 609 43 609 43 620 c 0,39,40
 43 647 43 647 60 666 c 128,-1,41
 77 685 77 685 101 697 c 128,-1,42
 125 709 125 709 151.5 714.5 c 128,-1,43
 178 720 178 720 197 720 c 0,44,45
 246 720 246 720 283.5 712 c 128,-1,46
 321 704 321 704 354 693 c 128,-1,47
 387 682 387 682 420 670 c 128,-1,48
 453 658 453 658 492 649 c 1,49,50
 497 658 497 658 509 665.5 c 128,-1,51
 521 673 521 673 535.5 678.5 c 128,-1,52
 550 684 550 684 565 687 c 128,-1,53
 580 690 580 690 592 690 c 0,54,55
 608 690 608 690 626 676 c 128,-1,56
 644 662 644 662 644 638 c 0,57,58
 644 612 644 612 624.5 597.5 c 128,-1,59
 605 583 605 583 574 583 c 0,60,61
 565 583 565 583 561.5 584.5 c 128,-1,62
 558 586 558 586 548 586 c 1,63,64
 515 506 515 506 475.5 436 c 128,-1,65
 436 366 436 366 393 304.5 c 128,-1,66
 350 243 350 243 305 190 c 128,-1,67
 260 137 260 137 215 92 c 1,68,69
 219 91 219 91 229.5 89.5 c 128,-1,70
 240 88 240 88 251.5 85.5 c 128,-1,71
 263 83 263 83 273.5 81.5 c 128,-1,72
 284 80 284 80 289 79 c 0,73,74
 324 73 324 73 354 68 c 128,-1,75
 384 63 384 63 414 59.5 c 128,-1,76
 444 56 444 56 476 53.5 c 128,-1,77
 508 51 508 51 547 51 c 2,78,-1
 555 51 l 2,79,80
 573 51 573 51 586.5 54 c 128,-1,81
 600 57 600 57 611.5 62.5 c 128,-1,82
 623 68 623 68 635.5 75 c 128,-1,83
 648 82 648 82 665 90 c 1,84,-1
 669 89 l 2,85,86
 674 88 674 88 676 83.5 c 128,-1,87
 678 79 678 79 678 74 c 2,88,-1
 677 62 l 1,89,90
 662 45 662 45 641 29.5 c 128,-1,91
 620 14 620 14 597 2 c 128,-1,92
 574 -10 574 -10 550 -17 c 128,-1,93
 526 -24 526 -24 505 -24 c 2,94,-1
 501 -24 l 1,95,-1
 138 -4 l 1,96,-1
 135 -4 l 2,97,98
 123 -4 123 -4 111 -8 c 128,-1,99
 99 -12 99 -12 87 -17 c 128,-1,100
 75 -22 75 -22 63.5 -26 c 128,-1,101
 52 -30 52 -30 42 -30 c 2,102,-1
 36 -29 l 2,103,104
 25 -27 25 -27 14 -14 c 128,-1,105
 3 -1 3 -1 3 11 c 0,106,107
 3 13 3 13 3.5 13.5 c 128,-1,108
 4 14 4 14 4 15 c 0,11,12
EndSplineSet
Validated: 1
EndChar

StartChar: bracketleft
Encoding: 91 91 54
Width: 285
GlyphClass: 1
Flags: W
LayerCount: 2
Fore
SplineSet
26 -77 m 0,0,1
 26 -64 26 -64 41.5 -55.5 c 128,-1,2
 57 -47 57 -47 72 -40 c 1,3,-1
 81 767 l 1,4,5
 66 774 66 774 48.5 783 c 128,-1,6
 31 792 31 792 31 806 c 0,7,8
 31 814 31 814 37 816 c 128,-1,9
 43 818 43 818 54 819 c 0,10,11
 82 821 82 821 117 829 c 128,-1,12
 152 837 152 837 206 837 c 0,13,14
 212 837 212 837 220 836 c 128,-1,15
 228 835 228 835 242 831 c 1,16,17
 248 823 248 823 259 811 c 128,-1,18
 270 799 270 799 270 788 c 0,19,20
 270 785 270 785 265 781.5 c 128,-1,21
 260 778 260 778 252.5 775 c 128,-1,22
 245 772 245 772 236.5 770 c 128,-1,23
 228 768 228 768 222 768 c 0,24,25
 208 767 208 767 199 767 c 2,26,-1
 182 767 l 2,27,28
 175 767 175 767 168 766.5 c 128,-1,29
 161 766 161 766 152 766 c 2,30,-1
 145 766 l 2,31,32
 142 766 142 766 139 765 c 0,33,34
 138 764 138 764 137.5 721 c 128,-1,35
 137 678 137 678 137 609 c 2,36,-1
 137 483 l 2,37,38
 137 415 137 415 137.5 344.5 c 128,-1,39
 138 274 138 274 138.5 207.5 c 128,-1,40
 139 141 139 141 139.5 88 c 128,-1,41
 140 35 140 35 140 1 c 2,42,-1
 140 -37 l 1,43,-1
 147 -37 l 2,44,45
 156 -37 156 -37 163 -37.5 c 128,-1,46
 170 -38 170 -38 177 -38 c 2,47,-1
 194 -38 l 2,48,49
 203 -38 203 -38 217 -39 c 0,50,51
 223 -39 223 -39 231.5 -41 c 128,-1,52
 240 -43 240 -43 247.5 -46 c 128,-1,53
 255 -49 255 -49 260 -52.5 c 128,-1,54
 265 -56 265 -56 265 -59 c 0,55,56
 265 -70 265 -70 254 -82 c 128,-1,57
 243 -94 243 -94 237 -102 c 1,58,59
 223 -106 223 -106 215 -107 c 128,-1,60
 207 -108 207 -108 201 -108 c 0,61,62
 147 -108 147 -108 112 -100 c 128,-1,63
 77 -92 77 -92 49 -90 c 0,64,65
 38 -89 38 -89 32 -87 c 128,-1,66
 26 -85 26 -85 26 -77 c 0,0,1
EndSplineSet
Validated: 1
EndChar

StartChar: backslash
Encoding: 92 92 55
Width: 609
GlyphClass: 1
Flags: W
LayerCount: 2
Fore
SplineSet
25 569 m 2,0,1
 24 570 24 570 24 574 c 0,2,3
 24 577 24 577 25 579 c 0,4,5
 26 586 26 586 34 594.5 c 128,-1,6
 42 603 42 603 52.5 611 c 128,-1,7
 63 619 63 619 74 624.5 c 128,-1,8
 85 630 85 630 93 630 c 2,9,-1
 98 629 l 2,10,11
 102 629 102 629 102 626 c 0,12,13
 152 557 152 557 201 496.5 c 128,-1,14
 250 436 250 436 306.5 370 c 128,-1,15
 363 304 363 304 431 226 c 128,-1,16
 499 148 499 148 588 45 c 0,17,18
 591 40 591 40 591 35 c 0,19,20
 591 31 591 31 590 29 c 0,21,22
 588 21 588 21 582.5 12 c 128,-1,23
 577 3 577 3 569 -5.5 c 128,-1,24
 561 -14 561 -14 552 -19.5 c 128,-1,25
 543 -25 543 -25 536 -25 c 2,26,-1
 533 -25 l 2,27,28
 524 -23 524 -23 522 -16 c 0,29,30
 478 44 478 44 422 114.5 c 128,-1,31
 366 185 366 185 309 253 c 128,-1,32
 252 321 252 321 200.5 380.5 c 128,-1,33
 149 440 149 440 113 479 c 2,34,-1
 25 569 l 2,0,1
EndSplineSet
Validated: 1
EndChar

StartChar: bracketright
Encoding: 93 93 56
Width: 285
GlyphClass: 1
Flags: W
LayerCount: 2
Fore
SplineSet
270 805 m 0,0,1
 270 792 270 792 254.5 783.5 c 128,-1,2
 239 775 239 775 224 768 c 1,3,-1
 215 -39 l 1,4,5
 230 -46 230 -46 247.5 -55 c 128,-1,6
 265 -64 265 -64 265 -78 c 0,7,8
 265 -86 265 -86 259 -88 c 128,-1,9
 253 -90 253 -90 242 -91 c 0,10,11
 214 -93 214 -93 179 -101 c 128,-1,12
 144 -109 144 -109 90 -109 c 0,13,14
 84 -109 84 -109 76 -108 c 128,-1,15
 68 -107 68 -107 54 -103 c 1,16,17
 48 -95 48 -95 37 -83 c 128,-1,18
 26 -71 26 -71 26 -60 c 0,19,20
 26 -57 26 -57 31 -53.5 c 128,-1,21
 36 -50 36 -50 43.5 -47 c 128,-1,22
 51 -44 51 -44 59.5 -42 c 128,-1,23
 68 -40 68 -40 74 -40 c 0,24,25
 88 -39 88 -39 97 -39 c 2,26,-1
 113 -39 l 2,27,28
 121 -39 121 -39 128 -38.5 c 128,-1,29
 135 -38 135 -38 144 -38 c 2,30,-1
 150 -38 l 2,31,32
 154 -38 154 -38 157 -37 c 0,33,34
 158 -36 158 -36 158.5 7 c 128,-1,35
 159 50 159 50 159 119 c 2,36,-1
 159 244 l 2,37,38
 159 313 159 313 158.5 383.5 c 128,-1,39
 158 454 158 454 157.5 520.5 c 128,-1,40
 157 587 157 587 156.5 640 c 128,-1,41
 156 693 156 693 156 726 c 2,42,-1
 156 765 l 1,43,-1
 149 765 l 2,44,45
 140 765 140 765 133 765.5 c 128,-1,46
 126 766 126 766 118 766 c 2,47,-1
 102 766 l 2,48,49
 93 766 93 766 79 767 c 0,50,51
 73 767 73 767 64.5 769 c 128,-1,52
 56 771 56 771 48.5 774 c 128,-1,53
 41 777 41 777 36 780.5 c 128,-1,54
 31 784 31 784 31 787 c 0,55,56
 31 798 31 798 42 810 c 128,-1,57
 53 822 53 822 59 830 c 1,58,59
 73 834 73 834 81 835 c 128,-1,60
 89 836 89 836 95 836 c 0,61,62
 149 836 149 836 184 828 c 128,-1,63
 219 820 219 820 247 818 c 0,64,65
 258 817 258 817 264 815 c 128,-1,66
 270 813 270 813 270 805 c 0,0,1
EndSplineSet
Validated: 1
EndChar

StartChar: asciicircum
Encoding: 94 94 57
Width: 330
GlyphClass: 1
Flags: W
LayerCount: 2
Fore
SplineSet
160 615 m 1,0,1
 152 601 152 601 140.5 587 c 128,-1,2
 129 573 129 573 112 562 c 0,3,4
 98 553 98 553 86 548 c 128,-1,5
 74 543 74 543 55 543 c 0,6,7
 37 543 37 543 26 560 c 128,-1,8
 15 577 15 577 15 593 c 0,9,10
 15 603 15 603 19 608 c 1,11,12
 27 604 27 604 33 603.5 c 128,-1,13
 39 603 39 603 45 603 c 0,14,15
 68 603 68 603 81 614.5 c 128,-1,16
 94 626 94 626 108 645 c 0,17,18
 113 651 113 651 116 656 c 128,-1,19
 119 661 119 661 121.5 667 c 128,-1,20
 124 673 124 673 126.5 680.5 c 128,-1,21
 129 688 129 688 133 699 c 0,22,23
 135 713 135 713 145 720 c 128,-1,24
 155 727 155 727 166 727 c 0,25,26
 188 727 188 727 196 706 c 0,27,28
 201 689 201 689 204.5 673.5 c 128,-1,29
 208 658 208 658 223 637 c 0,30,31
 225 634 225 634 231.5 630 c 128,-1,32
 238 626 238 626 246.5 622.5 c 128,-1,33
 255 619 255 619 264 616.5 c 128,-1,34
 273 614 273 614 281 614 c 0,35,36
 292 614 292 614 297 606 c 128,-1,37
 302 598 302 598 302 587 c 256,38,39
 302 576 302 576 297 563.5 c 128,-1,40
 292 551 292 551 281 551 c 0,41,42
 258 551 258 551 233 559.5 c 128,-1,43
 208 568 208 568 195 579 c 0,44,45
 184 588 184 588 174.5 596 c 128,-1,46
 165 604 165 604 160 615 c 1,0,1
EndSplineSet
Validated: 1
EndChar

StartChar: underscore
Encoding: 95 95 58
Width: 335
GlyphClass: 1
Flags: W
LayerCount: 2
Fore
SplineSet
0 -40 m 1,0,-1
 0 -5 l 1,1,-1
 335 -5 l 1,2,-1
 335 -40 l 1,3,-1
 0 -40 l 1,0,-1
EndSplineSet
Validated: 1
EndChar

StartChar: grave
Encoding: 96 96 59
Width: 236
GlyphClass: 1
Flags: W
LayerCount: 2
Fore
SplineSet
233 806 m 1,0,1
 232 798 232 798 230 787 c 128,-1,2
 228 776 228 776 224 765.5 c 128,-1,3
 220 755 220 755 213.5 748 c 128,-1,4
 207 741 207 741 197 741 c 1,5,6
 158 759 158 759 129.5 773 c 128,-1,7
 101 787 101 787 81.5 796.5 c 128,-1,8
 62 806 62 806 49 811 c 128,-1,9
 36 816 36 816 27 817 c 2,10,-1
 24 817 l 2,11,12
 19 817 19 817 11 812 c 1,13,14
 5 820 5 820 3.5 827.5 c 128,-1,15
 2 835 2 835 2 843 c 2,16,-1
 2 849 l 2,17,18
 2 879 2 879 27 879 c 0,19,20
 33 879 33 879 39.5 877 c 128,-1,21
 46 875 46 875 54 872 c 0,22,23
 56 871 56 871 76 861 c 128,-1,24
 96 851 96 851 123 839 c 128,-1,25
 150 827 150 827 178 816 c 128,-1,26
 206 805 206 805 226 802 c 1,27,-1
 233 806 l 1,0,1
EndSplineSet
Validated: 1
EndChar

StartChar: a
Encoding: 97 97 60
Width: 292
GlyphClass: 1
Flags: W
LayerCount: 2
Fore
SplineSet
183 378 m 2,0,1
 185 382 185 382 187.5 382.5 c 128,-1,2
 190 383 190 383 194 383 c 2,3,-1
 200 383 l 2,4,5
 210 383 210 383 218.5 373 c 128,-1,6
 227 363 227 363 229 352 c 0,7,8
 231 346 231 346 235 334.5 c 128,-1,9
 239 323 239 323 243 309.5 c 128,-1,10
 247 296 247 296 250.5 282.5 c 128,-1,11
 254 269 254 269 256 259 c 0,12,13
 260 226 260 226 264 199.5 c 128,-1,14
 268 173 268 173 270.5 148.5 c 128,-1,15
 273 124 273 124 274.5 99.5 c 128,-1,16
 276 75 276 75 276 46 c 0,17,18
 276 20 276 20 275.5 9.5 c 128,-1,19
 275 -1 275 -1 273 -10 c 1,20,21
 268 -13 268 -13 262 -13 c 0,22,23
 248 -13 248 -13 236.5 0.5 c 128,-1,24
 225 14 225 14 217 34 c 1,25,-1
 213 92 l 1,26,-1
 181 92 l 2,27,28
 155 92 155 92 143.5 92.5 c 128,-1,29
 132 93 132 93 126 93 c 0,30,31
 121 93 121 93 120 92 c 0,32,33
 109 88 109 88 102 63.5 c 128,-1,34
 95 39 95 39 84 11 c 2,35,-1
 73 -18 l 1,36,37
 65 -26 65 -26 49 -26 c 0,38,39
 44 -26 44 -26 39.5 -25 c 128,-1,40
 35 -24 35 -24 29 -23 c 0,41,42
 18 -12 18 -12 14 -1 c 128,-1,43
 10 10 10 10 10 26 c 0,44,45
 10 62 10 62 38 112 c 1,46,47
 38 124 38 124 31 135 c 128,-1,48
 24 146 24 146 8 148 c 1,49,-1
 10 167 l 1,50,51
 14 166 14 166 24 166 c 2,52,-1
 57 166 l 1,53,54
 63 179 63 179 72 197.5 c 128,-1,55
 81 216 81 216 91.5 236 c 128,-1,56
 102 256 102 256 112.5 274.5 c 128,-1,57
 123 293 123 293 132 307 c 2,58,-1
 180 366 l 1,59,-1
 183 378 l 2,0,1
147 171 m 1,60,61
 154 170 154 170 161 170 c 2,62,-1
 189 170 l 2,63,64
 197 170 197 170 204 171 c 1,65,66
 204 178 204 178 203.5 189 c 128,-1,67
 203 200 203 200 201.5 212.5 c 128,-1,68
 200 225 200 225 197.5 236.5 c 128,-1,69
 195 248 195 248 190 257 c 1,70,71
 185 255 185 255 178.5 245 c 128,-1,72
 172 235 172 235 166 221.5 c 128,-1,73
 160 208 160 208 155 194 c 128,-1,74
 150 180 150 180 147 171 c 1,60,61
EndSplineSet
Validated: 1
Substitution2: "'salt' Stylistic Alternatives in Latin lookup 0 subtable" a.alt
EndChar

StartChar: c
Encoding: 99 99 61
Width: 334
GlyphClass: 1
Flags: W
LayerCount: 2
Fore
SplineSet
282 88 m 0,0,1
 299 88 299 88 309 80.5 c 128,-1,2
 319 73 319 73 319 55 c 256,3,4
 319 37 319 37 302.5 26 c 128,-1,5
 286 15 286 15 262 9 c 128,-1,6
 238 3 238 3 211 1.5 c 128,-1,7
 184 0 184 0 162 0 c 0,8,9
 87 0 87 0 51 34 c 128,-1,10
 15 68 15 68 15 134 c 0,11,12
 15 174 15 174 30 213 c 128,-1,13
 45 252 45 252 73 283 c 128,-1,14
 101 314 101 314 141.5 333 c 128,-1,15
 182 352 182 352 233 352 c 0,16,17
 247 352 247 352 261.5 349.5 c 128,-1,18
 276 347 276 347 288 341 c 128,-1,19
 300 335 300 335 307.5 324.5 c 128,-1,20
 315 314 315 314 315 297 c 0,21,22
 315 290 315 290 313.5 283 c 128,-1,23
 312 276 312 276 310 267 c 1,24,25
 301 263 301 263 292.5 260.5 c 128,-1,26
 284 258 284 258 276 258 c 0,27,28
 246 258 246 258 225 289 c 1,29,30
 189 283 189 283 163 268 c 128,-1,31
 137 253 137 253 120.5 231.5 c 128,-1,32
 104 210 104 210 96 184 c 128,-1,33
 88 158 88 158 88 131 c 0,34,35
 88 99 88 99 107 80 c 128,-1,36
 126 61 126 61 178 61 c 0,37,38
 188 61 188 61 199.5 65 c 128,-1,39
 211 69 211 69 224.5 74.5 c 128,-1,40
 238 80 238 80 252.5 84 c 128,-1,41
 267 88 267 88 282 88 c 0,0,1
EndSplineSet
Validated: 1
EndChar

StartChar: d
Encoding: 100 100 62
Width: 372
GlyphClass: 1
Flags: W
LayerCount: 2
Fore
SplineSet
4 298 m 2,0,1
 3 302 3 302 3 309 c 0,2,3
 3 341 3 341 54 352 c 0,4,5
 63 353 63 353 71 353 c 2,6,-1
 87 353 l 2,7,8
 231 353 231 353 320 239 c 0,9,10
 329 224 329 224 335 213 c 128,-1,11
 341 202 341 202 344.5 191.5 c 128,-1,12
 348 181 348 181 349.5 170 c 128,-1,13
 351 159 351 159 351 145 c 0,14,15
 351 113 351 113 334 86 c 128,-1,16
 317 59 317 59 289.5 39.5 c 128,-1,17
 262 20 262 20 227.5 8.5 c 128,-1,18
 193 -3 193 -3 159 -3 c 2,19,-1
 153 -3 l 1,20,21
 147 -16 147 -16 126 -28 c 1,22,-1
 118 -28 l 2,23,24
 82 -28 82 -28 82 12 c 2,25,-1
 82 16 l 1,26,27
 15 59 15 59 15 101 c 0,28,29
 15 121 15 121 27 141 c 1,30,31
 35 130 35 130 47 121.5 c 128,-1,32
 59 113 59 113 75 105 c 1,33,34
 74 113 74 113 74 120 c 2,35,-1
 74 135 l 2,36,37
 74 253 74 253 131 253 c 2,38,-1
 138 253 l 1,39,40
 142 227 142 227 142.5 197 c 128,-1,41
 143 167 143 167 143 141 c 2,42,-1
 143 78 l 1,43,44
 154 73 154 73 165.5 72.5 c 128,-1,45
 177 72 177 72 185 72 c 0,46,47
 282 72 282 72 282 128 c 0,48,49
 282 165 282 165 239 224 c 1,50,51
 167 311 167 311 51 311 c 2,52,-1
 39 311 l 1,53,-1
 17 280 l 1,54,-1
 4 298 l 2,0,1
EndSplineSet
Validated: 1
EndChar

StartChar: e
Encoding: 101 101 63
Width: 305
GlyphClass: 1
Flags: W
LayerCount: 2
Fore
SplineSet
251 64 m 0,0,1
 251 53 251 53 245 49 c 0,2,3
 235 41 235 41 219 29.5 c 128,-1,4
 203 18 203 18 182.5 7 c 128,-1,5
 162 -4 162 -4 139 -11.5 c 128,-1,6
 116 -19 116 -19 91 -19 c 0,7,8
 49 -19 49 -19 30 7 c 128,-1,9
 11 33 11 33 11 65 c 0,10,11
 11 82 11 82 19.5 104.5 c 128,-1,12
 28 127 28 127 36 150 c 1,13,14
 34 158 34 158 31 163 c 128,-1,15
 28 168 28 168 28 176 c 0,16,17
 28 182 28 182 29.5 186 c 128,-1,18
 31 190 31 190 33 196 c 1,19,20
 39 198 39 198 45.5 200.5 c 128,-1,21
 52 203 52 203 59 204 c 1,22,-1
 83 259 l 1,23,24
 74 263 74 263 64 267.5 c 128,-1,25
 54 272 54 272 45.5 277.5 c 128,-1,26
 37 283 37 283 31.5 289.5 c 128,-1,27
 26 296 26 296 26 304 c 256,28,29
 26 312 26 312 32.5 315 c 128,-1,30
 39 318 39 318 52 319 c 0,31,32
 68 320 68 320 85.5 323 c 128,-1,33
 103 326 103 326 123.5 329.5 c 128,-1,34
 144 333 144 333 169 336 c 128,-1,35
 194 339 194 339 225 339 c 0,36,37
 232 339 232 339 241 338 c 128,-1,38
 250 337 250 337 266 332 c 1,39,40
 273 324 273 324 285.5 310 c 128,-1,41
 298 296 298 296 298 283 c 0,42,43
 298 279 298 279 292 275.5 c 128,-1,44
 286 272 286 272 278 269 c 128,-1,45
 270 266 270 266 260.5 263.5 c 128,-1,46
 251 261 251 261 244 261 c 0,47,48
 228 260 228 260 217 259.5 c 128,-1,49
 206 259 206 259 198 259 c 128,-1,50
 190 259 190 259 182 258.5 c 128,-1,51
 174 258 174 258 164 258 c 256,52,53
 154 258 154 258 149 257 c 0,54,55
 146 254 146 254 141.5 244 c 128,-1,56
 137 234 137 234 137 215 c 0,57,58
 137 212 137 212 139 208.5 c 128,-1,59
 141 205 141 205 146 205 c 2,60,-1
 220 205 l 1,61,-1
 234 203 l 1,62,63
 238 198 238 198 239 189.5 c 128,-1,64
 240 181 240 181 240 174 c 0,65,66
 240 168 240 168 238 159.5 c 128,-1,67
 236 151 236 151 229 150 c 0,68,69
 215 149 215 149 184.5 148 c 128,-1,70
 154 147 154 147 116 147 c 0,71,72
 112 147 112 147 110 143 c 0,73,74
 106 127 106 127 100 110 c 128,-1,75
 94 93 94 93 86 76 c 1,76,77
 90 76 90 76 117.5 81.5 c 128,-1,78
 145 87 145 87 193 92 c 0,79,80
 201 93 201 93 209.5 93.5 c 128,-1,81
 218 94 218 94 226 94 c 0,82,83
 235 94 235 94 243 84 c 128,-1,84
 251 74 251 74 251 64 c 0,0,1
EndSplineSet
Validated: 1
EndChar

StartChar: f
Encoding: 102 102 64
Width: 331
GlyphClass: 1
Flags: W
LayerCount: 2
Fore
SplineSet
111 4 m 0,0,1
 99 1 99 1 89.5 -1 c 128,-1,2
 80 -3 80 -3 72 -3 c 0,3,4
 52 -3 52 -3 46 10 c 0,5,6
 37 23 37 23 37 62 c 0,7,8
 37 96 37 96 45 151 c 128,-1,9
 53 206 53 206 72 272 c 1,10,11
 52 275 52 275 43.5 283 c 128,-1,12
 35 291 35 291 31 299 c 0,13,14
 29 304 29 304 27.5 309.5 c 128,-1,15
 26 315 26 315 26 321 c 2,16,-1
 27 328 l 1,17,18
 79 332 79 332 126.5 339.5 c 128,-1,19
 174 347 174 347 230 350 c 0,20,21
 262 350 262 350 278.5 349.5 c 128,-1,22
 295 349 295 349 303 348 c 128,-1,23
 311 347 311 347 314.5 344.5 c 128,-1,24
 318 342 318 342 324 338 c 0,25,26
 331 333 331 333 333.5 325 c 128,-1,27
 336 317 336 317 337 312 c 2,28,-1
 337 310 l 2,29,30
 337 296 337 296 320.5 291.5 c 128,-1,31
 304 287 304 287 284 287 c 0,32,33
 271 287 271 287 259 288 c 128,-1,34
 247 289 247 289 240 289 c 0,35,36
 226 289 226 289 206 286.5 c 128,-1,37
 186 284 186 284 151 276 c 1,38,39
 137 250 137 250 131 207 c 1,40,-1
 230 210 l 2,41,42
 245 211 245 211 253.5 211 c 128,-1,43
 262 211 262 211 272 213 c 1,44,45
 281 204 281 204 281 188 c 0,46,47
 281 180 281 180 279 170.5 c 128,-1,48
 277 161 277 161 270 153 c 1,49,50
 256 151 256 151 243 151 c 2,51,-1
 193 151 l 2,52,53
 175 151 175 151 157.5 149.5 c 128,-1,54
 140 148 140 148 118 141 c 1,55,56
 110 132 110 132 108 114.5 c 128,-1,57
 106 97 106 97 106 88 c 0,58,59
 106 70 106 70 109 52.5 c 128,-1,60
 112 35 112 35 112 18 c 0,61,62
 112 8 112 8 111 4 c 0,0,1
EndSplineSet
Validated: 1
EndChar

StartChar: g
Encoding: 103 103 65
Width: 337
GlyphClass: 1
Flags: W
LayerCount: 2
Fore
SplineSet
277 256 m 1,0,1
 260 245 260 245 234 245 c 1,2,3
 243 261 243 261 243 271 c 0,4,5
 243 279 243 279 231 279 c 0,6,7
 224 279 224 279 204 274 c 0,8,9
 152 262 152 262 116 226 c 128,-1,10
 80 190 80 190 80 131 c 0,11,12
 80 98 80 98 98.5 80.5 c 128,-1,13
 117 63 117 63 158 63 c 0,14,15
 167 63 167 63 183.5 65 c 128,-1,16
 200 67 200 67 216 74 c 128,-1,17
 232 81 232 81 244 95.5 c 128,-1,18
 256 110 256 110 256 134 c 0,19,20
 256 139 256 139 251 141.5 c 128,-1,21
 246 144 246 144 239 145.5 c 128,-1,22
 232 147 232 147 223.5 147.5 c 128,-1,23
 215 148 215 148 209 148 c 0,24,25
 188 148 188 148 173 137 c 128,-1,26
 158 126 158 126 147 106 c 1,27,28
 130 111 130 111 127 118 c 128,-1,29
 124 125 124 125 124 137 c 0,30,31
 124 161 124 161 139 174.5 c 128,-1,32
 154 188 154 188 175 194 c 128,-1,33
 196 200 196 200 219 201.5 c 128,-1,34
 242 203 242 203 259 203 c 0,35,36
 293 203 293 203 312 183.5 c 128,-1,37
 331 164 331 164 331 138 c 0,38,39
 331 69 331 69 283.5 33 c 128,-1,40
 236 -3 236 -3 149 -3 c 0,41,42
 73 -3 73 -3 41 31 c 128,-1,43
 9 65 9 65 9 133 c 0,44,45
 9 182 9 182 31 222.5 c 128,-1,46
 53 263 53 263 84.5 292 c 128,-1,47
 116 321 116 321 152 337 c 128,-1,48
 188 353 188 353 216 353 c 0,49,50
 291 353 291 353 291 303 c 0,51,52
 291 282 291 282 279 258 c 1,53,-1
 277 256 l 1,0,1
EndSplineSet
Validated: 1
EndChar

StartChar: h
Encoding: 104 104 66
Width: 306
GlyphClass: 1
Flags: W
LayerCount: 2
Fore
SplineSet
198 326 m 1,0,1
 203 343 203 343 221 354 c 1,2,-1
 235 354 l 2,3,4
 241 354 241 354 252.5 352.5 c 128,-1,5
 264 351 264 351 272 347 c 1,6,-1
 272 334 l 2,7,8
 272 327 272 327 273 318 c 0,9,10
 273 313 273 313 273.5 306.5 c 128,-1,11
 274 300 274 300 274 293 c 2,12,-1
 281 170 l 2,13,14
 281 156 281 156 283 143 c 2,15,-1
 287 117 l 1,16,-1
 291 89 l 2,17,18
 293 75 293 75 293 59 c 0,19,20
 293 48 293 48 291.5 30.5 c 128,-1,21
 290 13 290 13 282 4 c 0,22,23
 275 2 275 2 270 0.5 c 128,-1,24
 265 -1 265 -1 259 -1 c 0,25,26
 248 -1 248 -1 234 6 c 128,-1,27
 220 13 220 13 218 26 c 2,28,-1
 214 100 l 1,29,-1
 214 104 l 1,30,-1
 211 104 l 2,31,32
 201 103 201 103 193 102.5 c 128,-1,33
 185 102 185 102 177 102 c 0,34,35
 158 102 158 102 124 105 c 1,36,37
 125 96 125 96 125.5 84 c 128,-1,38
 126 72 126 72 126 60 c 2,39,-1
 126 26 l 2,40,41
 126 11 126 11 120.5 7.5 c 128,-1,42
 115 4 115 4 95 2 c 0,43,44
 85 2 85 2 76 4 c 128,-1,45
 67 6 67 6 56 14 c 1,46,-1
 48 43 l 2,47,48
 46 47 46 47 45 58 c 128,-1,49
 44 69 44 69 43.5 82 c 128,-1,50
 43 95 43 95 42.5 106.5 c 128,-1,51
 42 118 42 118 42 123 c 1,52,53
 33 127 33 127 22 137.5 c 128,-1,54
 11 148 11 148 7 159 c 0,55,56
 5 164 5 164 3 180.5 c 128,-1,57
 1 197 1 197 1 209 c 0,58,59
 1 211 1 211 1 211 c 1,60,-1
 2 213 l 1,61,-1
 2 222 l 1,62,63
 28 206 28 206 48 201 c 1,64,-1
 55 324 l 1,65,-1
 71 332 l 2,66,67
 80 335 80 335 91 335 c 0,68,69
 98 335 98 335 111 332.5 c 128,-1,70
 124 330 124 330 129 325 c 1,71,72
 129 319 129 319 128 316 c 2,73,-1
 127 307 l 2,74,75
 125 294 125 294 123.5 274.5 c 128,-1,76
 122 255 122 255 122 224 c 2,77,-1
 122 178 l 1,78,79
 130 176 130 176 136 175.5 c 128,-1,80
 142 175 142 175 149 174 c 128,-1,81
 156 173 156 173 164 173 c 2,82,-1
 197 173 l 2,83,84
 201 173 201 173 209 175 c 1,85,-1
 200 302 l 1,86,-1
 198 326 l 1,0,1
EndSplineSet
Validated: 1
EndChar

StartChar: i
Encoding: 105 105 67
Width: 169
GlyphClass: 1
Flags: W
LayerCount: 2
Fore
SplineSet
12 500 m 0,0,1
 14 498 14 498 16 498 c 0,2,3
 19 498 19 498 21 500 c 0,4,5
 26 507 26 507 35.5 517 c 128,-1,6
 45 527 45 527 56 538.5 c 128,-1,7
 67 550 67 550 78.5 561 c 128,-1,8
 90 572 90 572 99 580 c 1,9,-1
 99 581 l 2,10,11
 99 584 99 584 97 586 c 0,12,13
 59 578 59 578 37 553.5 c 128,-1,14
 15 529 15 529 12 500 c 0,0,1
72 464 m 0,15,16
 72 462 72 462 75 459 c 128,-1,17
 78 456 78 456 80 456 c 2,18,-1
 102 456 l 2,19,20
 121 456 121 456 147 462.5 c 128,-1,21
 173 469 173 469 197 481 c 128,-1,22
 221 493 221 493 237.5 510.5 c 128,-1,23
 254 528 254 528 254 551 c 0,24,25
 254 562 254 562 251 569 c 128,-1,26
 248 576 248 576 228 576 c 0,27,28
 206 576 206 576 185 566.5 c 128,-1,29
 164 557 164 557 144 541 c 128,-1,30
 124 525 124 525 105.5 505 c 128,-1,31
 87 485 87 485 72 464 c 0,15,16
68 340 m 0,32,33
 95 339 95 339 102 324 c 128,-1,34
 109 309 109 309 111 280 c 0,35,36
 113 219 113 219 117 156.5 c 128,-1,37
 121 94 121 94 121 34 c 0,38,39
 121 22 121 22 115 10.5 c 128,-1,40
 109 -1 109 -1 90 -1 c 0,41,42
 84 -1 84 -1 76 1 c 128,-1,43
 68 3 68 3 62 5 c 0,44,45
 57 6 57 6 53.5 13.5 c 128,-1,46
 50 21 50 21 47.5 29.5 c 128,-1,47
 45 38 45 38 43.5 46 c 128,-1,48
 42 54 42 54 42 58 c 0,49,50
 42 77 42 77 42 88.5 c 128,-1,51
 42 100 42 100 42.5 110 c 128,-1,52
 43 120 43 120 43.5 131.5 c 128,-1,53
 44 143 44 143 45 163 c 0,54,55
 46 174 46 174 49 215.5 c 128,-1,56
 52 257 52 257 62 333 c 0,57,58
 63 340 63 340 68 340 c 0,32,33
242 615 m 0,59,60
 243 615 243 615 243.5 615.5 c 128,-1,61
 244 616 244 616 246 616 c 0,62,63
 252 616 252 616 261.5 613 c 128,-1,64
 271 610 271 610 280 603 c 128,-1,65
 289 596 289 596 295.5 586 c 128,-1,66
 302 576 302 576 302 562 c 0,67,68
 302 533 302 533 280.5 503.5 c 128,-1,69
 259 474 259 474 228 450.5 c 128,-1,70
 197 427 197 427 163 412 c 128,-1,71
 129 397 129 397 104 397 c 0,72,73
 89 397 89 397 72 399 c 128,-1,74
 55 401 55 401 41 406 c 1,75,76
 33 396 33 396 27.5 389 c 128,-1,77
 22 382 22 382 11 380 c 0,78,79
 3 382 3 382 -4.5 394 c 128,-1,80
 -12 406 -12 406 -14 423 c 0,81,82
 -14 427 -14 427 -13 431.5 c 128,-1,83
 -12 436 -12 436 -11 440 c 0,84,85
 -22 455 -22 455 -29.5 469 c 128,-1,86
 -37 483 -37 483 -37 500 c 0,87,88
 -37 525 -37 525 -20 552 c 128,-1,89
 -3 579 -3 579 24.5 601.5 c 128,-1,90
 52 624 52 624 86.5 639 c 128,-1,91
 121 654 121 654 157 654 c 0,92,93
 190 654 190 654 213.5 643 c 128,-1,94
 237 632 237 632 242 615 c 0,59,60
EndSplineSet
Validated: 1
Substitution2: "Single Substitution lookup 3 subtable" dotlessi
Substitution2: "'salt' Stylistic Alternatives in Latin lookup 0 subtable" dotlessi
EndChar

StartChar: j
Encoding: 106 106 68
Width: 194
GlyphClass: 1
Flags: W
LayerCount: 2
Fore
SplineSet
57 281 m 2,0,1
 58 307 58 307 67 318 c 128,-1,2
 76 329 76 329 86 340 c 1,3,4
 96 323 96 323 103.5 300 c 128,-1,5
 111 277 111 277 117 252 c 128,-1,6
 123 227 123 227 127 201 c 128,-1,7
 131 175 131 175 134 151 c 1,8,9
 157 168 157 168 177 181 c 128,-1,10
 197 194 197 194 211 202 c 1,11,-1
 212 201 l 2,12,13
 212 198 212 198 211 196 c 0,14,15
 199 167 199 167 180 143 c 128,-1,16
 161 119 161 119 139 99 c 1,17,18
 140 88 140 88 140.5 80 c 128,-1,19
 141 72 141 72 141 67 c 0,20,21
 141 -10 141 -10 137.5 -60 c 128,-1,22
 134 -110 134 -110 129 -140.5 c 128,-1,23
 124 -171 124 -171 119 -185 c 128,-1,24
 114 -199 114 -199 111 -204 c 0,25,26
 98 -234 98 -234 80 -249 c 128,-1,27
 62 -264 62 -264 24 -264 c 0,28,29
 -2 -264 -2 -264 -16.5 -248 c 128,-1,30
 -31 -232 -31 -232 -38 -209.5 c 128,-1,31
 -45 -187 -45 -187 -46.5 -163.5 c 128,-1,32
 -48 -140 -48 -140 -48 -124 c 0,33,34
 -48 -63 -48 -63 -17 -10.5 c 128,-1,35
 14 42 14 42 57 85 c 1,36,-1
 57 281 l 2,0,1
238 615 m 1,37,-1
 239 615 l 2,38,39
 240 616 240 616 242 616 c 0,40,41
 248 616 248 616 257.5 613 c 128,-1,42
 267 610 267 610 276 603 c 128,-1,43
 285 596 285 596 291.5 586 c 128,-1,44
 298 576 298 576 298 562 c 0,45,46
 298 533 298 533 276.5 503.5 c 128,-1,47
 255 474 255 474 224 450.5 c 128,-1,48
 193 427 193 427 159 412 c 128,-1,49
 125 397 125 397 100 397 c 0,50,51
 85 397 85 397 68 399 c 128,-1,52
 51 401 51 401 37 406 c 1,53,54
 29 396 29 396 23.5 389 c 128,-1,55
 18 382 18 382 7 380 c 0,56,57
 -1 382 -1 382 -8.5 394 c 128,-1,58
 -16 406 -16 406 -18 423 c 0,59,60
 -18 427 -18 427 -17 431.5 c 128,-1,61
 -16 436 -16 436 -15 440 c 0,62,63
 -26 455 -26 455 -33.5 469 c 128,-1,64
 -41 483 -41 483 -41 500 c 0,65,66
 -41 525 -41 525 -24 552 c 128,-1,67
 -7 579 -7 579 20.5 601.5 c 128,-1,68
 48 624 48 624 82.5 639 c 128,-1,69
 117 654 117 654 153 654 c 0,70,71
 186 654 186 654 209.5 643 c 128,-1,72
 233 632 233 632 238 615 c 1,37,-1
68 464 m 0,73,74
 68 462 68 462 71 459 c 128,-1,75
 74 456 74 456 76 456 c 2,76,-1
 98 456 l 2,77,78
 117 456 117 456 143 462.5 c 128,-1,79
 169 469 169 469 193 481 c 128,-1,80
 217 493 217 493 233.5 510.5 c 128,-1,81
 250 528 250 528 250 551 c 0,82,83
 250 562 250 562 247 569 c 128,-1,84
 244 576 244 576 224 576 c 0,85,86
 202 576 202 576 181 566.5 c 128,-1,87
 160 557 160 557 140 541 c 128,-1,88
 120 525 120 525 101.5 505 c 128,-1,89
 83 485 83 485 68 464 c 0,73,74
57 19 m 1,90,91
 54 15 54 15 51.5 12 c 128,-1,92
 49 9 49 9 47 5 c 0,93,94
 28 -27 28 -27 24 -60.5 c 128,-1,95
 20 -94 20 -94 20 -123 c 0,96,97
 20 -134 20 -134 21 -147 c 128,-1,98
 22 -160 22 -160 24.5 -172 c 128,-1,99
 27 -184 27 -184 31 -193 c 128,-1,100
 35 -202 35 -202 42 -204 c 0,101,102
 46 -203 46 -203 48.5 -183 c 128,-1,103
 51 -163 51 -163 53 -132 c 128,-1,104
 55 -101 55 -101 56 -61.5 c 128,-1,105
 57 -22 57 -22 57 19 c 1,90,91
8 500 m 0,106,107
 10 498 10 498 12 498 c 0,108,109
 15 498 15 498 17 500 c 0,110,111
 22 507 22 507 31.5 517 c 128,-1,112
 41 527 41 527 52 538.5 c 128,-1,113
 63 550 63 550 74.5 561 c 128,-1,114
 86 572 86 572 95 580 c 1,115,-1
 95 581 l 2,116,117
 95 584 95 584 93 586 c 0,118,119
 55 578 55 578 33 553.5 c 128,-1,120
 11 529 11 529 8 500 c 0,106,107
EndSplineSet
Validated: 1
Substitution2: "'salt' Stylistic Alternatives in Latin lookup 0 subtable" dotlessj
EndChar

StartChar: k
Encoding: 107 107 69
Width: 306
GlyphClass: 1
Flags: W
LayerCount: 2
Fore
SplineSet
36 346 m 2,0,1
 41 350 41 350 45.5 351.5 c 128,-1,2
 50 353 50 353 53 353 c 0,3,4
 70 353 70 353 81.5 322 c 128,-1,5
 93 291 93 291 93 237 c 0,6,7
 93 230 93 230 93 222.5 c 128,-1,8
 93 215 93 215 92 207 c 1,9,10
 117 215 117 215 135.5 223.5 c 128,-1,11
 154 232 154 232 171 246 c 128,-1,12
 188 260 188 260 206 282.5 c 128,-1,13
 224 305 224 305 250 341 c 1,14,-1
 249 340 l 1,15,16
 250 345 250 345 258 345 c 0,17,18
 262 345 262 345 267.5 341 c 128,-1,19
 273 337 273 337 278 331.5 c 128,-1,20
 283 326 283 326 286.5 320 c 128,-1,21
 290 314 290 314 290 311 c 2,22,-1
 290 309 l 1,23,24
 279 280 279 280 266.5 260 c 128,-1,25
 254 240 254 240 238 223.5 c 128,-1,26
 222 207 222 207 202 191.5 c 128,-1,27
 182 176 182 176 156 158 c 1,28,29
 159 153 159 153 168 141 c 128,-1,30
 177 129 177 129 192.5 114.5 c 128,-1,31
 208 100 208 100 231 87.5 c 128,-1,32
 254 75 254 75 285 71 c 0,33,34
 294 66 294 66 297 57.5 c 128,-1,35
 300 49 300 49 300 39 c 0,36,37
 300 31 300 31 298 21 c 0,38,39
 296 19 296 19 294 17.5 c 128,-1,40
 292 16 292 16 290 14 c 0,41,42
 285 9 285 9 281 5.5 c 128,-1,43
 277 2 277 2 272 -1 c 0,44,45
 242 2 242 2 217.5 12 c 128,-1,46
 193 22 193 22 171.5 37.5 c 128,-1,47
 150 53 150 53 130.5 73.5 c 128,-1,48
 111 94 111 94 92 117 c 1,49,-1
 97 11 l 1,50,51
 80 -2 80 -2 57 -2 c 0,52,53
 40 -2 40 -2 28 2 c 1,54,55
 25 13 25 13 24 23.5 c 128,-1,56
 23 34 23 34 23 46 c 0,57,58
 23 51 23 51 23 58 c 128,-1,59
 23 65 23 65 24 71 c 0,60,61
 22 111 22 111 20.5 147.5 c 128,-1,62
 19 184 19 184 19 222 c 2,63,-1
 17 330 l 1,64,-1
 36 346 l 2,0,1
EndSplineSet
Validated: 1
EndChar

StartChar: l
Encoding: 108 108 70
Width: 226
GlyphClass: 1
Flags: W
LayerCount: 2
Fore
SplineSet
112 359 m 0,0,1
 123 359 123 359 126 353.5 c 128,-1,2
 129 348 129 348 129 337 c 0,3,4
 129 310 129 310 124 290 c 128,-1,5
 119 270 119 270 111.5 246 c 128,-1,6
 104 222 104 222 96 189.5 c 128,-1,7
 88 157 88 157 82 105 c 1,8,-1
 82 101 l 2,9,10
 82 94 82 94 85 89 c 128,-1,11
 88 84 88 84 93 84 c 0,12,13
 104 84 104 84 120.5 91.5 c 128,-1,14
 137 99 137 99 160 107 c 0,15,16
 171 112 171 112 184 117.5 c 128,-1,17
 197 123 197 123 205 123 c 256,18,19
 213 123 213 123 214.5 114 c 128,-1,20
 216 105 216 105 216 100 c 0,21,22
 216 84 216 84 203.5 65 c 128,-1,23
 191 46 191 46 172.5 30 c 128,-1,24
 154 14 154 14 132.5 3.5 c 128,-1,25
 111 -7 111 -7 93 -7 c 0,26,27
 68 -7 68 -7 53 4 c 128,-1,28
 38 15 38 15 30 32 c 128,-1,29
 22 49 22 49 19.5 69.5 c 128,-1,30
 17 90 17 90 17 109 c 0,31,32
 17 137 17 137 24 170.5 c 128,-1,33
 31 204 31 204 41 236 c 128,-1,34
 51 268 51 268 62 295 c 128,-1,35
 73 322 73 322 81 337 c 0,36,37
 86 345 86 345 92 349.5 c 128,-1,38
 98 354 98 354 112 359 c 0,0,1
EndSplineSet
Validated: 1
EndChar

StartChar: m
Encoding: 109 109 71
Width: 469
GlyphClass: 1
Flags: W
LayerCount: 2
Fore
SplineSet
110 276 m 1,0,1
 112 280 112 280 123.5 293 c 128,-1,2
 135 306 135 306 151.5 320.5 c 128,-1,3
 168 335 168 335 188.5 346.5 c 128,-1,4
 209 358 209 358 230 358 c 0,5,6
 240 358 240 358 246.5 351.5 c 128,-1,7
 253 345 253 345 256.5 334 c 128,-1,8
 260 323 260 323 261.5 309 c 128,-1,9
 263 295 263 295 264 280 c 0,10,11
 265 256 265 256 265.5 235.5 c 128,-1,12
 266 215 266 215 268 205 c 1,13,14
 273 218 273 218 282.5 240.5 c 128,-1,15
 292 263 292 263 307 284.5 c 128,-1,16
 322 306 322 306 344 321.5 c 128,-1,17
 366 337 366 337 395 337 c 0,18,19
 417 337 417 337 431.5 319.5 c 128,-1,20
 446 302 446 302 448 285 c 0,21,22
 448 275 448 275 449.5 249 c 128,-1,23
 451 223 451 223 451.5 190 c 128,-1,24
 452 157 452 157 452 121 c 128,-1,25
 452 85 452 85 450.5 54.5 c 128,-1,26
 449 24 449 24 444.5 4.5 c 128,-1,27
 440 -15 440 -15 433 -15 c 0,28,29
 413 -16 413 -16 401.5 -3 c 128,-1,30
 390 10 390 10 384 26.5 c 128,-1,31
 378 43 378 43 376 59 c 128,-1,32
 374 75 374 75 374 80 c 0,33,34
 374 86 374 86 373.5 98.5 c 128,-1,35
 373 111 373 111 372.5 127 c 128,-1,36
 372 143 372 143 372 160 c 128,-1,37
 372 177 372 177 372 194 c 0,38,39
 372 217 372 217 372.5 235 c 128,-1,40
 373 253 373 253 375 258 c 1,41,42
 357 250 357 250 343.5 223 c 128,-1,43
 330 196 330 196 320.5 161.5 c 128,-1,44
 311 127 311 127 303 92.5 c 128,-1,45
 295 58 295 58 288 37 c 0,46,47
 286 30 286 30 278 26.5 c 128,-1,48
 270 23 270 23 262 23 c 0,49,50
 249 23 249 23 239 39 c 128,-1,51
 229 55 229 55 221.5 80.5 c 128,-1,52
 214 106 214 106 209 136.5 c 128,-1,53
 204 167 204 167 201 194.5 c 128,-1,54
 198 222 198 222 196.5 243 c 128,-1,55
 195 264 195 264 195 271 c 1,56,57
 177 259 177 259 159 245 c 128,-1,58
 141 231 141 231 127 208 c 128,-1,59
 113 185 113 185 105 150.5 c 128,-1,60
 97 116 97 116 97 64 c 0,61,62
 97 34 97 34 92 12.5 c 128,-1,63
 87 -9 87 -9 62 -10 c 0,64,65
 51 -11 51 -11 43 -5 c 128,-1,66
 35 1 35 1 30 18 c 0,67,68
 27 26 27 26 25 43 c 128,-1,69
 23 60 23 60 21.5 78.5 c 128,-1,70
 20 97 20 97 19 115 c 128,-1,71
 18 133 18 133 18 144 c 0,72,73
 18 175 18 175 21 206.5 c 128,-1,74
 24 238 24 238 29 264 c 0,75,76
 32 279 32 279 35 292 c 128,-1,77
 38 305 38 305 42.5 314 c 128,-1,78
 47 323 47 323 55 328.5 c 128,-1,79
 63 334 63 334 76 334 c 0,80,81
 86 334 86 334 92.5 327 c 128,-1,82
 99 320 99 320 102.5 310.5 c 128,-1,83
 106 301 106 301 107.5 291.5 c 128,-1,84
 109 282 109 282 110 276 c 1,0,1
EndSplineSet
Validated: 33
EndChar

StartChar: n
Encoding: 110 110 72
Width: 332
GlyphClass: 1
Flags: W
LayerCount: 2
Fore
SplineSet
195 373 m 2,0,1
 195 379 195 379 196.5 386.5 c 128,-1,2
 198 394 198 394 205 394 c 0,3,4
 215 394 215 394 233.5 376.5 c 128,-1,5
 252 359 252 359 269.5 327.5 c 128,-1,6
 287 296 287 296 300 252 c 128,-1,7
 313 208 313 208 313 156 c 0,8,9
 313 133 313 133 308 109.5 c 128,-1,10
 303 86 303 86 293 66.5 c 128,-1,11
 283 47 283 47 268.5 34.5 c 128,-1,12
 254 22 254 22 236 22 c 0,13,14
 222 22 222 22 207 36 c 128,-1,15
 192 50 192 50 178.5 70.5 c 128,-1,16
 165 91 165 91 153 115 c 128,-1,17
 141 139 141 139 131 159.5 c 128,-1,18
 121 180 121 180 113.5 194 c 128,-1,19
 106 208 106 208 103 208 c 0,20,21
 99 208 99 208 96 197 c 0,22,23
 95 192 95 192 94 173 c 128,-1,24
 93 154 93 154 92 130 c 128,-1,25
 91 106 91 106 89.5 83.5 c 128,-1,26
 88 61 88 61 86 49 c 0,27,28
 85 44 85 44 83 36 c 128,-1,29
 81 28 81 28 78 20.5 c 128,-1,30
 75 13 75 13 69.5 7.5 c 128,-1,31
 64 2 64 2 56 2 c 0,32,33
 44 2 44 2 36.5 11 c 128,-1,34
 29 20 29 20 24.5 32.5 c 128,-1,35
 20 45 20 45 18.5 58.5 c 128,-1,36
 17 72 17 72 17 81 c 0,37,38
 17 94 17 94 19 116.5 c 128,-1,39
 21 139 21 139 25 165.5 c 128,-1,40
 29 192 29 192 35 218.5 c 128,-1,41
 41 245 41 245 49 267 c 128,-1,42
 57 289 57 289 66 303 c 128,-1,43
 75 317 75 317 86 317 c 256,44,45
 97 317 97 317 113.5 296.5 c 128,-1,46
 130 276 130 276 149 246.5 c 128,-1,47
 168 217 168 217 188.5 184 c 128,-1,48
 209 151 209 151 229 126 c 0,49,50
 237 118 237 118 236 118 c 1,51,52
 241 118 241 118 241.5 124.5 c 128,-1,53
 242 131 242 131 242 144 c 0,54,55
 242 178 242 178 238.5 202.5 c 128,-1,56
 235 227 235 227 229 249.5 c 128,-1,57
 223 272 223 272 215 297 c 128,-1,58
 207 322 207 322 198 357 c 2,59,-1
 195 369 l 1,60,-1
 195 373 l 2,0,1
EndSplineSet
Validated: 1
EndChar

StartChar: o
Encoding: 111 111 73
Width: 363
GlyphClass: 1
Flags: W
LayerCount: 2
Fore
SplineSet
48 39 m 1,0,1
 28 73 28 73 19 105 c 128,-1,2
 10 137 10 137 10 167 c 0,3,4
 10 207 10 207 26 241 c 128,-1,5
 42 275 42 275 68.5 300 c 128,-1,6
 95 325 95 325 129.5 339 c 128,-1,7
 164 353 164 353 202 353 c 0,8,9
 234 353 234 353 255 345 c 0,10,11
 280 334 280 334 280 325 c 0,12,13
 280 319 280 319 272.5 316 c 128,-1,14
 265 313 265 313 259 312 c 1,15,-1
 260 312 l 2,16,17
 277 312 277 312 294.5 308 c 128,-1,18
 312 304 312 304 328 293 c 0,19,20
 334 289 334 289 339.5 279.5 c 128,-1,21
 345 270 345 270 349 259 c 128,-1,22
 353 248 353 248 355.5 235.5 c 128,-1,23
 358 223 358 223 358 213 c 0,24,25
 358 167 358 167 335.5 129 c 128,-1,26
 313 91 313 91 277 63.5 c 128,-1,27
 241 36 241 36 196 20.5 c 128,-1,28
 151 5 151 5 106 3 c 1,29,30
 103 -6 103 -6 95 -13.5 c 128,-1,31
 87 -21 87 -21 78 -29 c 1,32,33
 63 -9 63 -9 55.5 8 c 128,-1,34
 48 25 48 25 48 37 c 2,35,-1
 48 39 l 1,0,1
262 251 m 0,36,37
 222 251 222 251 193 207 c 128,-1,38
 164 163 164 163 136 88 c 1,39,-1
 149 88 l 2,40,41
 169 88 169 88 195.5 98.5 c 128,-1,42
 222 109 222 109 245.5 127 c 128,-1,43
 269 145 269 145 285.5 169 c 128,-1,44
 302 193 302 193 302 219 c 0,45,46
 302 235 302 235 291 243 c 128,-1,47
 280 251 280 251 262 251 c 0,36,37
210 303 m 0,48,49
 221 306 221 306 230 308 c 0,50,51
 232 309 232 309 233 309 c 1,52,53
 226 308 226 308 219 306 c 0,54,55
 203 303 203 303 189 298 c 0,56,57
 157 290 157 290 134.5 274 c 128,-1,58
 112 258 112 258 97 237 c 128,-1,59
 82 216 82 216 75 192.5 c 128,-1,60
 68 169 68 169 68 146 c 0,61,62
 68 129 68 129 72 116 c 1,63,64
 104 199 104 199 136 244.5 c 128,-1,65
 168 290 168 290 210 303 c 0,48,49
EndSplineSet
Validated: 5
EndChar

StartChar: p
Encoding: 112 112 74
Width: 364
GlyphClass: 1
Flags: W
LayerCount: 2
Fore
SplineSet
140 297 m 1,0,1
 142 242 142 242 144.5 191.5 c 128,-1,2
 147 141 147 141 147 79 c 1,3,4
 167 76 167 76 177.5 74.5 c 128,-1,5
 188 73 188 73 205 73 c 0,6,7
 240 73 240 73 257.5 97 c 128,-1,8
 275 121 275 121 275 156 c 0,9,10
 275 175 275 175 268.5 196 c 128,-1,11
 262 217 262 217 246.5 236 c 128,-1,12
 231 255 231 255 205 271 c 128,-1,13
 179 287 179 287 140 297 c 1,0,1
47 333 m 1,14,15
 63 344 63 344 80.5 348 c 128,-1,16
 98 352 98 352 120 352 c 0,17,18
 232 352 232 352 291.5 298.5 c 128,-1,19
 351 245 351 245 351 142 c 0,20,21
 351 107 351 107 338 80 c 128,-1,22
 325 53 325 53 303.5 34.5 c 128,-1,23
 282 16 282 16 252.5 6 c 128,-1,24
 223 -4 223 -4 190 -4 c 0,25,26
 177 -4 177 -4 168 -3 c 128,-1,27
 159 -2 159 -2 144 0 c 1,28,29
 143 -58 143 -58 141.5 -111.5 c 128,-1,30
 140 -165 140 -165 135 -200 c 1,31,32
 125 -208 125 -208 119 -212 c 128,-1,33
 113 -216 113 -216 105 -216 c 0,34,35
 89 -216 89 -216 74 -200 c 1,36,37
 71 -185 71 -185 70.5 -162 c 128,-1,38
 70 -139 70 -139 70 -109 c 0,39,40
 70 -80 70 -80 70.5 -51 c 128,-1,41
 71 -22 71 -22 71 21 c 1,42,-1
 44 34 l 2,43,44
 31 39 31 39 20 43.5 c 128,-1,45
 9 48 9 48 9 66 c 0,46,47
 9 76 9 76 11.5 88 c 128,-1,48
 14 100 14 100 20 114 c 1,49,-1
 73 95 l 1,50,51
 74 114 74 114 76 140.5 c 128,-1,52
 78 167 78 167 82.5 195.5 c 128,-1,53
 87 224 87 224 95 251.5 c 128,-1,54
 103 279 103 279 115 301 c 1,55,56
 110 302 110 302 104.5 302 c 128,-1,57
 99 302 99 302 94 302 c 0,58,59
 80 302 80 302 67.5 299.5 c 128,-1,60
 55 297 55 297 36 293 c 1,61,-1
 33 293 l 2,62,63
 27 293 27 293 27 300 c 0,64,65
 27 310 27 310 47 333 c 1,14,15
EndSplineSet
Validated: 1
EndChar

StartChar: q
Encoding: 113 113 75
Width: 378
GlyphClass: 1
Flags: W
LayerCount: 2
Fore
SplineSet
259 358 m 0,0,1
 282 358 282 358 300.5 350 c 128,-1,2
 319 342 319 342 329 331 c 0,3,4
 332 326 332 326 335.5 321 c 128,-1,5
 339 316 339 316 339 309 c 256,6,7
 339 302 339 302 336 299 c 0,8,9
 323 304 323 304 315 305.5 c 128,-1,10
 307 307 307 307 299 307 c 0,11,12
 255 307 255 307 215 299.5 c 128,-1,13
 175 292 175 292 145 275 c 128,-1,14
 115 258 115 258 97.5 231.5 c 128,-1,15
 80 205 80 205 80 167 c 0,16,17
 80 135 80 135 90.5 115.5 c 128,-1,18
 101 96 101 96 120 86 c 128,-1,19
 139 76 139 76 164.5 72.5 c 128,-1,20
 190 69 190 69 220 69 c 1,21,22
 220 84 220 84 218.5 95 c 128,-1,23
 217 106 217 106 217 113 c 0,24,25
 217 147 217 147 220 179 c 128,-1,26
 223 211 223 211 232 236 c 128,-1,27
 241 261 241 261 258 276 c 128,-1,28
 275 291 275 291 303 291 c 0,29,30
 321 291 321 291 332 280.5 c 128,-1,31
 343 270 343 270 348.5 254 c 128,-1,32
 354 238 354 238 355.5 219.5 c 128,-1,33
 357 201 357 201 357 185 c 0,34,35
 357 162 357 162 355 139 c 128,-1,36
 353 116 353 116 346 93.5 c 128,-1,37
 339 71 339 71 325.5 51 c 128,-1,38
 312 31 312 31 288 15 c 1,39,40
 289 -8 289 -8 291 -25 c 2,41,-1
 296 -60 l 2,42,43
 299 -78 299 -78 302.5 -96 c 128,-1,44
 306 -114 306 -114 311 -137 c 0,45,46
 313 -146 313 -146 317 -158 c 2,47,-1
 325 -183 l 2,48,49
 329 -196 329 -196 332 -208.5 c 128,-1,50
 335 -221 335 -221 335 -230 c 0,51,52
 335 -246 335 -246 323 -246 c 0,53,54
 294 -246 294 -246 275 -224 c 128,-1,55
 256 -202 256 -202 244.5 -166.5 c 128,-1,56
 233 -131 233 -131 228 -87.5 c 128,-1,57
 223 -44 223 -44 222 0 c 1,58,59
 178 1 178 1 139.5 8 c 128,-1,60
 101 15 101 15 72.5 33 c 128,-1,61
 44 51 44 51 27.5 83 c 128,-1,62
 11 115 11 115 11 167 c 0,63,64
 11 222 11 222 30.5 259 c 128,-1,65
 50 296 50 296 83.5 318 c 128,-1,66
 117 340 117 340 162.5 349 c 128,-1,67
 208 358 208 358 259 358 c 0,0,1
286 76 m 1,68,69
 290 80 290 80 292.5 82 c 128,-1,70
 295 84 295 84 298 89 c 0,71,72
 310 109 310 109 314.5 127 c 128,-1,73
 319 145 319 145 319 173 c 0,74,75
 319 197 319 197 316 217.5 c 128,-1,76
 313 238 313 238 308 249 c 1,77,78
 292 241 292 241 289 211 c 128,-1,79
 286 181 286 181 286 146 c 2,80,-1
 286 76 l 1,68,69
EndSplineSet
Validated: 1
EndChar

StartChar: s
Encoding: 115 115 76
Width: 357
GlyphClass: 1
Flags: W
LayerCount: 2
Fore
SplineSet
67 252 m 0,0,1
 65 250 65 250 65 248 c 256,2,3
 65 246 65 246 67 246 c 0,4,5
 96 235 96 235 118 231 c 128,-1,6
 140 227 140 227 170 225 c 0,7,8
 195 223 195 223 225 220.5 c 128,-1,9
 255 218 255 218 280 208.5 c 128,-1,10
 305 199 305 199 322 179.5 c 128,-1,11
 339 160 339 160 339 125 c 0,12,13
 339 84 339 84 319.5 61.5 c 128,-1,14
 300 39 300 39 274.5 27.5 c 128,-1,15
 249 16 249 16 224 13.5 c 128,-1,16
 199 11 199 11 187 11 c 0,17,18
 155 11 155 11 126 20 c 128,-1,19
 97 29 97 29 75 43 c 128,-1,20
 53 57 53 57 40 74 c 128,-1,21
 27 91 27 91 27 106 c 0,22,23
 27 124 27 124 35.5 136 c 128,-1,24
 44 148 44 148 57.5 155 c 128,-1,25
 71 162 71 162 87 165 c 128,-1,26
 103 168 103 168 118 168 c 0,27,28
 147 168 147 168 181.5 160.5 c 128,-1,29
 216 153 216 153 247 137 c 0,30,31
 249 135 249 135 249 133 c 0,32,33
 249 129 249 129 247 127 c 0,34,35
 241 121 241 121 225 114 c 128,-1,36
 209 107 209 107 190 107 c 0,37,38
 179 107 179 107 166.5 110.5 c 128,-1,39
 154 114 154 114 140 118.5 c 128,-1,40
 126 123 126 123 111.5 127 c 128,-1,41
 97 131 97 131 82 131 c 0,42,43
 71 131 71 131 61 127 c 128,-1,44
 51 123 51 123 51 106 c 0,45,46
 51 97 51 97 58.5 91.5 c 128,-1,47
 66 86 66 86 78 84 c 128,-1,48
 90 82 90 82 104 81.5 c 128,-1,49
 118 81 118 81 132 81 c 0,50,51
 139 81 139 81 164.5 84 c 128,-1,52
 190 87 190 87 217.5 93.5 c 128,-1,53
 245 100 245 100 267 110 c 128,-1,54
 289 120 289 120 289 134 c 0,55,56
 289 147 289 147 272 156.5 c 128,-1,57
 255 166 255 166 231 172 c 128,-1,58
 207 178 207 178 182 181.5 c 128,-1,59
 157 185 157 185 141 185 c 0,60,61
 98 186 98 186 72 189 c 128,-1,62
 46 192 46 192 32.5 198.5 c 128,-1,63
 19 205 19 205 15 215.5 c 128,-1,64
 11 226 11 226 11 242 c 0,65,66
 11 265 11 265 25 282 c 128,-1,67
 39 299 39 299 60.5 310 c 128,-1,68
 82 321 82 321 107 327.5 c 128,-1,69
 132 334 132 334 154.5 337.5 c 128,-1,70
 177 341 177 341 192.5 342 c 128,-1,71
 208 343 208 343 210 343 c 0,72,73
 248 343 248 343 280.5 337.5 c 128,-1,74
 313 332 313 332 338 326 c 0,75,76
 343 325 343 325 346 322 c 128,-1,77
 349 319 349 319 349 311 c 0,78,79
 348 302 348 302 341.5 296.5 c 128,-1,80
 335 291 335 291 327 288 c 0,81,82
 321 286 321 286 310.5 284.5 c 128,-1,83
 300 283 300 283 294 282 c 0,84,85
 281 280 281 280 257 278.5 c 128,-1,86
 233 277 233 277 207.5 275 c 128,-1,87
 182 273 182 273 159 271 c 128,-1,88
 136 269 136 269 124 267 c 0,89,90
 99 263 99 263 87 260 c 128,-1,91
 75 257 75 257 67 252 c 0,0,1
EndSplineSet
Validated: 1
EndChar

StartChar: t
Encoding: 116 116 77
Width: 330
GlyphClass: 1
Flags: W
LayerCount: 2
Fore
SplineSet
220 305 m 1,0,1
 224 304 224 304 227.5 303.5 c 128,-1,2
 231 303 231 303 236 303 c 0,3,4
 242 303 242 303 250 305 c 128,-1,5
 258 307 258 307 265 310.5 c 128,-1,6
 272 314 272 314 277 318.5 c 128,-1,7
 282 323 282 323 282 328 c 0,8,9
 282 334 282 334 278 339 c 128,-1,10
 274 344 274 344 267 344 c 0,11,12
 252 344 252 344 236.5 334 c 128,-1,13
 221 324 221 324 220 305 c 1,0,1
181 -89 m 1,14,15
 174 -95 174 -95 169 -97 c 128,-1,16
 164 -99 164 -99 153 -99 c 0,17,18
 139 -99 139 -99 124.5 -87 c 128,-1,19
 110 -75 110 -75 103 -66 c 0,20,21
 90 -46 90 -46 87.5 -17 c 128,-1,22
 85 12 85 12 85 35 c 0,23,24
 85 100 85 100 95.5 152 c 128,-1,25
 106 204 106 204 119 244 c 1,26,27
 15 285 15 285 15 342 c 0,28,29
 15 352 15 352 19.5 367 c 128,-1,30
 24 382 24 382 35 386 c 0,31,32
 40 386 40 386 41.5 382 c 128,-1,33
 43 378 43 378 43.5 372.5 c 128,-1,34
 44 367 44 367 44 362 c 128,-1,35
 44 357 44 357 47 355 c 0,36,37
 73 334 73 334 99 325.5 c 128,-1,38
 125 317 125 317 156 312 c 1,39,40
 163 318 163 318 172 328.5 c 128,-1,41
 181 339 181 339 192.5 348.5 c 128,-1,42
 204 358 204 358 219 365 c 128,-1,43
 234 372 234 372 252 372 c 0,44,45
 262 372 262 372 274 369.5 c 128,-1,46
 286 367 286 367 296.5 359 c 128,-1,47
 307 351 307 351 314 334.5 c 128,-1,48
 321 318 321 318 321 291 c 0,49,50
 321 270 321 270 308 256.5 c 128,-1,51
 295 243 295 243 276.5 236 c 128,-1,52
 258 229 258 229 238 226.5 c 128,-1,53
 218 224 218 224 205 224 c 2,54,-1
 199 224 l 1,55,56
 186 176 186 176 182.5 123.5 c 128,-1,57
 179 71 179 71 179 21 c 0,58,59
 179 -8 179 -8 179.5 -36 c 128,-1,60
 180 -64 180 -64 181 -89 c 1,14,15
EndSplineSet
Validated: 1
EndChar

StartChar: u
Encoding: 117 117 78
Width: 334
GlyphClass: 1
Flags: W
LayerCount: 2
Fore
SplineSet
28 45 m 1,0,1
 21 68 21 68 18 90 c 128,-1,2
 15 112 15 112 15 133 c 0,3,4
 15 254 15 254 111 371 c 0,5,6
 118 376 118 376 125 376 c 0,7,8
 136 376 136 376 139 356 c 1,9,10
 125 308 125 308 112 261.5 c 128,-1,11
 99 215 99 215 91 166 c 0,12,13
 89 154 89 154 88 142.5 c 128,-1,14
 87 131 87 131 87 121 c 0,15,16
 87 97 87 97 93 83 c 128,-1,17
 99 69 99 69 119 69 c 0,18,19
 136 69 136 69 149 85.5 c 128,-1,20
 162 102 162 102 173.5 129.5 c 128,-1,21
 185 157 185 157 195.5 193 c 128,-1,22
 206 229 206 229 219 267 c 0,23,24
 237 311 237 311 250 311 c 0,25,26
 259 311 259 311 267 287 c 0,27,28
 292 220 292 220 301.5 176 c 128,-1,29
 311 132 311 132 315 97 c 2,30,-1
 320 48 l 1,31,-1
 320 38 l 2,32,33
 320 -4 320 -4 289 -4 c 0,34,35
 282 -4 282 -4 276.5 -3 c 128,-1,36
 271 -2 271 -2 264 0 c 1,37,38
 252 16 252 16 252 36 c 0,39,40
 252 49 252 49 250.5 64 c 128,-1,41
 249 79 249 79 247 93 c 2,42,-1
 243 133 l 1,43,44
 233 98 233 98 216 73 c 128,-1,45
 199 48 199 48 179.5 31.5 c 128,-1,46
 160 15 160 15 141 7.5 c 128,-1,47
 122 0 122 0 107 0 c 2,48,-1
 106 0 l 2,49,50
 51 1 51 1 28 45 c 1,0,1
EndSplineSet
Validated: 1
EndChar

StartChar: v
Encoding: 118 118 79
Width: 345
GlyphClass: 1
Flags: W
LayerCount: 2
Fore
SplineSet
65 355 m 1,0,1
 73 342 73 342 81 323.5 c 128,-1,2
 89 305 89 305 99 282 c 2,3,-1
 148 119 l 2,4,5
 150 110 150 110 158 99 c 1,6,-1
 252 305 l 2,7,8
 261 323 261 323 268 337 c 128,-1,9
 275 351 275 351 286 356 c 0,10,11
 287 357 287 357 291 357 c 0,12,13
 296 357 296 357 303 354 c 128,-1,14
 310 351 310 351 316 346.5 c 128,-1,15
 322 342 322 342 326.5 337 c 128,-1,16
 331 332 331 332 331 327 c 0,17,18
 331 313 331 313 326 299 c 128,-1,19
 321 285 321 285 309 258 c 2,20,-1
 218 53 l 2,21,22
 213 42 213 42 208 32 c 128,-1,23
 203 22 203 22 195 13 c 1,24,25
 182 6 182 6 170 3.5 c 128,-1,26
 158 1 158 1 145 1 c 0,27,28
 127 1 127 1 108 7 c 1,29,-1
 85 89 l 2,30,31
 81 101 81 101 70.5 130 c 128,-1,32
 60 159 60 159 47.5 191.5 c 128,-1,33
 35 224 35 224 23.5 254 c 128,-1,34
 12 284 12 284 6 298 c 1,35,-1
 6 305 l 2,36,37
 6 334 6 334 29 355 c 1,38,-1
 65 355 l 1,0,1
EndSplineSet
Validated: 1
EndChar

StartChar: w
Encoding: 119 119 80
Width: 413
GlyphClass: 1
Flags: W
LayerCount: 2
Fore
SplineSet
210 178 m 0,0,1
 210 189 210 189 203 198 c 1,2,3
 192 192 192 192 183.5 180.5 c 128,-1,4
 175 169 175 169 175 149 c 0,5,6
 175 143 175 143 176.5 129.5 c 128,-1,7
 178 116 178 116 181 107 c 1,8,9
 187 111 187 111 192.5 120 c 128,-1,10
 198 129 198 129 201.5 139.5 c 128,-1,11
 205 150 205 150 207.5 160 c 128,-1,12
 210 170 210 170 210 178 c 0,0,1
227 -8 m 0,13,14
 202 -8 202 -8 176.5 -3 c 128,-1,15
 151 2 151 2 135 26 c 1,16,17
 119 22 119 22 100 22 c 0,18,19
 58 22 58 22 34 47.5 c 128,-1,20
 10 73 10 73 10 118 c 256,21,22
 10 163 10 163 28.5 203.5 c 128,-1,23
 47 244 47 244 72.5 275 c 128,-1,24
 98 306 98 306 123 324.5 c 128,-1,25
 148 343 148 343 162 343 c 0,26,27
 169 343 169 343 179 341 c 0,28,29
 185 339 185 339 185 327 c 2,30,-1
 184 311 l 1,31,32
 165 293 165 293 146.5 271.5 c 128,-1,33
 128 250 128 250 113 226 c 128,-1,34
 98 202 98 202 88.5 175 c 128,-1,35
 79 148 79 148 79 119 c 0,36,37
 79 111 79 111 80.5 102 c 128,-1,38
 82 93 82 93 86 85.5 c 128,-1,39
 90 78 90 78 97 73 c 128,-1,40
 104 68 104 68 115 68 c 2,41,-1
 122 68 l 1,42,43
 117 85 117 85 114 102.5 c 128,-1,44
 111 120 111 120 111 137 c 0,45,46
 111 158 111 158 118.5 179 c 128,-1,47
 126 200 126 200 139.5 216.5 c 128,-1,48
 153 233 153 233 172.5 243.5 c 128,-1,49
 192 254 192 254 216 254 c 0,50,51
 245 254 245 254 259.5 233 c 128,-1,52
 274 212 274 212 274 183 c 0,53,54
 274 145 274 145 256 114.5 c 128,-1,55
 238 84 238 84 205 58 c 1,56,57
 219 51 219 51 227 51 c 0,58,59
 252 51 252 51 271 68.5 c 128,-1,60
 290 86 290 86 303 111.5 c 128,-1,61
 316 137 316 137 322.5 165.5 c 128,-1,62
 329 194 329 194 329 215 c 0,63,64
 329 253 329 253 314.5 286.5 c 128,-1,65
 300 320 300 320 265 352 c 1,66,-1
 265 359 l 2,67,68
 265 371 265 371 271 376 c 1,69,-1
 280 376 l 2,70,71
 284 376 284 376 289 375.5 c 128,-1,72
 294 375 294 375 301 371.5 c 128,-1,73
 308 368 308 368 318.5 361.5 c 128,-1,74
 329 355 329 355 344 343 c 0,75,76
 374 319 374 319 386 278 c 128,-1,77
 398 237 398 237 398 192 c 0,78,79
 398 152 398 152 388.5 116 c 128,-1,80
 379 80 379 80 358 52.5 c 128,-1,81
 337 25 337 25 304.5 8.5 c 128,-1,82
 272 -8 272 -8 227 -8 c 0,13,14
EndSplineSet
Validated: 1
EndChar

StartChar: x
Encoding: 120 120 81
Width: 334
GlyphClass: 1
Flags: W
LayerCount: 2
Fore
SplineSet
147 122 m 1,0,1
 133 88 133 88 121.5 58 c 128,-1,2
 110 28 110 28 105 11 c 0,3,4
 97 -14 97 -14 78 -22.5 c 128,-1,5
 59 -31 59 -31 44 -31 c 0,6,7
 39 -31 39 -31 37 -24.5 c 128,-1,8
 35 -18 35 -18 35 -9 c 0,9,10
 35 9 35 9 40 24 c 0,11,12
 50 63 50 63 66.5 103.5 c 128,-1,13
 83 144 83 144 103 182 c 1,14,15
 89 201 89 201 79 216 c 128,-1,16
 69 231 69 231 60.5 245 c 128,-1,17
 52 259 52 259 43.5 274 c 128,-1,18
 35 289 35 289 25 309 c 0,19,20
 20 315 20 315 20 328 c 0,21,22
 20 340 20 340 25 345 c 0,23,24
 50 361 50 361 83 361 c 1,25,26
 96 348 96 348 106 327 c 2,27,-1
 146 255 l 1,28,29
 168 285 168 285 191 305 c 0,30,31
 232 340 232 340 259 340 c 0,32,33
 265 340 265 340 271 338.5 c 128,-1,34
 277 337 277 337 281.5 330.5 c 128,-1,35
 286 324 286 324 289.5 312 c 128,-1,36
 293 300 293 300 295 279 c 1,37,38
 290 288 290 288 279 288 c 256,39,40
 268 288 268 288 255.5 278 c 128,-1,41
 243 268 243 268 229 257 c 0,42,43
 217 246 217 246 206 230 c 128,-1,44
 195 214 195 214 184 194 c 1,45,46
 193 180 193 180 205 159 c 128,-1,47
 217 138 217 138 229.5 118.5 c 128,-1,48
 242 99 242 99 255 85 c 128,-1,49
 268 71 268 71 280 71 c 0,50,51
 294 71 294 71 299.5 80 c 128,-1,52
 305 89 305 89 310 108 c 1,53,54
 314 96 314 96 315.5 82.5 c 128,-1,55
 317 69 317 69 317 57 c 0,56,57
 317 26 317 26 306 4 c 128,-1,58
 295 -18 295 -18 272 -18 c 0,59,60
 269 -18 269 -18 261 -11.5 c 128,-1,61
 253 -5 253 -5 244 3.5 c 128,-1,62
 235 12 235 12 226.5 20.5 c 128,-1,63
 218 29 218 29 214 34 c 2,64,-1
 147 122 l 1,0,1
EndSplineSet
Validated: 1
EndChar

StartChar: y
Encoding: 121 121 82
Width: 350
GlyphClass: 1
Flags: W
LayerCount: 2
Fore
SplineSet
156 75 m 1,0,1
 208 81 208 81 254 121 c 0,2,3
 297 158 297 158 297 219 c 0,4,5
 297 227 297 227 295.5 237 c 128,-1,6
 294 247 294 247 284 247 c 0,7,8
 278 247 278 247 268 239.5 c 128,-1,9
 258 232 258 232 248 222 c 128,-1,10
 238 212 238 212 229 201 c 128,-1,11
 220 190 220 190 214 183 c 0,12,13
 210 177 210 177 201.5 162 c 128,-1,14
 193 147 193 147 183.5 129.5 c 128,-1,15
 174 112 174 112 166.5 96.5 c 128,-1,16
 159 81 159 81 156 75 c 1,0,1
30 -292 m 1,17,18
 0 -289 0 -289 -18.5 -266.5 c 128,-1,19
 -37 -244 -37 -244 -37 -212 c 0,20,21
 -37 -205 -37 -205 -33.5 -182 c 128,-1,22
 -30 -159 -30 -159 -22 -124.5 c 128,-1,23
 -14 -90 -14 -90 0 -45.5 c 128,-1,24
 14 -1 14 -1 35 49 c 1,25,26
 27 67 27 67 22 85.5 c 128,-1,27
 17 104 17 104 17 122 c 0,28,29
 17 161 17 161 33 201 c 128,-1,30
 49 241 49 241 69.5 273.5 c 128,-1,31
 90 306 90 306 109.5 327 c 128,-1,32
 129 348 129 348 137 349 c 0,33,34
 148 347 148 347 150.5 341 c 128,-1,35
 153 335 153 335 153 321 c 0,36,37
 153 306 153 306 143 291 c 128,-1,38
 133 276 133 276 110 241 c 0,39,40
 98 222 98 222 84.5 194 c 128,-1,41
 71 166 71 166 71 139 c 0,42,43
 71 136 71 136 71.5 132.5 c 128,-1,44
 72 129 72 129 74 127 c 2,45,-1
 76 127 l 2,46,47
 77 127 77 127 80 131 c 0,48,49
 98 155 98 155 124 186.5 c 128,-1,50
 150 218 150 218 178 246.5 c 128,-1,51
 206 275 206 275 232.5 295 c 128,-1,52
 259 315 259 315 278 315 c 256,53,54
 297 315 297 315 310 301 c 128,-1,55
 323 287 323 287 330 267.5 c 128,-1,56
 337 248 337 248 340 227 c 128,-1,57
 343 206 343 206 343 191 c 0,58,59
 343 147 343 147 319 110 c 128,-1,60
 295 73 295 73 261 46 c 128,-1,61
 227 19 227 19 190 4 c 128,-1,62
 153 -11 153 -11 128 -11 c 0,63,64
 123 -11 123 -11 117.5 -11.5 c 128,-1,65
 112 -12 112 -12 106 -13 c 1,66,67
 91 -56 91 -56 81.5 -88.5 c 128,-1,68
 72 -121 72 -121 64.5 -151 c 128,-1,69
 57 -181 57 -181 50 -212.5 c 128,-1,70
 43 -244 43 -244 33 -284 c 1,71,-1
 30 -292 l 1,17,18
EndSplineSet
Validated: 1
EndChar

StartChar: z
Encoding: 122 122 83
Width: 323
GlyphClass: 1
Flags: W
LayerCount: 2
Fore
SplineSet
194 13 m 0,0,1
 168 11 168 11 142.5 7.5 c 128,-1,2
 117 4 117 4 92 4 c 0,3,4
 70 4 70 4 46 7 c 0,5,6
 31 10 31 10 22.5 20 c 128,-1,7
 14 30 14 30 14 42 c 0,8,9
 14 55 14 55 25 68 c 0,10,11
 45 94 45 94 68 118 c 2,12,-1
 115 167 l 2,13,14
 139 192 139 192 161.5 217.5 c 128,-1,15
 184 243 184 243 202 272 c 1,16,17
 176 264 176 264 154 264 c 0,18,19
 136 264 136 264 111 267 c 128,-1,20
 86 270 86 270 64 278 c 128,-1,21
 42 286 42 286 26.5 299.5 c 128,-1,22
 11 313 11 313 11 334 c 0,23,24
 11 343 11 343 14 354 c 1,25,26
 55 352 55 352 88.5 343.5 c 128,-1,27
 122 335 122 335 156 335 c 0,28,29
 176 335 176 335 195.5 339 c 128,-1,30
 215 343 215 343 238 354 c 0,31,32
 248 358 248 358 255 358 c 0,33,34
 268 358 268 358 277.5 349.5 c 128,-1,35
 287 341 287 341 289 327 c 2,36,-1
 291 308 l 1,37,38
 286 272 286 272 270 241 c 128,-1,39
 254 210 254 210 231.5 182.5 c 128,-1,40
 209 155 209 155 182.5 130 c 128,-1,41
 156 105 156 105 130 80 c 1,42,43
 161 82 161 82 190.5 86.5 c 128,-1,44
 220 91 220 91 251 91 c 2,45,-1
 264 91 l 2,46,47
 270 91 270 91 278 90 c 0,48,49
 296 89 296 89 304.5 78.5 c 128,-1,50
 313 68 313 68 313 54 c 256,51,52
 313 40 313 40 304 28.5 c 128,-1,53
 295 17 295 17 275 17 c 2,54,-1
 273 17 l 2,55,56
 268 18 268 18 262 18 c 2,57,-1
 251 18 l 2,58,59
 237 18 237 18 223 16.5 c 128,-1,60
 209 15 209 15 194 13 c 0,0,1
EndSplineSet
Validated: 1
EndChar

StartChar: dotlessi
Encoding: 260 305 84
AltUni2: 002020.ffffffff.0 002020.ffffffff.0
Width: 170
GlyphClass: 1
Flags: W
LayerCount: 2
Fore
SplineSet
73 340 m 0,0,1
 100 339 100 339 107 324 c 128,-1,2
 114 309 114 309 116 280 c 0,3,4
 118 219 118 219 122 156.5 c 128,-1,5
 126 94 126 94 126 34 c 0,6,7
 126 22 126 22 120 10.5 c 128,-1,8
 114 -1 114 -1 95 -1 c 0,9,10
 89 -1 89 -1 81 1 c 128,-1,11
 73 3 73 3 67 5 c 0,12,13
 62 6 62 6 58.5 13.5 c 128,-1,14
 55 21 55 21 52.5 29.5 c 128,-1,15
 50 38 50 38 48.5 46 c 128,-1,16
 47 54 47 54 47 58 c 0,17,18
 47 77 47 77 47 88.5 c 128,-1,19
 47 100 47 100 47.5 110 c 128,-1,20
 48 120 48 120 48.5 131.5 c 128,-1,21
 49 143 49 143 50 163 c 0,22,23
 51 174 51 174 54 215.5 c 128,-1,24
 57 257 57 257 67 333 c 0,25,26
 68 340 68 340 73 340 c 0,0,1
EndSplineSet
Validated: 1
EndChar

StartChar: asciitilde
Encoding: 126 126 85
Width: 485
GlyphClass: 1
Flags: W
LayerCount: 2
Fore
SplineSet
474 368 m 1,0,1
 436 315 436 315 416 295 c 256,2,3
 396 275 396 275 356 275 c 0,4,5
 302 275 302 275 232 312 c 0,6,7
 158 350 158 350 132 350 c 0,8,9
 98 350 98 350 81 331.5 c 128,-1,10
 64 313 64 313 48 278 c 1,11,12
 31 289 31 289 21.5 300.5 c 128,-1,13
 12 312 12 312 12 323 c 2,14,-1
 12 326 l 1,15,16
 37 374 37 374 64.5 403.5 c 128,-1,17
 92 433 92 433 137 433 c 0,18,19
 172 433 172 433 249 388 c 0,20,21
 326 344 326 344 350 344 c 0,22,23
 362 344 362 344 377.5 350 c 128,-1,24
 393 356 393 356 406.5 365.5 c 128,-1,25
 420 375 420 375 429.5 386.5 c 128,-1,26
 439 398 439 398 439 409 c 0,27,28
 439 414 439 414 438 416 c 1,29,30
 452 411 452 411 463.5 400.5 c 128,-1,31
 475 390 475 390 475 374 c 2,32,-1
 474 368 l 1,0,1
EndSplineSet
Validated: 1
EndChar

StartChar: ellipsis
Encoding: 261 8230 86
Width: 383
GlyphClass: 1
Flags: W
LayerCount: 2
Fore
SplineSet
357 13 m 0,0,1
 344 0 344 0 326 0 c 256,2,3
 308 0 308 0 294.5 11.5 c 128,-1,4
 281 23 281 23 281 40 c 0,5,6
 281 60 281 60 293.5 73.5 c 128,-1,7
 306 87 306 87 325 87 c 0,8,9
 343 87 343 87 356 74 c 128,-1,10
 369 61 369 61 369 43 c 0,11,12
 369 26 369 26 357 13 c 0,0,1
90 13 m 0,13,14
 77 0 77 0 59 0 c 256,15,16
 41 0 41 0 27.5 11.5 c 128,-1,17
 14 23 14 23 14 40 c 0,18,19
 14 60 14 60 26.5 73.5 c 128,-1,20
 39 87 39 87 58 87 c 0,21,22
 76 87 76 87 89 74 c 128,-1,23
 102 61 102 61 102 43 c 0,24,25
 102 26 102 26 90 13 c 0,13,14
224 13 m 0,26,27
 211 0 211 0 193 0 c 256,28,29
 175 0 175 0 161 11.5 c 128,-1,30
 147 23 147 23 147 40 c 0,31,32
 147 60 147 60 159.5 73.5 c 128,-1,33
 172 87 172 87 192 87 c 0,34,35
 210 87 210 87 223 74 c 128,-1,36
 236 61 236 61 236 43 c 0,37,38
 236 26 236 26 224 13 c 0,26,27
EndSplineSet
Validated: 1
EndChar

StartChar: circumflex
Encoding: 262 710 87
Width: 330
GlyphClass: 1
Flags: W
LayerCount: 2
Fore
SplineSet
160 827 m 1,0,1
 152 813 152 813 140.5 799 c 128,-1,2
 129 785 129 785 112 774 c 0,3,4
 98 765 98 765 86 760 c 128,-1,5
 74 755 74 755 55 755 c 0,6,7
 37 755 37 755 26 772 c 128,-1,8
 15 789 15 789 15 805 c 0,9,10
 15 815 15 815 19 820 c 1,11,12
 27 816 27 816 33 815.5 c 128,-1,13
 39 815 39 815 45 815 c 0,14,15
 68 815 68 815 81 826.5 c 128,-1,16
 94 838 94 838 108 857 c 0,17,18
 113 863 113 863 116 868 c 128,-1,19
 119 873 119 873 121.5 879 c 128,-1,20
 124 885 124 885 126.5 892.5 c 128,-1,21
 129 900 129 900 133 911 c 0,22,23
 135 925 135 925 145 932 c 128,-1,24
 155 939 155 939 166 939 c 0,25,26
 188 939 188 939 196 918 c 0,27,28
 201 901 201 901 204.5 885.5 c 128,-1,29
 208 870 208 870 223 849 c 0,30,31
 225 846 225 846 231.5 842 c 128,-1,32
 238 838 238 838 246.5 834.5 c 128,-1,33
 255 831 255 831 264 828.5 c 128,-1,34
 273 826 273 826 281 826 c 0,35,36
 292 826 292 826 297 818 c 128,-1,37
 302 810 302 810 302 799 c 256,38,39
 302 788 302 788 297 775.5 c 128,-1,40
 292 763 292 763 281 763 c 0,41,42
 258 763 258 763 233 771.5 c 128,-1,43
 208 780 208 780 195 791 c 0,44,45
 184 800 184 800 174.5 808 c 128,-1,46
 165 816 165 816 160 827 c 1,0,1
EndSplineSet
Validated: 1
EndChar

StartChar: quoteleft
Encoding: 263 8216 88
Width: 150
GlyphClass: 1
Flags: W
LayerCount: 2
Fore
SplineSet
132 662 m 2,0,1
 121 662 121 662 109.5 658 c 128,-1,2
 98 654 98 654 87.5 646.5 c 128,-1,3
 77 639 77 639 70.5 629.5 c 128,-1,4
 64 620 64 620 64 608 c 256,5,6
 64 596 64 596 74 592 c 0,7,8
 76 591 76 591 77 595.5 c 128,-1,9
 78 600 78 600 80 602 c 0,10,11
 82 606 82 606 87.5 607 c 128,-1,12
 93 608 93 608 99 608 c 0,13,14
 114 608 114 608 124.5 600 c 128,-1,15
 135 592 135 592 135 574 c 0,16,17
 135 553 135 553 116 539.5 c 128,-1,18
 97 526 97 526 77 526 c 0,19,20
 66 526 66 526 54.5 530.5 c 128,-1,21
 43 535 43 535 33 544 c 128,-1,22
 23 553 23 553 16.5 565.5 c 128,-1,23
 10 578 10 578 10 594 c 0,24,25
 10 611 10 611 17 628 c 128,-1,26
 24 645 24 645 36 658.5 c 128,-1,27
 48 672 48 672 63.5 680.5 c 128,-1,28
 79 689 79 689 97 689 c 0,29,30
 111 689 111 689 123.5 682.5 c 128,-1,31
 136 676 136 676 140 661 c 1,32,-1
 132 662 l 2,0,1
EndSplineSet
Validated: 1
EndChar

StartChar: quotedblleft
Encoding: 264 8220 89
Width: 327
GlyphClass: 1
Flags: W
LayerCount: 2
Fore
SplineSet
144 662 m 2,0,1
 133 662 133 662 121.5 658 c 128,-1,2
 110 654 110 654 99.5 646.5 c 128,-1,3
 89 639 89 639 82.5 629.5 c 128,-1,4
 76 620 76 620 76 608 c 256,5,6
 76 596 76 596 86 592 c 0,7,8
 88 591 88 591 89 595.5 c 128,-1,9
 90 600 90 600 92 602 c 0,10,11
 94 606 94 606 99.5 607 c 128,-1,12
 105 608 105 608 111 608 c 0,13,14
 126 608 126 608 136.5 600 c 128,-1,15
 147 592 147 592 147 574 c 0,16,17
 147 553 147 553 128 539.5 c 128,-1,18
 109 526 109 526 89 526 c 0,19,20
 78 526 78 526 66.5 530.5 c 128,-1,21
 55 535 55 535 45 544 c 128,-1,22
 35 553 35 553 28.5 565.5 c 128,-1,23
 22 578 22 578 22 594 c 0,24,25
 22 611 22 611 29 628 c 128,-1,26
 36 645 36 645 48 658.5 c 128,-1,27
 60 672 60 672 75.5 680.5 c 128,-1,28
 91 689 91 689 109 689 c 0,29,30
 123 689 123 689 135.5 682.5 c 128,-1,31
 148 676 148 676 152 661 c 1,32,-1
 144 662 l 2,0,1
302 662 m 2,33,34
 291 662 291 662 279.5 658 c 128,-1,35
 268 654 268 654 257.5 646.5 c 128,-1,36
 247 639 247 639 240.5 629.5 c 128,-1,37
 234 620 234 620 234 608 c 256,38,39
 234 596 234 596 244 592 c 0,40,41
 246 591 246 591 247 595.5 c 128,-1,42
 248 600 248 600 250 602 c 0,43,44
 252 606 252 606 257.5 607 c 128,-1,45
 263 608 263 608 269 608 c 0,46,47
 284 608 284 608 294.5 600 c 128,-1,48
 305 592 305 592 305 574 c 0,49,50
 305 553 305 553 286 539.5 c 128,-1,51
 267 526 267 526 247 526 c 0,52,53
 236 526 236 526 224.5 530.5 c 128,-1,54
 213 535 213 535 203 544 c 128,-1,55
 193 553 193 553 186.5 565.5 c 128,-1,56
 180 578 180 578 180 594 c 0,57,58
 180 611 180 611 187 628 c 128,-1,59
 194 645 194 645 206 658.5 c 128,-1,60
 218 672 218 672 233.5 680.5 c 128,-1,61
 249 689 249 689 267 689 c 0,62,63
 281 689 281 689 293.5 682.5 c 128,-1,64
 306 676 306 676 310 661 c 1,65,-1
 302 662 l 2,33,34
EndSplineSet
Validated: 1
EndChar

StartChar: quotedblright
Encoding: 265 8221 90
Width: 322
GlyphClass: 1
Flags: W
LayerCount: 2
Fore
SplineSet
183 548 m 2,0,1
 193 548 193 548 205 552 c 128,-1,2
 217 556 217 556 227.5 563.5 c 128,-1,3
 238 571 238 571 244.5 580.5 c 128,-1,4
 251 590 251 590 251 602 c 256,5,6
 251 614 251 614 241 618 c 0,7,8
 239 619 239 619 238 614.5 c 128,-1,9
 237 610 237 610 235 608 c 0,10,11
 233 604 233 604 227.5 603 c 128,-1,12
 222 602 222 602 216 602 c 0,13,14
 201 602 201 602 190.5 610 c 128,-1,15
 180 618 180 618 180 636 c 0,16,17
 180 657 180 657 199 670.5 c 128,-1,18
 218 684 218 684 238 684 c 0,19,20
 248 684 248 684 260 679.5 c 128,-1,21
 272 675 272 675 282 666 c 128,-1,22
 292 657 292 657 298.5 644.5 c 128,-1,23
 305 632 305 632 305 616 c 0,24,25
 305 599 305 599 298 582 c 128,-1,26
 291 565 291 565 279 551.5 c 128,-1,27
 267 538 267 538 251.5 529.5 c 128,-1,28
 236 521 236 521 218 521 c 0,29,30
 204 521 204 521 191.5 527.5 c 128,-1,31
 179 534 179 534 175 549 c 1,32,-1
 183 548 l 2,0,1
25 548 m 2,33,34
 35 548 35 548 47 552 c 128,-1,35
 59 556 59 556 69.5 563.5 c 128,-1,36
 80 571 80 571 86.5 580.5 c 128,-1,37
 93 590 93 590 93 602 c 256,38,39
 93 614 93 614 83 618 c 0,40,41
 81 619 81 619 80 614.5 c 128,-1,42
 79 610 79 610 77 608 c 0,43,44
 75 604 75 604 69.5 603 c 128,-1,45
 64 602 64 602 58 602 c 0,46,47
 43 602 43 602 32.5 610 c 128,-1,48
 22 618 22 618 22 636 c 0,49,50
 22 657 22 657 41 670.5 c 128,-1,51
 60 684 60 684 80 684 c 0,52,53
 90 684 90 684 102 679.5 c 128,-1,54
 114 675 114 675 124 666 c 128,-1,55
 134 657 134 657 140.5 644.5 c 128,-1,56
 147 632 147 632 147 616 c 0,57,58
 147 599 147 599 140 582 c 128,-1,59
 133 565 133 565 121 551.5 c 128,-1,60
 109 538 109 538 93.5 529.5 c 128,-1,61
 78 521 78 521 60 521 c 0,62,63
 46 521 46 521 33.5 527.5 c 128,-1,64
 21 534 21 534 17 549 c 1,65,-1
 25 548 l 2,33,34
EndSplineSet
Validated: 1
EndChar

StartChar: bullet
Encoding: 266 8226 91
Width: 231
GlyphClass: 1
Flags: W
LayerCount: 2
Fore
SplineSet
116 462 m 0,0,1
 135 462 135 462 152.5 454.5 c 128,-1,2
 170 447 170 447 183 434.5 c 128,-1,3
 196 422 196 422 203.5 404.5 c 128,-1,4
 211 387 211 387 211 367 c 0,5,6
 211 349 211 349 203.5 331.5 c 128,-1,7
 196 314 196 314 183.5 301 c 128,-1,8
 171 288 171 288 154 280 c 128,-1,9
 137 272 137 272 119 272 c 0,10,11
 99 272 99 272 81 279 c 128,-1,12
 63 286 63 286 49.5 298 c 128,-1,13
 36 310 36 310 28 326.5 c 128,-1,14
 20 343 20 343 20 361 c 0,15,16
 20 403 20 403 47 432.5 c 128,-1,17
 74 462 74 462 116 462 c 0,0,1
EndSplineSet
Validated: 1
EndChar

StartChar: endash
Encoding: 267 8211 92
Width: 518
GlyphClass: 1
Flags: W
LayerCount: 2
Fore
SplineSet
476 302 m 0,0,1
 481 303 481 303 491 303 c 0,2,3
 505 303 505 303 510 299 c 0,4,5
 515 291 515 291 515 273 c 0,6,7
 515 257 515 257 511 241.5 c 128,-1,8
 507 226 507 226 498 222 c 1,9,10
 478 225 478 225 459 226 c 128,-1,11
 440 227 440 227 420 227 c 2,12,-1
 192 215 l 2,13,14
 157 215 157 215 122 218.5 c 128,-1,15
 87 222 87 222 50 233 c 0,16,17
 27 239 27 239 17.5 251.5 c 128,-1,18
 8 264 8 264 8 277 c 0,19,20
 8 291 8 291 17 302 c 128,-1,21
 26 313 26 313 40 316 c 1,22,-1
 40 313 l 2,23,24
 40 309 40 309 44.5 308 c 128,-1,25
 49 307 49 307 61 304 c 0,26,27
 99 293 99 293 136 289.5 c 128,-1,28
 173 286 173 286 209 286 c 0,29,30
 275 286 275 286 340 293.5 c 128,-1,31
 405 301 405 301 476 302 c 0,0,1
EndSplineSet
Validated: 1
EndChar

StartChar: emdash
Encoding: 268 8212 93
Width: 787
GlyphClass: 1
Flags: W
LayerCount: 2
Fore
SplineSet
710 302 m 0,0,1
 715 303 715 303 721 303 c 128,-1,2
 727 303 727 303 732 303 c 0,3,4
 752 303 752 303 761 299 c 0,5,6
 768 292 768 292 768 273 c 0,7,8
 768 257 768 257 762 241.5 c 128,-1,9
 756 226 756 226 743 222 c 1,10,11
 714 225 714 225 685.5 226 c 128,-1,12
 657 227 657 227 628 227 c 0,13,14
 543 227 543 227 460 221 c 128,-1,15
 377 215 377 215 289 215 c 0,16,17
 238 215 238 215 185.5 218.5 c 128,-1,18
 133 222 133 222 79 233 c 0,19,20
 46 239 46 239 31.5 251.5 c 128,-1,21
 17 264 17 264 17 277 c 0,22,23
 17 291 17 291 30 302 c 128,-1,24
 43 313 43 313 65 316 c 1,25,-1
 64 313 l 2,26,27
 64 309 64 309 71.5 308 c 128,-1,28
 79 307 79 307 96 304 c 0,29,30
 153 293 153 293 206.5 289.5 c 128,-1,31
 260 286 260 286 314 286 c 0,32,33
 412 286 412 286 508.5 293.5 c 128,-1,34
 605 301 605 301 710 302 c 0,0,1
EndSplineSet
Validated: 1
EndChar

StartChar: tilde
Encoding: 269 732 94
Width: 403
GlyphClass: 1
Flags: W
LayerCount: 2
Fore
SplineSet
43 759 m 1,0,1
 29 770 29 770 19.5 780 c 128,-1,2
 10 790 10 790 10 801 c 0,3,4
 16 837 16 837 28 859 c 128,-1,5
 40 881 40 881 55 893.5 c 128,-1,6
 70 906 70 906 87 910 c 128,-1,7
 104 914 104 914 120 914 c 0,8,9
 129 914 129 914 148.5 900 c 128,-1,10
 168 886 168 886 190.5 869.5 c 128,-1,11
 213 853 213 853 235 839 c 128,-1,12
 257 825 257 825 272 825 c 0,13,14
 283 825 283 825 296.5 830 c 128,-1,15
 310 835 310 835 321.5 843.5 c 128,-1,16
 333 852 333 852 341 863 c 128,-1,17
 349 874 349 874 349 887 c 0,18,19
 349 894 349 894 348 897 c 1,20,21
 360 892 360 892 370 882 c 128,-1,22
 380 872 380 872 380 857 c 0,23,24
 380 813 380 813 350 784.5 c 128,-1,25
 320 756 320 756 277 756 c 0,26,27
 258 756 258 756 234 767.5 c 128,-1,28
 210 779 210 779 186.5 793.5 c 128,-1,29
 163 808 163 808 144 819.5 c 128,-1,30
 125 831 125 831 115 831 c 0,31,32
 86 831 86 831 71.5 812.5 c 128,-1,33
 57 794 57 794 43 759 c 1,0,1
EndSplineSet
Validated: 1
EndChar

StartChar: trademark
Encoding: 270 8482 95
Width: 860
GlyphClass: 1
Flags: W
LayerCount: 2
Fore
SplineSet
323 651 m 0,0,1
 309 648 309 648 292.5 642 c 128,-1,2
 276 636 276 636 261 627 c 1,3,-1
 265 627 l 2,4,5
 290 627 290 627 312.5 633 c 128,-1,6
 335 639 335 639 351 656 c 1,7,8
 343 655 343 655 335.5 653.5 c 128,-1,9
 328 652 328 652 323 651 c 0,0,1
199 236 m 0,10,11
 194 236 194 236 187.5 238 c 128,-1,12
 181 240 181 240 176 243 c 1,13,-1
 177 243 l 1,14,15
 168 247 168 247 159 258 c 0,16,17
 145 276 145 276 133.5 298.5 c 128,-1,18
 122 321 122 321 114 345 c 128,-1,19
 106 369 106 369 102 393 c 128,-1,20
 98 417 98 417 98 438 c 0,21,22
 98 481 98 481 111.5 518.5 c 128,-1,23
 125 556 125 556 148 593 c 1,24,25
 124 601 124 601 99 612.5 c 128,-1,26
 74 624 74 624 54 635 c 0,27,28
 39 643 39 643 23.5 657.5 c 128,-1,29
 8 672 8 672 8 690 c 0,30,31
 8 703 8 703 20 713.5 c 128,-1,32
 32 724 32 724 46 724 c 2,33,-1
 49 724 l 2,34,35
 56 724 56 724 57 720.5 c 128,-1,36
 58 717 58 717 58 714 c 0,37,38
 58 709 58 709 55 706 c 0,39,40
 44 695 44 695 44 689 c 0,41,42
 44 685 44 685 56 678 c 1,43,-1
 57 678 l 1,44,45
 74 664 74 664 110 652.5 c 128,-1,46
 146 641 146 641 180 635 c 1,47,48
 219 672 219 672 270.5 692 c 128,-1,49
 322 712 322 712 375 712 c 0,50,51
 381 712 381 712 388.5 711.5 c 128,-1,52
 396 711 396 711 402.5 708.5 c 128,-1,53
 409 706 409 706 413.5 700.5 c 128,-1,54
 418 695 418 695 418 686 c 0,55,56
 418 657 418 657 402 635.5 c 128,-1,57
 386 614 386 614 362.5 600 c 128,-1,58
 339 586 339 586 311.5 579.5 c 128,-1,59
 284 573 284 573 261 573 c 0,60,61
 247 573 247 573 235 574 c 128,-1,62
 223 575 223 575 209 578 c 1,63,64
 186 539 186 539 173.5 493.5 c 128,-1,65
 161 448 161 448 161 402 c 0,66,67
 161 345 161 345 184 296 c 0,68,69
 186 292 186 292 188 289 c 128,-1,70
 190 286 190 286 192 282 c 0,71,72
 194 279 194 279 195.5 276.5 c 128,-1,73
 197 274 197 274 199 272 c 0,74,75
 200 270 200 270 202 267.5 c 128,-1,76
 204 265 204 265 205 263 c 1,77,-1
 205 264 l 1,78,79
 208 259 208 259 210 256 c 128,-1,80
 212 253 212 253 212 248 c 0,81,82
 212 242 212 242 209.5 239 c 128,-1,83
 207 236 207 236 199 236 c 0,10,11
553 429 m 0,84,85
 550 438 550 438 543 459.5 c 128,-1,86
 536 481 536 481 528 507.5 c 128,-1,87
 520 534 520 534 512.5 561 c 128,-1,88
 505 588 505 588 499 609 c 1,89,90
 486 519 486 519 476 434.5 c 128,-1,91
 466 350 466 350 460 267 c 0,92,93
 460 260 460 260 454 253 c 128,-1,94
 448 246 448 246 440 246 c 2,95,-1
 438 246 l 2,96,97
 428 246 428 246 422 253 c 128,-1,98
 416 260 416 260 412.5 270 c 128,-1,99
 409 280 409 280 407.5 290.5 c 128,-1,100
 406 301 406 301 406 308 c 0,101,102
 400 351 400 351 400 400 c 0,103,104
 400 428 400 428 401.5 455.5 c 128,-1,105
 403 483 403 483 405.5 507 c 128,-1,106
 408 531 408 531 411 551 c 128,-1,107
 414 571 414 571 417 584 c 0,108,109
 420 600 420 600 425.5 622 c 128,-1,110
 431 644 431 644 441.5 664 c 128,-1,111
 452 684 452 684 468 698 c 128,-1,112
 484 712 484 712 509 712 c 0,113,114
 528 712 528 712 541.5 699.5 c 128,-1,115
 555 687 555 687 560 670 c 2,116,-1
 631 407 l 1,117,-1
 707 674 l 2,118,119
 712 691 712 691 729.5 698.5 c 128,-1,120
 747 706 747 706 761 706 c 0,121,122
 778 706 778 706 788.5 694 c 128,-1,123
 799 682 799 682 805 664.5 c 128,-1,124
 811 647 811 647 814 629 c 128,-1,125
 817 611 817 611 818 599 c 0,126,127
 818 597 818 597 818.5 594.5 c 128,-1,128
 819 592 819 592 819 591 c 2,129,-1
 819 372 l 2,130,131
 819 369 819 369 818.5 359 c 128,-1,132
 818 349 818 349 817 337.5 c 128,-1,133
 816 326 816 326 815.5 315.5 c 128,-1,134
 815 305 815 305 814 300 c 0,135,136
 814 298 814 298 813.5 292 c 128,-1,137
 813 286 813 286 811 279.5 c 128,-1,138
 809 273 809 273 805 267.5 c 128,-1,139
 801 262 801 262 794 262 c 256,140,141
 787 262 787 262 780.5 269 c 128,-1,142
 774 276 774 276 769 285 c 128,-1,143
 764 294 764 294 761 303 c 128,-1,144
 758 312 758 312 758 317 c 2,145,-1
 748 591 l 1,146,147
 743 569 743 569 736.5 543 c 128,-1,148
 730 517 730 517 723 492 c 1,149,-1
 723 493 l 1,150,151
 716 468 716 468 711 447 c 128,-1,152
 706 426 706 426 704 416 c 0,153,154
 704 414 704 414 703.5 413 c 128,-1,155
 703 412 703 412 703 410 c 0,156,157
 700 399 700 399 695.5 382 c 128,-1,158
 691 365 691 365 683 349 c 128,-1,159
 675 333 675 333 663 322 c 128,-1,160
 651 311 651 311 634 311 c 0,161,162
 620 311 620 311 613 314 c 128,-1,163
 606 317 606 317 601 325 c 0,164,165
 597 331 597 331 590 346 c 128,-1,166
 583 361 583 361 575.5 377.5 c 128,-1,167
 568 394 568 394 561.5 408.5 c 128,-1,168
 555 423 555 423 553 429 c 0,84,85
EndSplineSet
Validated: 1
EndChar

StartChar: exclamdown
Encoding: 161 161 98
Width: 170
GlyphClass: 1
Flags: W
LayerCount: 2
Fore
SplineSet
95 577 m 0,0,1
 78 577 78 577 65 590 c 128,-1,2
 52 603 52 603 52 621 c 0,3,4
 52 638 52 638 64.5 651 c 128,-1,5
 77 664 77 664 94 664 c 0,6,7
 112 664 112 664 126 652.5 c 128,-1,8
 140 641 140 641 140 624 c 0,9,10
 140 604 140 604 127.5 590.5 c 128,-1,11
 115 577 115 577 95 577 c 0,0,1
43 98 m 2,12,13
 53 140 53 140 58.5 180 c 128,-1,14
 64 220 64 220 66 260 c 0,15,16
 68 290 68 290 69 328 c 128,-1,17
 70 366 70 366 70 421 c 0,18,19
 70 442 70 442 70 466 c 128,-1,20
 70 490 70 490 69 517 c 0,21,22
 72 531 72 531 82 534.5 c 128,-1,23
 92 538 92 538 102 543 c 1,24,25
 106 540 106 540 112.5 536 c 128,-1,26
 119 532 119 532 121 525 c 2,27,-1
 124 461 l 1,28,-1
 124 382 l 2,29,30
 124 348 124 348 125 322 c 128,-1,31
 126 296 126 296 126 272 c 0,32,33
 126 252 126 252 125.5 229.5 c 128,-1,34
 125 207 125 207 125 175 c 0,35,36
 125 159 125 159 125 141 c 128,-1,37
 125 123 125 123 126 101 c 0,38,39
 126 87 126 87 123 71.5 c 128,-1,40
 120 56 120 56 112 26 c 0,41,42
 108 18 108 18 102.5 12.5 c 128,-1,43
 97 7 97 7 84 5 c 1,44,45
 67 10 67 10 51.5 18 c 128,-1,46
 36 26 36 26 30 40 c 1,47,-1
 43 98 l 2,12,13
EndSplineSet
Validated: 1
EndChar

StartChar: cent
Encoding: 162 162 99
Width: 303
GlyphClass: 1
Flags: W
LayerCount: 2
Fore
SplineSet
151 576 m 1,0,1
 171 576 171 576 184 560 c 0,2,3
 188 555 188 555 188 546.5 c 128,-1,4
 188 538 188 538 189 523 c 2,5,-1
 189 509 l 2,6,7
 189 500 189 500 190 488 c 1,8,-1
 211 489 l 2,9,10
 218 489 218 489 227.5 488.5 c 128,-1,11
 237 488 237 488 246 486 c 128,-1,12
 255 484 255 484 262.5 480 c 128,-1,13
 270 476 270 476 274 469 c 0,14,15
 280 458 280 458 282 454 c 128,-1,16
 284 450 284 450 284 440 c 0,17,18
 284 428 284 428 280 413 c 1,19,20
 262 405 262 405 249 405 c 0,21,22
 222 405 222 405 204 433 c 1,23,-1
 191 429 l 1,24,25
 191 400 191 400 191.5 369 c 128,-1,26
 192 338 192 338 192.5 310.5 c 128,-1,27
 193 283 193 283 193.5 262.5 c 128,-1,28
 194 242 194 242 194 235 c 2,29,-1
 194 233 l 1,30,31
 205 237 205 237 218 241.5 c 128,-1,32
 231 246 231 246 246 251 c 1,33,-1
 274 251 l 1,34,35
 288 240 288 240 288 225 c 2,36,-1
 288 222 l 2,37,38
 287 210 287 210 279 201.5 c 128,-1,39
 271 193 271 193 258 188 c 128,-1,40
 245 183 245 183 228.5 179.5 c 128,-1,41
 212 176 212 176 196 175 c 1,42,43
 197 161 197 161 197.5 146.5 c 128,-1,44
 198 132 198 132 198 118 c 0,45,46
 198 101 198 101 188 92 c 0,47,48
 183 90 183 90 178 90 c 2,49,-1
 157 90 l 2,50,51
 151 90 151 90 146 92 c 0,52,53
 139 97 139 97 135 103 c 128,-1,54
 131 109 131 109 129 114 c 2,55,-1
 129 173 l 1,56,57
 15 182 15 182 15 293 c 0,58,59
 15 321 15 321 23 349 c 128,-1,60
 31 377 31 377 47 401 c 128,-1,61
 63 425 63 425 86 444.5 c 128,-1,62
 109 464 109 464 138 476 c 1,63,64
 140 505 140 505 142 529.5 c 128,-1,65
 144 554 144 554 146 572 c 1,66,-1
 151 576 l 1,0,1
81 291 m 0,67,68
 81 268 81 268 91.5 251.5 c 128,-1,69
 102 235 102 235 131 230 c 1,70,-1
 131 249 l 2,71,72
 131 265 131 265 131.5 290 c 128,-1,73
 132 315 132 315 133 345.5 c 128,-1,74
 134 376 134 376 135 409 c 1,75,76
 113 392 113 392 97 360.5 c 128,-1,77
 81 329 81 329 81 291 c 0,67,68
EndSplineSet
Validated: 1
EndChar

StartChar: sterling
Encoding: 163 163 100
Width: 532
GlyphClass: 1
Flags: W
LayerCount: 2
Fore
SplineSet
147 107 m 1,0,1
 133 117 133 117 121.5 117.5 c 128,-1,2
 110 118 110 118 102 118 c 0,3,4
 88 118 88 118 75.5 106.5 c 128,-1,5
 63 95 63 95 63 78 c 0,6,7
 63 68 63 68 66.5 59.5 c 128,-1,8
 70 51 70 51 78 51 c 256,9,10
 86 51 86 51 95.5 52.5 c 128,-1,11
 105 54 105 54 114.5 60 c 128,-1,12
 124 66 124 66 132.5 77 c 128,-1,13
 141 88 141 88 147 107 c 1,0,1
386 -39 m 0,14,15
 379 -39 379 -39 364.5 -36 c 128,-1,16
 350 -33 350 -33 338 -25 c 0,17,18
 319 -14 319 -14 298.5 2 c 128,-1,19
 278 18 278 18 258 35 c 128,-1,20
 238 52 238 52 218 67 c 128,-1,21
 198 82 198 82 181 91 c 1,22,23
 164 48 164 48 138.5 25 c 128,-1,24
 113 2 113 2 75 2 c 0,25,26
 50 2 50 2 33 18.5 c 128,-1,27
 16 35 16 35 16 65 c 0,28,29
 16 84 16 84 23 102.5 c 128,-1,30
 30 121 30 121 41 135 c 128,-1,31
 52 149 52 149 66 157.5 c 128,-1,32
 80 166 80 166 94 166 c 0,33,34
 119 166 119 166 134 163 c 128,-1,35
 149 160 149 160 162 156 c 1,36,37
 171 182 171 182 177.5 214 c 128,-1,38
 184 246 184 246 189 279 c 1,39,-1
 161 278 l 2,40,41
 150 278 150 278 137.5 280 c 128,-1,42
 125 282 125 282 104 288 c 0,43,44
 84 294 84 294 75.5 305 c 128,-1,45
 67 316 67 316 67 327 c 256,46,47
 67 338 67 338 74.5 348 c 128,-1,48
 82 358 82 358 95 360 c 1,49,-1
 95 358 l 2,50,51
 95 355 95 355 99 354 c 128,-1,52
 103 353 103 353 114 351 c 0,53,54
 140 343 140 343 153 341.5 c 128,-1,55
 166 340 166 340 178 340 c 2,56,-1
 195 340 l 1,57,58
 196 354 196 354 196 370 c 128,-1,59
 196 386 196 386 198 412 c 0,60,61
 199 417 199 417 199 422 c 128,-1,62
 199 427 199 427 199 432 c 2,63,-1
 195 521 l 2,64,65
 195 545 195 545 197 566 c 128,-1,66
 199 587 199 587 205 598 c 0,67,68
 220 627 220 627 238 633 c 128,-1,69
 256 639 256 639 279 639 c 0,70,71
 286 639 286 639 298.5 636 c 128,-1,72
 311 633 311 633 324 629 c 128,-1,73
 337 625 337 625 348 621 c 128,-1,74
 359 617 359 617 364 614 c 0,75,76
 372 609 372 609 379.5 600.5 c 128,-1,77
 387 592 387 592 393 581.5 c 128,-1,78
 399 571 399 571 403 560.5 c 128,-1,79
 407 550 407 550 407 542 c 0,80,81
 407 532 407 532 401 528 c 1,82,83
 395 534 395 534 385 541 c 128,-1,84
 375 548 375 548 363 554.5 c 128,-1,85
 351 561 351 561 339.5 565.5 c 128,-1,86
 328 570 328 570 320 570 c 0,87,88
 302 570 302 570 291.5 565.5 c 128,-1,89
 281 561 281 561 275 548.5 c 128,-1,90
 269 536 269 536 266.5 513 c 128,-1,91
 264 490 264 490 263 454 c 0,92,93
 261 427 261 427 259 399.5 c 128,-1,94
 257 372 257 372 253 345 c 1,95,96
 275 348 275 348 301 351 c 128,-1,97
 327 354 327 354 364 355 c 2,98,-1
 375 356 l 2,99,100
 388 356 388 356 393 352 c 0,101,102
 398 345 398 345 398 328 c 0,103,104
 398 314 398 314 394.5 301 c 128,-1,105
 391 288 391 288 384 285 c 0,106,107
 367 287 367 287 352 288.5 c 128,-1,108
 337 290 337 290 323 290 c 0,109,110
 300 290 300 290 280 287.5 c 128,-1,111
 260 285 260 285 241 282 c 1,112,113
 233 247 233 247 223.5 213 c 128,-1,114
 214 179 214 179 203 144 c 1,115,116
 229 131 229 131 259 115 c 128,-1,117
 289 99 289 99 318.5 79 c 128,-1,118
 348 59 348 59 374.5 36 c 128,-1,119
 401 13 401 13 421 -13 c 0,120,121
 426 -21 426 -21 426 -25 c 0,122,123
 426 -33 426 -33 413.5 -36 c 128,-1,124
 401 -39 401 -39 386 -39 c 0,14,15
EndSplineSet
Validated: 1
EndChar

StartChar: currency
Encoding: 164 164 101
Width: 457
GlyphClass: 1
Flags: W
LayerCount: 2
Fore
SplineSet
175 409 m 1,0,1
 176 421 176 421 177 427 c 128,-1,2
 178 433 178 433 179.5 437 c 128,-1,3
 181 441 181 441 183 445 c 128,-1,4
 185 449 185 449 189 458 c 1,5,6
 183 449 183 449 179 447 c 0,7,8
 162 440 162 440 148 432 c 128,-1,9
 134 424 134 424 123.5 411.5 c 128,-1,10
 113 399 113 399 107.5 380 c 128,-1,11
 102 361 102 361 102 333 c 0,12,13
 102 279 102 279 134 244.5 c 128,-1,14
 166 210 166 210 221 210 c 0,15,16
 261 210 261 210 299 240 c 0,17,18
 305 247 305 247 311 250 c 0,19,20
 328 267 328 267 339.5 289 c 128,-1,21
 351 311 351 311 351 336 c 256,22,23
 351 361 351 361 344 382.5 c 128,-1,24
 337 404 337 404 325 421 c 1,25,26
 316 425 316 425 311 436 c 1,27,28
 286 461 286 461 258 461 c 0,29,30
 246 461 246 461 239 458 c 128,-1,31
 232 455 232 455 230 453 c 2,32,-1
 175 409 l 1,0,1
70 237 m 1,33,34
 51 272 51 272 51 322 c 0,35,36
 51 344 51 344 56.5 372.5 c 128,-1,37
 62 401 62 401 79 427 c 1,38,-1
 79 428 l 1,39,40
 71 433 71 433 62.5 438.5 c 128,-1,41
 54 444 54 444 47 451 c 128,-1,42
 40 458 40 458 35.5 466.5 c 128,-1,43
 31 475 31 475 32 486 c 0,44,45
 32 501 32 501 41.5 509 c 128,-1,46
 51 517 51 517 62 517 c 0,47,48
 70 517 70 517 77 505.5 c 128,-1,49
 84 494 84 494 98 486 c 0,50,51
 103 483 103 483 109.5 479 c 128,-1,52
 116 475 116 475 122 470 c 1,53,54
 138 481 138 481 158.5 488 c 128,-1,55
 179 495 179 495 205 498 c 1,56,57
 216 506 216 506 231.5 507.5 c 128,-1,58
 247 509 247 509 258 509 c 0,59,60
 278 509 278 509 296.5 501 c 128,-1,61
 315 493 315 493 331 479 c 1,62,63
 348 485 348 485 356.5 492.5 c 128,-1,64
 365 500 365 500 369.5 506 c 128,-1,65
 374 512 374 512 377.5 516 c 128,-1,66
 381 520 381 520 387 520 c 0,67,68
 399 520 399 520 408.5 512 c 128,-1,69
 418 504 418 504 418 491 c 0,70,71
 418 483 418 483 414 476 c 0,72,73
 407 460 407 460 393 453 c 128,-1,74
 379 446 379 446 369 432 c 1,75,76
 383 407 383 407 391 378.5 c 128,-1,77
 399 350 399 350 399 322 c 0,78,79
 399 297 399 297 391.5 275 c 128,-1,80
 384 253 384 253 371 234 c 1,81,82
 380 227 380 227 388.5 218 c 128,-1,83
 397 209 397 209 405 201 c 0,84,85
 415 191 415 191 415 179 c 256,86,87
 415 167 415 167 402.5 158 c 128,-1,88
 390 149 390 149 378 149 c 0,89,90
 373 149 373 149 370 152.5 c 128,-1,91
 367 156 367 156 362 161 c 0,92,93
 354 169 354 169 345.5 177.5 c 128,-1,94
 337 186 337 186 329 191 c 1,95,-1
 328 191 l 1,96,97
 280 157 280 157 226 157 c 0,98,99
 158 157 158 157 115 186 c 1,100,101
 108 178 108 178 100 171.5 c 128,-1,102
 92 165 92 165 85 159 c 0,103,104
 74 147 74 147 61 147 c 0,105,106
 43 147 43 147 35 152 c 128,-1,107
 27 157 27 157 27 164 c 0,108,109
 27 169 27 169 31 180.5 c 128,-1,110
 35 192 35 192 39 197 c 0,111,112
 45 206 45 206 53.5 212 c 128,-1,113
 62 218 62 218 69 225 c 1,114,-1
 70 237 l 1,33,34
EndSplineSet
Validated: 1
EndChar

StartChar: brokenbar
Encoding: 166 166 102
Width: 130
GlyphClass: 1
Flags: W
LayerCount: 2
Fore
SplineSet
33 704 m 0,0,1
 38 709 38 709 43.5 709.5 c 128,-1,2
 49 710 49 710 54 712 c 0,3,4
 71 705 71 705 86 687 c 1,5,6
 88 676 88 676 89.5 662.5 c 128,-1,7
 91 649 91 649 91 632 c 2,8,-1
 96 361 l 1,9,10
 86 356 86 356 73 353.5 c 128,-1,11
 60 351 60 351 49 351 c 256,12,13
 38 351 38 351 30.5 353.5 c 128,-1,14
 23 356 23 356 23 361 c 2,15,-1
 25 550 l 1,16,-1
 25 608 l 2,17,18
 25 636 25 636 26.5 662 c 128,-1,19
 28 688 28 688 33 704 c 0,0,1
22 16 m 0,20,21
 22 69 22 69 22 140.5 c 128,-1,22
 22 212 22 212 23 284 c 1,23,-1
 25 284 l 2,24,25
 31 284 31 284 48.5 286.5 c 128,-1,26
 66 289 66 289 80 289 c 0,27,28
 96 289 96 289 97 284 c 2,29,-1
 99 184 l 2,30,31
 101 122 101 122 102.5 88.5 c 128,-1,32
 104 55 104 55 104.5 39 c 128,-1,33
 105 23 105 23 105 20 c 128,-1,34
 105 17 105 17 105 16 c 0,35,36
 105 -1 105 -1 100.5 -11 c 128,-1,37
 96 -21 96 -21 82 -29 c 1,38,39
 50 -29 50 -29 31 -11 c 0,40,41
 29 -4 29 -4 25.5 2 c 128,-1,42
 22 8 22 8 22 16 c 0,20,21
EndSplineSet
Validated: 1
EndChar

